<svg xmlns="http://www.w3.org/2000/svg" xmlns:xlink="http://www.w3.org/1999/xlink" contentStyleType="text/css" height="722px" preserveAspectRatio="none" style="width:1182px;height:722px;background:#FFFFFF;" version="1.1" viewBox="0 0 1182 722" width="1182px" zoomAndPan="magnify"><defs/><g><rect fill="#FFFFFF" height="517.7656" style="stroke:#181818;stroke-width:1.0;" width="10" x="34.626" y="98.5547"/><rect fill="#FFFFFF" height="517.7656" style="stroke:#181818;stroke-width:1.0;" width="10" x="589.4658" y="98.5547"/><rect fill="#FFFFFF" height="112.6641" style="stroke:#181818;stroke-width:1.0;" width="10" x="851.1416" y="240.7734"/><rect fill="#FFFFFF" height="112.6641" style="stroke:#181818;stroke-width:1.0;" width="10" x="851.1416" y="466.1016"/><rect fill="#FFFFFF" height="37.5547" style="stroke:#181818;stroke-width:1.0;" width="10" x="1112.8174" y="278.3281"/><rect fill="#FFFFFF" height="37.5547" style="stroke:#181818;stroke-width:1.0;" width="10" x="1112.8174" y="503.6563"/><line style="stroke:#181818;stroke-width:0.5;stroke-dasharray:5.0,5.0;" x1="39" x2="39" y1="88.5547" y2="634.3203"/><line style="stroke:#181818;stroke-width:0.5;stroke-dasharray:5.0,5.0;" x1="593.7793" x2="593.7793" y1="88.5547" y2="634.3203"/><line style="stroke:#181818;stroke-width:0.5;stroke-dasharray:5.0,5.0;" x1="855.333" x2="855.333" y1="88.5547" y2="634.3203"/><line style="stroke:#181818;stroke-width:0.5;stroke-dasharray:5.0,5.0;" x1="1117.2988" x2="1117.2988" y1="88.5547" y2="634.3203"/><text fill="#000000" font-family="sans-serif" font-size="20" lengthAdjust="spacing" textLength="63.252" x="5" y="84.3359">Admin</text><ellipse cx="39.626" cy="13.5" fill="#E2E2F0" rx="8" ry="8" style="stroke:#181818;stroke-width:0.5;"/><path d="M39.626,21.5 L39.626,48.5 M26.626,29.5 L52.626,29.5 M39.626,48.5 L26.626,63.5 M39.626,48.5 L52.626,63.5 " fill="none" style="stroke:#181818;stroke-width:0.5;"/><text fill="#000000" font-family="sans-serif" font-size="20" lengthAdjust="spacing" textLength="63.252" x="5" y="652.6563">Admin</text><ellipse cx="39.626" cy="665.375" fill="#E2E2F0" rx="8" ry="8" style="stroke:#181818;stroke-width:0.5;"/><path d="M39.626,673.375 L39.626,700.375 M26.626,681.375 L52.626,681.375 M39.626,700.375 L26.626,715.375 M39.626,700.375 L52.626,715.375 " fill="none" style="stroke:#181818;stroke-width:0.5;"/><rect fill="#E2E2F0" height="37.5547" rx="2.5" ry="2.5" style="stroke:#181818;stroke-width:0.5;" width="111.373" x="538.7793" y="50"/><text fill="#000000" font-family="sans-serif" font-size="20" lengthAdjust="spacing" textLength="97.373" x="545.7793" y="76.3359">Controller</text><rect fill="#E2E2F0" height="37.5547" rx="2.5" ry="2.5" style="stroke:#181818;stroke-width:0.5;" width="111.373" x="538.7793" y="633.3203"/><text fill="#000000" font-family="sans-serif" font-size="20" lengthAdjust="spacing" textLength="97.373" x="545.7793" y="659.6563">Controller</text><rect fill="#E2E2F0" height="37.5547" rx="2.5" ry="2.5" style="stroke:#181818;stroke-width:0.5;" width="81.6172" x="815.333" y="50"/><text fill="#000000" font-family="sans-serif" font-size="20" lengthAdjust="spacing" textLength="67.6172" x="822.333" y="76.3359">Service</text><rect fill="#E2E2F0" height="37.5547" rx="2.5" ry="2.5" style="stroke:#181818;stroke-width:0.5;" width="81.6172" x="815.333" y="633.3203"/><text fill="#000000" font-family="sans-serif" font-size="20" lengthAdjust="spacing" textLength="67.6172" x="822.333" y="659.6563">Service</text><rect fill="#E2E2F0" height="37.5547" rx="2.5" ry="2.5" style="stroke:#181818;stroke-width:0.5;" width="117.0371" x="1059.2988" y="50"/><text fill="#000000" font-family="sans-serif" font-size="20" lengthAdjust="spacing" textLength="103.0371" x="1066.2988" y="76.3359">Repository</text><rect fill="#E2E2F0" height="37.5547" rx="2.5" ry="2.5" style="stroke:#181818;stroke-width:0.5;" width="117.0371" x="1059.2988" y="633.3203"/><text fill="#000000" font-family="sans-serif" font-size="20" lengthAdjust="spacing" textLength="103.0371" x="1066.2988" y="659.6563">Repository</text><rect fill="#FFFFFF" height="517.7656" style="stroke:#181818;stroke-width:1.0;" width="10" x="34.626" y="98.5547"/><rect fill="#FFFFFF" height="517.7656" style="stroke:#181818;stroke-width:1.0;" width="10" x="589.4658" y="98.5547"/><rect fill="#FFFFFF" height="112.6641" style="stroke:#181818;stroke-width:1.0;" width="10" x="851.1416" y="240.7734"/><rect fill="#FFFFFF" height="112.6641" style="stroke:#181818;stroke-width:1.0;" width="10" x="851.1416" y="466.1016"/><rect fill="#FFFFFF" height="37.5547" style="stroke:#181818;stroke-width:1.0;" width="10" x="1112.8174" y="278.3281"/><rect fill="#FFFFFF" height="37.5547" style="stroke:#181818;stroke-width:1.0;" width="10" x="1112.8174" y="503.6563"/><polygon fill="#181818" points="577.4658,124.1094,587.4658,128.1094,577.4658,132.1094,581.4658,128.1094" style="stroke:#181818;stroke-width:1.0;"/><line style="stroke:#181818;stroke-width:1.0;" x1="44.626" x2="583.4658" y1="128.1094" y2="128.1094"/><text fill="#000000" font-family="sans-serif" font-size="20" lengthAdjust="spacing" textLength="333.7207" x="51.626" y="121.8906">ask to edit existing operation type</text><polygon fill="#181818" points="55.626,161.6641,45.626,165.6641,55.626,169.6641,51.626,165.6641" style="stroke:#181818;stroke-width:1.0;"/><line style="stroke:#181818;stroke-width:1.0;stroke-dasharray:2.0,2.0;" x1="49.626" x2="588.4658" y1="165.6641" y2="165.6641"/><text fill="#000000" font-family="sans-serif" font-size="20" lengthAdjust="spacing" textLength="520.8398" x="61.626" y="159.4453">shows existing operation types and asks for selection</text><polygon fill="#181818" points="577.4658,199.2188,587.4658,203.2188,577.4658,207.2188,581.4658,203.2188" style="stroke:#181818;stroke-width:1.0;"/><line style="stroke:#181818;stroke-width:1.0;" x1="44.626" x2="583.4658" y1="203.2188" y2="203.2188"/><text fill="#000000" font-family="sans-serif" font-size="20" lengthAdjust="spacing" textLength="272.9199" x="51.626" y="197">select operation type to edit</text><polygon fill="#181818" points="839.1416,236.7734,849.1416,240.7734,839.1416,244.7734,843.1416,240.7734" style="stroke:#181818;stroke-width:1.0;"/><line style="stroke:#181818;stroke-width:1.0;" x1="599.4658" x2="845.1416" y1="240.7734" y2="240.7734"/><text fill="#000000" font-family="sans-serif" font-size="20" lengthAdjust="spacing" textLength="232.6758" x="606.4658" y="234.5547">get operation type by id</text><polygon fill="#181818" points="1100.8174,274.3281,1110.8174,278.3281,1100.8174,282.3281,1104.8174,278.3281" style="stroke:#181818;stroke-width:1.0;"/><line style="stroke:#181818;stroke-width:1.0;" x1="861.1416" x2="1106.8174" y1="278.3281" y2="278.3281"/><text fill="#000000" font-family="sans-serif" font-size="20" lengthAdjust="spacing" textLength="232.6758" x="868.1416" y="272.1094">get operation type by id</text><polygon fill="#181818" points="872.1416,311.8828,862.1416,315.8828,872.1416,319.8828,868.1416,315.8828" style="stroke:#181818;stroke-width:1.0;"/><line style="stroke:#181818;stroke-width:1.0;stroke-dasharray:2.0,2.0;" x1="866.1416" x2="1116.8174" y1="315.8828" y2="315.8828"/><text fill="#000000" font-family="sans-serif" font-size="20" lengthAdjust="spacing" textLength="141.1914" x="878.1416" y="309.6641">operation type</text><polygon fill="#181818" points="610.4658,349.4375,600.4658,353.4375,610.4658,357.4375,606.4658,353.4375" style="stroke:#181818;stroke-width:1.0;"/><line style="stroke:#181818;stroke-width:1.0;stroke-dasharray:2.0,2.0;" x1="604.4658" x2="855.1416" y1="353.4375" y2="353.4375"/><text fill="#000000" font-family="sans-serif" font-size="20" lengthAdjust="spacing" textLength="141.1914" x="616.4658" y="347.2188">operation type</text><polygon fill="#181818" points="55.626,386.9922,45.626,390.9922,55.626,394.9922,51.626,390.9922" style="stroke:#181818;stroke-width:1.0;"/><line style="stroke:#181818;stroke-width:1.0;stroke-dasharray:2.0,2.0;" x1="49.626" x2="588.4658" y1="390.9922" y2="390.9922"/><text fill="#000000" font-family="sans-serif" font-size="20" lengthAdjust="spacing" textLength="509.7754" x="61.626" y="384.7734">show operation type details and asks for new details</text><polygon fill="#181818" points="577.4658,424.5469,587.4658,428.5469,577.4658,432.5469,581.4658,428.5469" style="stroke:#181818;stroke-width:1.0;"/><line style="stroke:#181818;stroke-width:1.0;" x1="44.626" x2="583.4658" y1="428.5469" y2="428.5469"/><text fill="#000000" font-family="sans-serif" font-size="20" lengthAdjust="spacing" textLength="298.2813" x="51.626" y="422.3281">provides new operation details</text><polygon fill="#181818" points="839.1416,462.1016,849.1416,466.1016,839.1416,470.1016,843.1416,466.1016" style="stroke:#181818;stroke-width:1.0;"/><line style="stroke:#181818;stroke-width:1.0;" x1="599.4658" x2="845.1416" y1="466.1016" y2="466.1016"/><text fill="#000000" font-family="sans-serif" font-size="20" lengthAdjust="spacing" textLength="214.7754" x="606.4658" y="459.8828">update operation type</text><polygon fill="#181818" points="1100.8174,499.6563,1110.8174,503.6563,1100.8174,507.6563,1104.8174,503.6563" style="stroke:#181818;stroke-width:1.0;"/><line style="stroke:#181818;stroke-width:1.0;" x1="861.1416" x2="1106.8174" y1="503.6563" y2="503.6563"/><text fill="#000000" font-family="sans-serif" font-size="20" lengthAdjust="spacing" textLength="214.7754" x="868.1416" y="497.4375">update operation type</text><polygon fill="#181818" points="872.1416,537.2109,862.1416,541.2109,872.1416,545.2109,868.1416,541.2109" style="stroke:#181818;stroke-width:1.0;"/><line style="stroke:#181818;stroke-width:1.0;stroke-dasharray:2.0,2.0;" x1="866.1416" x2="1116.8174" y1="541.2109" y2="541.2109"/><text fill="#000000" font-family="sans-serif" font-size="20" lengthAdjust="spacing" textLength="227.3633" x="878.1416" y="534.9922">updated operation type</text><polygon fill="#181818" points="610.4658,574.7656,600.4658,578.7656,610.4658,582.7656,606.4658,578.7656" style="stroke:#181818;stroke-width:1.0;"/><line style="stroke:#181818;stroke-width:1.0;stroke-dasharray:2.0,2.0;" x1="604.4658" x2="855.1416" y1="578.7656" y2="578.7656"/><text fill="#000000" font-family="sans-serif" font-size="20" lengthAdjust="spacing" textLength="227.3633" x="616.4658" y="572.5469">updated operation type</text><polygon fill="#181818" points="50.626,612.3203,40.626,616.3203,50.626,620.3203,46.626,616.3203" style="stroke:#181818;stroke-width:1.0;"/><line style="stroke:#181818;stroke-width:1.0;stroke-dasharray:2.0,2.0;" x1="44.626" x2="593.4658" y1="616.3203" y2="616.3203"/><text fill="#000000" font-family="sans-serif" font-size="20" lengthAdjust="spacing" textLength="232.6465" x="56.626" y="610.1016">shows success message</text><!--SRC=[ZPD1RiCW44Ntd68k4Adgqej8LQKUe3a1XOaxiWs88KxSqnVYECOqRhon33F_ytbZSqF6II-xrge6DMWyobCRFgm91_f1U7qHKWNhuKrtP4Hi3QJ8IHFWFVPusxReGNAsMZGTqFUaC7NSNXVbJtIMAVeFgMDUYNGgzJBWxU3xCZj7N4kmssURLVHf85X0JG7mGXp8r60TUXd86WY3Gv55tqNvrQS2_hPdNjCmIAEJESCnuc1iKQNYIegnNdXCkSGYm7uYKq6DVoHV0v2Uhpz151FOA9-nRN7886VqTtcCWfRG-4WzHoZkNiWpzJtz-W3Az1g3fBQWR_0y5HxZTzxsfEFGKkViE6dM-9-SJZ6B2so6_qIUirj3FrheVnXkcS1pbmsJOE2JKiWCNNp8UlaXZB_bOcks-WK0]--></g></svg>