<svg xmlns="http://www.w3.org/2000/svg" xmlns:xlink="http://www.w3.org/1999/xlink" contentStyleType="text/css" height="1710px" preserveAspectRatio="none" style="width:953px;height:1710px;background:#FFFFFF;" version="1.1" viewBox="0 0 953 1710" width="953px" zoomAndPan="magnify"><title>Domain Model - View 2</title><defs/><g><text fill="#000000" font-family="sans-serif" font-size="14" font-weight="bold" lengthAdjust="spacing" textLength="170.5293" x="384.2768" y="23.5352">Domain Model - View 2</text><!--class User--><g id="elem_User"><rect codeLine="4" fill="#FAA57A" height="136.2188" id="User" rx="2.5" ry="2.5" style="stroke:#181818;stroke-width:0.5;" width="193.4063" x="658.24" y="44.4883"/><ellipse cx="728.7537" cy="61.4883" fill="#ADD1B2" rx="12" ry="12" style="stroke:#181818;stroke-width:1.0;"/><path d="M731.5603,68.5684 Q730.8767,68.9199 730.1248,69.0957 Q729.3728,69.2715 728.5427,69.2715 Q725.5935,69.2715 724.0408,67.3281 Q722.488,65.3848 722.488,61.7129 Q722.488,58.0313 724.0408,56.0879 Q725.5935,54.1445 728.5427,54.1445 Q729.3728,54.1445 730.1345,54.3203 Q730.8963,54.4961 731.5603,54.8477 L731.5603,58.0508 Q730.8181,57.3672 730.1199,57.0498 Q729.4216,56.7324 728.6795,56.7324 Q727.0974,56.7324 726.2918,57.9873 Q725.4861,59.2422 725.4861,61.7129 Q725.4861,64.1738 726.2918,65.4287 Q727.0974,66.6836 728.6795,66.6836 Q729.4216,66.6836 730.1199,66.3662 Q730.8181,66.0488 731.5603,65.3652 Z " fill="#000000"/><text fill="#000000" font-family="sans-serif" font-size="20" lengthAdjust="spacing" textLength="43.3789" x="750.7537" y="69.0469">User</text><line style="stroke:#181818;stroke-width:0.5;" x1="659.24" x2="850.6463" y1="78.4883" y2="78.4883"/><ellipse cx="669.24" cy="95.7656" fill="none" rx="3" ry="3" style="stroke:#038048;stroke-width:1.0;"/><text fill="#000000" font-family="sans-serif" font-size="20" lengthAdjust="spacing" textLength="166.4063" x="679.24" y="101.8242">Username: String</text><ellipse cx="669.24" cy="119.3203" fill="none" rx="3" ry="3" style="stroke:#038048;stroke-width:1.0;"/><text fill="#000000" font-family="sans-serif" font-size="20" lengthAdjust="spacing" textLength="111.6113" x="679.24" y="125.3789">Role: String</text><ellipse cx="669.24" cy="142.875" fill="none" rx="3" ry="3" style="stroke:#038048;stroke-width:1.0;"/><text fill="#000000" font-family="sans-serif" font-size="20" lengthAdjust="spacing" textLength="121.875" x="679.24" y="148.9336">Email: String</text><ellipse cx="669.24" cy="166.4297" fill="none" rx="3" ry="3" style="stroke:#038048;stroke-width:1.0;"/><text fill="#000000" font-family="sans-serif" font-size="20" lengthAdjust="spacing" textLength="154.3848" x="679.24" y="172.4883">Password:String</text></g><!--class Patient--><g id="elem_Patient"><rect codeLine="11" fill="#98FB98" height="230.4375" id="Patient" rx="2.5" ry="2.5" style="stroke:#181818;stroke-width:0.5;" width="328.084" x="426.9" y="265.7083"/><ellipse cx="553.2438" cy="282.7083" fill="#ADD1B2" rx="12" ry="12" style="stroke:#181818;stroke-width:1.0;"/><path d="M556.0504,289.7884 Q555.3668,290.1399 554.6148,290.3157 Q553.8629,290.4915 553.0328,290.4915 Q550.0836,290.4915 548.5309,288.5481 Q546.9781,286.6048 546.9781,282.9329 Q546.9781,279.2512 548.5309,277.3079 Q550.0836,275.3645 553.0328,275.3645 Q553.8629,275.3645 554.6246,275.5403 Q555.3863,275.7161 556.0504,276.0677 L556.0504,279.2708 Q555.3082,278.5872 554.61,278.2698 Q553.9117,277.9524 553.1695,277.9524 Q551.5875,277.9524 550.7818,279.2073 Q549.9762,280.4622 549.9762,282.9329 Q549.9762,285.3938 550.7818,286.6487 Q551.5875,287.9036 553.1695,287.9036 Q553.9117,287.9036 554.61,287.5862 Q555.3082,287.2688 556.0504,286.5852 Z " fill="#000000"/><text fill="#000000" font-family="sans-serif" font-size="20" lengthAdjust="spacing" textLength="66.3965" x="575.2438" y="290.2669">Patient</text><line style="stroke:#181818;stroke-width:0.5;" x1="427.9" x2="753.984" y1="299.7083" y2="299.7083"/><ellipse cx="437.9" cy="316.9856" fill="none" rx="3" ry="3" style="stroke:#038048;stroke-width:1.0;"/><text fill="#000000" font-family="sans-serif" font-size="20" lengthAdjust="spacing" textLength="174.082" x="447.9" y="323.0442">First Name: String</text><ellipse cx="437.9" cy="340.5403" fill="none" rx="3" ry="3" style="stroke:#038048;stroke-width:1.0;"/><text fill="#000000" font-family="sans-serif" font-size="20" lengthAdjust="spacing" textLength="171.1035" x="447.9" y="346.5989">Last Name: String</text><ellipse cx="437.9" cy="364.095" fill="none" rx="3" ry="3" style="stroke:#038048;stroke-width:1.0;"/><text fill="#000000" font-family="sans-serif" font-size="20" lengthAdjust="spacing" textLength="179.6094" x="447.9" y="370.1536">Date of Birth: Date</text><ellipse cx="437.9" cy="387.6497" fill="none" rx="3" ry="3" style="stroke:#038048;stroke-width:1.0;"/><text fill="#000000" font-family="sans-serif" font-size="20" lengthAdjust="spacing" textLength="301.084" x="447.9" y="393.7083">Medical Record Number: String</text><ellipse cx="437.9" cy="411.2044" fill="none" rx="3" ry="3" style="stroke:#038048;stroke-width:1.0;"/><text fill="#000000" font-family="sans-serif" font-size="20" lengthAdjust="spacing" textLength="206.8359" x="447.9" y="417.263">PhoneNumber: String</text><ellipse cx="437.9" cy="434.7591" fill="none" rx="3" ry="3" style="stroke:#038048;stroke-width:1.0;"/><text fill="#000000" font-family="sans-serif" font-size="20" lengthAdjust="spacing" textLength="121.875" x="447.9" y="440.8177">Email: String</text><ellipse cx="437.9" cy="458.3137" fill="none" rx="3" ry="3" style="stroke:#038048;stroke-width:1.0;"/><text fill="#000000" font-family="sans-serif" font-size="20" lengthAdjust="spacing" textLength="256.4258" x="447.9" y="464.3723">Emergency Contact: String</text><ellipse cx="437.9" cy="481.8684" fill="none" rx="3" ry="3" style="stroke:#038048;stroke-width:1.0;"/><text fill="#000000" font-family="sans-serif" font-size="20" lengthAdjust="spacing" textLength="248.8184" x="447.9" y="487.927">Appointment History: List</text></g><!--class Specialization--><g id="elem_Specialization"><rect codeLine="22" fill="#B0C4DE" height="34" id="Specialization" rx="2.5" ry="2.5" style="stroke:#181818;stroke-width:0.5;" width="167.6035" x="186.14" y="1669.3483"/><ellipse cx="202.14" cy="1686.3483" fill="#ADD1B2" rx="12" ry="12" style="stroke:#181818;stroke-width:1.0;"/><path d="M204.9466,1693.4284 Q204.263,1693.7799 203.5111,1693.9557 Q202.7591,1694.1315 201.9291,1694.1315 Q198.9798,1694.1315 197.4271,1692.1881 Q195.8744,1690.2448 195.8744,1686.5729 Q195.8744,1682.8913 197.4271,1680.9479 Q198.9798,1679.0045 201.9291,1679.0045 Q202.7591,1679.0045 203.5209,1679.1803 Q204.2826,1679.3561 204.9466,1679.7077 L204.9466,1682.9108 Q204.2045,1682.2272 203.5062,1681.9098 Q202.808,1681.5924 202.0658,1681.5924 Q200.4838,1681.5924 199.6781,1682.8473 Q198.8724,1684.1022 198.8724,1686.5729 Q198.8724,1689.0338 199.6781,1690.2887 Q200.4838,1691.5436 202.0658,1691.5436 Q202.808,1691.5436 203.5062,1691.2262 Q204.2045,1690.9088 204.9466,1690.2252 Z " fill="#000000"/><text fill="#000000" font-family="sans-serif" font-size="20" lengthAdjust="spacing" textLength="133.6035" x="217.14" y="1693.9069">Specialization</text></g><!--class Staff--><g id="elem_Staff"><rect codeLine="26" fill="#87CEFA" height="206.8828" id="Staff" rx="2.5" ry="2.5" style="stroke:#181818;stroke-width:0.5;" width="252.4395" x="578.73" y="1291.4683"/><ellipse cx="678.4478" cy="1308.4683" fill="#ADD1B2" rx="12" ry="12" style="stroke:#181818;stroke-width:1.0;"/><path d="M681.2544,1315.5484 Q680.5708,1315.8999 679.8189,1316.0757 Q679.0669,1316.2515 678.2368,1316.2515 Q675.2876,1316.2515 673.7349,1314.3081 Q672.1821,1312.3648 672.1821,1308.6929 Q672.1821,1305.0112 673.7349,1303.0679 Q675.2876,1301.1245 678.2368,1301.1245 Q679.0669,1301.1245 679.8286,1301.3003 Q680.5904,1301.4761 681.2544,1301.8277 L681.2544,1305.0308 Q680.5122,1304.3472 679.814,1304.0298 Q679.1157,1303.7124 678.3736,1303.7124 Q676.7915,1303.7124 675.9859,1304.9673 Q675.1802,1306.2222 675.1802,1308.6929 Q675.1802,1311.1538 675.9859,1312.4087 Q676.7915,1313.6636 678.3736,1313.6636 Q679.1157,1313.6636 679.814,1313.3462 Q680.5122,1313.0288 681.2544,1312.3452 Z " fill="#000000"/><text fill="#000000" font-family="sans-serif" font-size="20" lengthAdjust="spacing" textLength="44.0039" x="700.4478" y="1316.0269">Staff</text><line style="stroke:#181818;stroke-width:0.5;" x1="579.73" x2="830.1695" y1="1325.4683" y2="1325.4683"/><ellipse cx="589.73" cy="1342.7456" fill="none" rx="3" ry="3" style="stroke:#038048;stroke-width:1.0;"/><text fill="#000000" font-family="sans-serif" font-size="20" lengthAdjust="spacing" textLength="174.082" x="599.73" y="1348.8042">First Name: String</text><ellipse cx="589.73" cy="1366.3003" fill="none" rx="3" ry="3" style="stroke:#038048;stroke-width:1.0;"/><text fill="#000000" font-family="sans-serif" font-size="20" lengthAdjust="spacing" textLength="171.1035" x="599.73" y="1372.3589">Last Name: String</text><ellipse cx="589.73" cy="1389.855" fill="none" rx="3" ry="3" style="stroke:#038048;stroke-width:1.0;"/><text fill="#000000" font-family="sans-serif" font-size="20" lengthAdjust="spacing" textLength="225.4395" x="599.73" y="1395.9136">License Number: String</text><ellipse cx="589.73" cy="1413.4097" fill="none" rx="3" ry="3" style="stroke:#038048;stroke-width:1.0;"/><text fill="#000000" font-family="sans-serif" font-size="20" lengthAdjust="spacing" textLength="111.6113" x="599.73" y="1419.4683">Role: String</text><ellipse cx="589.73" cy="1436.9644" fill="none" rx="3" ry="3" style="stroke:#038048;stroke-width:1.0;"/><text fill="#000000" font-family="sans-serif" font-size="20" lengthAdjust="spacing" textLength="206.8359" x="599.73" y="1443.023">PhoneNumber: String</text><ellipse cx="589.73" cy="1460.5191" fill="none" rx="3" ry="3" style="stroke:#038048;stroke-width:1.0;"/><text fill="#000000" font-family="sans-serif" font-size="20" lengthAdjust="spacing" textLength="121.875" x="599.73" y="1466.5777">Email: String</text><ellipse cx="589.73" cy="1484.0737" fill="none" rx="3" ry="3" style="stroke:#038048;stroke-width:1.0;"/><text fill="#000000" font-family="sans-serif" font-size="20" lengthAdjust="spacing" textLength="205.2832" x="599.73" y="1490.1323">Availability Slots: List</text></g><!--class OperationRequest--><g id="elem_OperationRequest"><rect codeLine="36" fill="#DDA0DD" height="183.3281" id="OperationRequest" rx="2.5" ry="2.5" style="stroke:#181818;stroke-width:0.5;" width="273.4355" x="331.23" y="667.1483"/><ellipse cx="376.6479" cy="684.1483" fill="#ADD1B2" rx="12" ry="12" style="stroke:#181818;stroke-width:1.0;"/><path d="M379.4545,691.2284 Q378.7709,691.5799 378.019,691.7557 Q377.267,691.9315 376.4369,691.9315 Q373.4877,691.9315 371.935,689.9881 Q370.3822,688.0448 370.3822,684.3729 Q370.3822,680.6912 371.935,678.7479 Q373.4877,676.8045 376.4369,676.8045 Q377.267,676.8045 378.0287,676.9803 Q378.7904,677.1561 379.4545,677.5077 L379.4545,680.7108 Q378.7123,680.0272 378.0141,679.7098 Q377.3158,679.3924 376.5737,679.3924 Q374.9916,679.3924 374.186,680.6473 Q373.3803,681.9022 373.3803,684.3729 Q373.3803,686.8338 374.186,688.0887 Q374.9916,689.3436 376.5737,689.3436 Q377.3158,689.3436 378.0141,689.0262 Q378.7123,688.7088 379.4545,688.0252 Z " fill="#000000"/><text fill="#000000" font-family="sans-serif" font-size="20" lengthAdjust="spacing" textLength="174.0625" x="398.1852" y="691.7069">OperationRequest</text><line style="stroke:#181818;stroke-width:0.5;" x1="332.23" x2="603.6655" y1="701.1483" y2="701.1483"/><ellipse cx="342.23" cy="718.4256" fill="none" rx="3" ry="3" style="stroke:#038048;stroke-width:1.0;"/><text fill="#000000" font-family="sans-serif" font-size="20" lengthAdjust="spacing" textLength="90.498" x="352.23" y="724.4842">ID: String</text><ellipse cx="342.23" cy="741.9803" fill="none" rx="3" ry="3" style="stroke:#038048;stroke-width:1.0;"/><text fill="#000000" font-family="sans-serif" font-size="20" lengthAdjust="spacing" textLength="163.2227" x="352.23" y="748.0389">Patient ID: String</text><ellipse cx="342.23" cy="765.535" fill="none" rx="3" ry="3" style="stroke:#038048;stroke-width:1.0;"/><text fill="#000000" font-family="sans-serif" font-size="20" lengthAdjust="spacing" textLength="162.2852" x="352.23" y="771.5936">Doctor ID: String</text><ellipse cx="342.23" cy="789.0897" fill="none" rx="3" ry="3" style="stroke:#038048;stroke-width:1.0;"/><text fill="#000000" font-family="sans-serif" font-size="20" lengthAdjust="spacing" textLength="246.4355" x="352.23" y="795.1483">Operation Type ID: String</text><ellipse cx="342.23" cy="812.6444" fill="none" rx="3" ry="3" style="stroke:#038048;stroke-width:1.0;"/><text fill="#000000" font-family="sans-serif" font-size="20" lengthAdjust="spacing" textLength="142.1777" x="352.23" y="818.703">Deadline: Date</text><ellipse cx="342.23" cy="836.1991" fill="none" rx="3" ry="3" style="stroke:#038048;stroke-width:1.0;"/><text fill="#000000" font-family="sans-serif" font-size="20" lengthAdjust="spacing" textLength="138.9551" x="352.23" y="842.2577">Priority: String</text></g><!--class OperationType--><g id="elem_OperationType"><rect codeLine="45" fill="#AFEEEE" height="136.2188" id="OperationType" rx="2.5" ry="2.5" style="stroke:#181818;stroke-width:0.5;" width="379.8906" x="7" y="1125.2483"/><ellipse cx="120.8047" cy="1142.2483" fill="#ADD1B2" rx="12" ry="12" style="stroke:#181818;stroke-width:1.0;"/><path d="M123.6113,1149.3284 Q122.9277,1149.6799 122.1758,1149.8557 Q121.4238,1150.0315 120.5938,1150.0315 Q117.6445,1150.0315 116.0918,1148.0881 Q114.5391,1146.1448 114.5391,1142.4729 Q114.5391,1138.7913 116.0918,1136.8479 Q117.6445,1134.9045 120.5938,1134.9045 Q121.4238,1134.9045 122.1855,1135.0803 Q122.9473,1135.2561 123.6113,1135.6077 L123.6113,1138.8108 Q122.8691,1138.1272 122.1709,1137.8098 Q121.4727,1137.4924 120.7305,1137.4924 Q119.1484,1137.4924 118.3428,1138.7473 Q117.5371,1140.0022 117.5371,1142.4729 Q117.5371,1144.9338 118.3428,1146.1887 Q119.1484,1147.4436 120.7305,1147.4436 Q121.4727,1147.4436 122.1709,1147.1262 Q122.8691,1146.8088 123.6113,1146.1252 Z " fill="#000000"/><text fill="#000000" font-family="sans-serif" font-size="20" lengthAdjust="spacing" textLength="143.2813" x="142.8047" y="1149.8069">OperationType</text><line style="stroke:#181818;stroke-width:0.5;" x1="8" x2="385.8906" y1="1159.2483" y2="1159.2483"/><ellipse cx="18" cy="1176.5256" fill="none" rx="3" ry="3" style="stroke:#038048;stroke-width:1.0;"/><text fill="#000000" font-family="sans-serif" font-size="20" lengthAdjust="spacing" textLength="90.498" x="28" y="1182.5842">ID: String</text><ellipse cx="18" cy="1200.0803" fill="none" rx="3" ry="3" style="stroke:#038048;stroke-width:1.0;"/><text fill="#000000" font-family="sans-serif" font-size="20" lengthAdjust="spacing" textLength="125.3906" x="28" y="1206.1389">Name: String</text><ellipse cx="18" cy="1223.635" fill="none" rx="3" ry="3" style="stroke:#038048;stroke-width:1.0;"/><text fill="#000000" font-family="sans-serif" font-size="20" lengthAdjust="spacing" textLength="352.8906" x="28" y="1229.6936">Required Staff by Specialization: List</text><ellipse cx="18" cy="1247.1897" fill="none" rx="3" ry="3" style="stroke:#038048;stroke-width:1.0;"/><text fill="#000000" font-family="sans-serif" font-size="20" lengthAdjust="spacing" textLength="283.3691" x="28" y="1253.2483">Estimated Duration: Duration</text></g><!--class Appointment--><g id="elem_Appointment"><rect codeLine="53" fill="#F0E68C" height="159.7734" id="Appointment" rx="2.5" ry="2.5" style="stroke:#181818;stroke-width:0.5;" width="274.1387" x="289.88" y="935.4783"/><ellipse cx="359.129" cy="952.4783" fill="#ADD1B2" rx="12" ry="12" style="stroke:#181818;stroke-width:1.0;"/><path d="M361.9357,959.5584 Q361.2521,959.9099 360.5001,960.0857 Q359.7482,960.2615 358.9181,960.2615 Q355.9689,960.2615 354.4161,958.3181 Q352.8634,956.3748 352.8634,952.7029 Q352.8634,949.0212 354.4161,947.0779 Q355.9689,945.1345 358.9181,945.1345 Q359.7482,945.1345 360.5099,945.3103 Q361.2716,945.4861 361.9357,945.8377 L361.9357,949.0408 Q361.1935,948.3572 360.4952,948.0398 Q359.797,947.7224 359.0548,947.7224 Q357.4728,947.7224 356.6671,948.9773 Q355.8614,950.2322 355.8614,952.7029 Q355.8614,955.1638 356.6671,956.4187 Q357.4728,957.6736 359.0548,957.6736 Q359.797,957.6736 360.4952,957.3562 Q361.1935,957.0388 361.9357,956.3552 Z " fill="#000000"/><text fill="#000000" font-family="sans-serif" font-size="20" lengthAdjust="spacing" textLength="126.6406" x="381.129" y="960.0369">Appointment</text><line style="stroke:#181818;stroke-width:0.5;" x1="290.88" x2="563.0187" y1="969.4783" y2="969.4783"/><ellipse cx="300.88" cy="986.7556" fill="none" rx="3" ry="3" style="stroke:#038048;stroke-width:1.0;"/><text fill="#000000" font-family="sans-serif" font-size="20" lengthAdjust="spacing" textLength="90.498" x="310.88" y="992.8142">ID: String</text><ellipse cx="300.88" cy="1010.3103" fill="none" rx="3" ry="3" style="stroke:#038048;stroke-width:1.0;"/><text fill="#000000" font-family="sans-serif" font-size="20" lengthAdjust="spacing" textLength="174.4336" x="310.88" y="1016.3689">Request ID: String</text><ellipse cx="300.88" cy="1033.865" fill="none" rx="3" ry="3" style="stroke:#038048;stroke-width:1.0;"/><text fill="#000000" font-family="sans-serif" font-size="20" lengthAdjust="spacing" textLength="152.7148" x="310.88" y="1039.9236">Room ID: String</text><ellipse cx="300.88" cy="1057.4197" fill="none" rx="3" ry="3" style="stroke:#038048;stroke-width:1.0;"/><text fill="#000000" font-family="sans-serif" font-size="20" lengthAdjust="spacing" textLength="247.1387" x="310.88" y="1063.4783">Date and Time: DateTime</text><ellipse cx="300.88" cy="1080.9744" fill="none" rx="3" ry="3" style="stroke:#038048;stroke-width:1.0;"/><text fill="#000000" font-family="sans-serif" font-size="20" lengthAdjust="spacing" textLength="129.1406" x="310.88" y="1087.033">Status: String</text></g><!--class SurgeryRoom--><g id="elem_SurgeryRoom"><rect codeLine="61" fill="#D8BFD8" height="159.7734" id="SurgeryRoom" rx="2.5" ry="2.5" style="stroke:#181818;stroke-width:0.5;" width="272.6055" x="270.64" y="1315.0183"/><ellipse cx="337.6918" cy="1332.0183" fill="#ADD1B2" rx="12" ry="12" style="stroke:#181818;stroke-width:1.0;"/><path d="M340.4984,1339.0984 Q339.8148,1339.4499 339.0629,1339.6257 Q338.3109,1339.8015 337.4808,1339.8015 Q334.5316,1339.8015 332.9789,1337.8581 Q331.4261,1335.9148 331.4261,1332.2429 Q331.4261,1328.5613 332.9789,1326.6179 Q334.5316,1324.6745 337.4808,1324.6745 Q338.3109,1324.6745 339.0726,1324.8503 Q339.8343,1325.0261 340.4984,1325.3777 L340.4984,1328.5808 Q339.7562,1327.8972 339.058,1327.5798 Q338.3597,1327.2624 337.6175,1327.2624 Q336.0355,1327.2624 335.2298,1328.5173 Q334.4242,1329.7722 334.4242,1332.2429 Q334.4242,1334.7038 335.2298,1335.9587 Q336.0355,1337.2136 337.6175,1337.2136 Q338.3597,1337.2136 339.058,1336.8962 Q339.7562,1336.5788 340.4984,1335.8952 Z " fill="#000000"/><text fill="#000000" font-family="sans-serif" font-size="20" lengthAdjust="spacing" textLength="129.502" x="359.6918" y="1339.5769">SurgeryRoom</text><line style="stroke:#181818;stroke-width:0.5;" x1="271.64" x2="542.2455" y1="1349.0183" y2="1349.0183"/><ellipse cx="281.64" cy="1366.2956" fill="none" rx="3" ry="3" style="stroke:#038048;stroke-width:1.0;"/><text fill="#000000" font-family="sans-serif" font-size="20" lengthAdjust="spacing" textLength="209.7461" x="291.64" y="1372.3542">Room Number: String</text><ellipse cx="281.64" cy="1389.8503" fill="none" rx="3" ry="3" style="stroke:#038048;stroke-width:1.0;"/><text fill="#000000" font-family="sans-serif" font-size="20" lengthAdjust="spacing" textLength="116.582" x="291.64" y="1395.9089">Type: String</text><ellipse cx="281.64" cy="1413.405" fill="none" rx="3" ry="3" style="stroke:#038048;stroke-width:1.0;"/><text fill="#000000" font-family="sans-serif" font-size="20" lengthAdjust="spacing" textLength="163.7207" x="291.64" y="1419.4636">Capacity: Integer</text><ellipse cx="281.64" cy="1436.9597" fill="none" rx="3" ry="3" style="stroke:#038048;stroke-width:1.0;"/><text fill="#000000" font-family="sans-serif" font-size="20" lengthAdjust="spacing" textLength="245.6055" x="291.64" y="1443.0183">Assigned Equipment: List</text><ellipse cx="281.64" cy="1460.5144" fill="none" rx="3" ry="3" style="stroke:#038048;stroke-width:1.0;"/><text fill="#000000" font-family="sans-serif" font-size="20" lengthAdjust="spacing" textLength="209.1211" x="291.64" y="1466.573">Current Status: String</text></g><!--link User to Patient--><g id="link_User_Patient"><path codeLine="69" d="M713.35,181.1483 C697.6,206.7283 682.3362,231.5093 664.6562,260.2193 " fill="none" id="User-to-Patient" style="stroke:#181818;stroke-width:1.0;"/><polygon fill="#181818" points="661.51,265.3283,669.6352,259.7623,664.1318,261.0708,662.8233,255.5674,661.51,265.3283" style="stroke:#181818;stroke-width:1.0;"/><text fill="#000000" font-family="sans-serif" font-size="20" lengthAdjust="spacing" textLength="81.1328" x="693.46" y="231.0442">can be a</text><text fill="#000000" font-family="sans-serif" font-size="20" lengthAdjust="spacing" textLength="12.6465" x="696.8446" y="208.1405">1</text><text fill="#000000" font-family="sans-serif" font-size="20" lengthAdjust="spacing" textLength="12.6465" x="653.6671" y="253.5397">1</text></g><!--link User to Staff--><g id="link_User_Staff"><path codeLine="70" d="M799.03,180.9383 C828.89,233.0483 862.95,308.1983 862.95,379.9283 C862.95,379.9283 862.95,379.9283 862.95,1016.3583 C862.95,1115.1283 819.3717,1212.7589 776.8017,1286.1089 " fill="none" id="User-to-Staff" style="stroke:#181818;stroke-width:1.0;"/><polygon fill="#181818" points="773.79,1291.2983,781.7672,1285.5221,776.2998,1286.9738,774.848,1281.5064,773.79,1291.2983" style="stroke:#181818;stroke-width:1.0;"/><text fill="#000000" font-family="sans-serif" font-size="20" lengthAdjust="spacing" textLength="81.1328" x="863.95" y="632.4842">can be a</text><text fill="#000000" font-family="sans-serif" font-size="20" lengthAdjust="spacing" textLength="12.6465" x="790.811" y="208.1608">1</text><text fill="#000000" font-family="sans-serif" font-size="20" lengthAdjust="spacing" textLength="12.6465" x="766.4286" y="1279.2011">1</text></g><!--link Staff to OperationRequest--><g id="link_Staff_OperationRequest"><path codeLine="72" d="M686.97,1291.0883 C668.14,1196.0683 633.98,1052.3483 581.95,935.4783 C569.08,906.5783 555.0662,882.0649 537.8462,855.6449 " fill="none" id="Staff-to-OperationRequest" style="stroke:#181818;stroke-width:1.0;"/><polygon fill="#181818" points="534.57,850.6183,536.1333,860.3423,537.3002,854.8071,542.8354,855.974,534.57,850.6183" style="stroke:#181818;stroke-width:1.0;"/><text fill="#000000" font-family="sans-serif" font-size="20" lengthAdjust="spacing" textLength="174.9316" x="639.4" y="1023.1942">makes an (doctor)</text><text fill="#000000" font-family="sans-serif" font-size="20" lengthAdjust="spacing" textLength="12.6465" x="673.3067" y="1279.3352">1</text><text fill="#000000" font-family="sans-serif" font-size="20" lengthAdjust="spacing" textLength="41.2695" x="497.1116" y="877.8848">1...*</text></g><!--link Staff to Specialization--><g id="link_Staff_Specialization"><path codeLine="73" d="M578.36,1486.4583 C572.49,1490.4983 566.66,1494.4783 560.95,1498.3483 C464.7,1563.4583 352.7824,1633.8053 301.3924,1665.8253 " fill="none" id="Staff-to-Specialization" style="stroke:#181818;stroke-width:1.0;"/><polygon fill="#181818" points="296.3,1668.9983,306.0539,1667.6338,300.5437,1666.3542,301.8233,1660.8439,296.3,1668.9983" style="stroke:#181818;stroke-width:1.0;"/><text fill="#000000" font-family="sans-serif" font-size="20" lengthAdjust="spacing" textLength="51.0254" x="432.06" y="1603.6842">has a</text><text fill="#000000" font-family="sans-serif" font-size="20" lengthAdjust="spacing" textLength="12.6465" x="557.8867" y="1487.9401">1</text><text fill="#000000" font-family="sans-serif" font-size="20" lengthAdjust="spacing" textLength="41.2695" x="256.9855" y="1657.2982">1...*</text></g><!--link Patient to OperationRequest--><g id="link_Patient_OperationRequest"><path codeLine="74" d="M553.46,496.4883 C535.58,551.1283 516.3556,609.8657 499.5956,661.0957 " fill="none" id="Patient-to-OperationRequest" style="stroke:#181818;stroke-width:1.0;"/><polygon fill="#181818" points="497.73,666.7983,504.3301,659.4881,499.2847,662.0461,496.7267,657.0007,497.73,666.7983" style="stroke:#181818;stroke-width:1.0;"/><text fill="#000000" font-family="sans-serif" font-size="20" lengthAdjust="spacing" textLength="63.4375" x="534.54" y="577.4842">has an</text><text fill="#000000" font-family="sans-serif" font-size="20" lengthAdjust="spacing" textLength="12.6465" x="538.83" y="523.5839">1</text><text fill="#000000" font-family="sans-serif" font-size="20" lengthAdjust="spacing" textLength="41.2695" x="457.4804" y="654.9075">1...*</text></g><!--link OperationRequest to OperationType--><g id="link_OperationRequest_OperationType"><path codeLine="76" d="M345.03,850.8683 C317.87,875.7883 291.43,904.5383 271.95,935.4783 C235.3,993.6583 217.0234,1064.5133 207.2234,1118.9333 " fill="none" id="OperationRequest-to-OperationType" style="stroke:#181818;stroke-width:1.0;"/><polygon fill="#181818" points="206.16,1124.8383,211.6917,1116.6897,207.0462,1119.9174,203.8184,1115.2718,206.16,1124.8383" style="stroke:#181818;stroke-width:1.0;"/><text fill="#000000" font-family="sans-serif" font-size="20" lengthAdjust="spacing" textLength="45.1953" x="313.74" y="900.8142">for a</text><text fill="#000000" font-family="sans-serif" font-size="20" lengthAdjust="spacing" textLength="41.2695" x="293.5077" y="877.8295">1...*</text><text fill="#000000" font-family="sans-serif" font-size="20" lengthAdjust="spacing" textLength="12.6465" x="194.5248" y="1112.9508">1</text></g><!--link OperationType to Specialization--><g id="link_OperationType_Specialization"><path codeLine="77" d="M206.98,1261.8583 C224.14,1377.2483 257.2772,1600.1636 266.6372,1663.0836 " fill="none" id="OperationType-to-Specialization" style="stroke:#181818;stroke-width:1.0;"/><polygon fill="#181818" points="267.52,1669.0183,270.1522,1659.5277,266.7843,1664.0727,262.2393,1660.7048,267.52,1669.0183" style="stroke:#181818;stroke-width:1.0;"/><text fill="#000000" font-family="sans-serif" font-size="20" lengthAdjust="spacing" textLength="100.7129" x="250.83" y="1548.6842">requests a</text><text fill="#000000" font-family="sans-serif" font-size="20" lengthAdjust="spacing" textLength="41.2695" x="164.9954" y="1288.8457">0...*</text><text fill="#000000" font-family="sans-serif" font-size="20" lengthAdjust="spacing" textLength="34.9414" x="227.9531" y="1656.9669">1..*</text></g><!--link OperationRequest to Appointment--><g id="link_OperationRequest_Appointment"><path codeLine="78" d="M453.32,850.6283 C448.88,878.1883 444.9944,902.3047 440.6844,929.0547 " fill="none" id="OperationRequest-to-Appointment" style="stroke:#181818;stroke-width:1.0;"/><polygon fill="#181818" points="439.73,934.9783,445.1107,926.7292,440.5253,930.0419,437.2126,925.4566,439.73,934.9783" style="stroke:#181818;stroke-width:1.0;"/><text fill="#000000" font-family="sans-serif" font-size="20" lengthAdjust="spacing" textLength="68.7988" x="448.45" y="900.8142">sets an</text><text fill="#000000" font-family="sans-serif" font-size="20" lengthAdjust="spacing" textLength="12.6465" x="439.7654" y="877.8956">1</text><text fill="#000000" font-family="sans-serif" font-size="20" lengthAdjust="spacing" textLength="12.6465" x="428.3627" y="923.1553">1</text></g><!--link Appointment to SurgeryRoom--><g id="link_Appointment_SurgeryRoom"><path codeLine="79" d="M422.75,1095.5083 C419.34,1159.8383 414.8774,1244.1667 411.4674,1308.5467 " fill="none" id="Appointment-to-SurgeryRoom" style="stroke:#181818;stroke-width:1.0;"/><polygon fill="#181818" points="411.15,1314.5383,415.6204,1305.7624,411.4145,1309.5453,407.6316,1305.3393,411.15,1314.5383" style="stroke:#181818;stroke-width:1.0;"/><text fill="#000000" font-family="sans-serif" font-size="20" lengthAdjust="spacing" textLength="51.0254" x="422.04" y="1201.1942">has a</text><text fill="#000000" font-family="sans-serif" font-size="20" lengthAdjust="spacing" textLength="41.2695" x="383.8201" y="1122.3949">1...*</text><text fill="#000000" font-family="sans-serif" font-size="20" lengthAdjust="spacing" textLength="12.6465" x="399.0191" y="1302.717">1</text></g><!--link Appointment to Staff--><g id="link_Appointment_Staff"><path codeLine="81" d="M468.98,1095.6083 C473.62,1105.4683 478.06,1115.5083 481.95,1125.2483 C505.4,1183.9583 486.36,1209.8983 522.95,1261.4683 C525.5,1265.0683 544.1431,1279.1554 573.4531,1300.4154 " fill="none" id="Appointment-to-Staff" style="stroke:#181818;stroke-width:1.0;"/><polygon fill="#181818" points="578.31,1303.9383,573.3733,1295.416,574.2626,1301.0025,568.6761,1301.8918,578.31,1303.9383" style="stroke:#181818;stroke-width:1.0;"/><text fill="#000000" font-family="sans-serif" font-size="20" lengthAdjust="spacing" textLength="83.3398" x="523.95" y="1201.1942">requests</text><text fill="#000000" font-family="sans-serif" font-size="20" lengthAdjust="spacing" textLength="41.2695" x="429.7742" y="1122.5647">0...*</text><text fill="#000000" font-family="sans-serif" font-size="20" lengthAdjust="spacing" textLength="41.2695" x="529.2707" y="1294.6855">1...*</text></g><!--SRC=[bLJlRvim4FtENt4A7_QZIvLDsvgYQH89GQlKTbNJxRi3byOgsCmshT9g__lEJWXWecdZ2_PnTtxltJFwWOkAALOMCdl0779SixemgHHcoPyHFam2mqs1C4faoRY0AvbZ0MFuoV49Feo23SyHiApC5aeiLwXq46G5qnf-Q5GGfd7ywIn-2G1ER42m4YDO6iN5lOtTogAtNz0XHJTmGwsUfCgZVUXtq_w66Ox2G7W-JMVdKt17f5nf0zVU8PViI31X1a6kOSQLsKHWjpPyXJdFM06tcD6fS5rRJZr06obm61u0NvIexb5aMvYJc2mptOznLKakJ6a9VEFQIBMDu98MBRzbXHbd1Nycdb90E9lCFoOBejb9CMozXd1wDb-ayNyBSCap51gFKFI7yg-KuqSAi1KlEBbXMKYZVLBVArIEpot-gf50XKaIJvB4ORz8-eFVpRSVJMH6Odd1GrUusrReLo3B2owm7V6Dub8Hn4FM49xh4yRfWXuu0ixNqjBXYkxFRYIhhJU-lGu0hmIJO51i9338K1byPf3JXbgjQaEBZ9Vi7JpItIcns4ZbbDQ6eeRw9xNQDsnMBVgkgS9qilWydH_3taZlHQKiVUNi3M4YXpjUxkMpA_k9Q9fQ3mLSrkHvjNNDmcGwIvFfow7xq45Mvkv-pYhYRoTp8GnI9-SghVcz8EuBqhYox0vgdinhfIpT8Hxtzncz7y5u_DMz6pz5a341As86moGtlcv6i1jectDwUlfsDF1n12LxG4rgmUlSMVHDhx8jzNsnOLGLDE3yx2C7kG8H17slsi8luxeQ_wLoJHU7-NMJNNPp9Ysz7qy4QjT0TuiR4tN5w_Wl0et6uUoQie5sKBjrovuN2TuhyD0vU4xM5bNm1m00]--></g></svg>