<svg xmlns="http://www.w3.org/2000/svg" xmlns:xlink="http://www.w3.org/1999/xlink" contentStyleType="text/css" height="861px" preserveAspectRatio="none" style="width:745px;height:861px;background:#FFFFFF;" version="1.1" viewBox="0 0 745 861" width="745px" zoomAndPan="magnify"><title>Domain Model - View 1</title><defs/><g><text fill="#000000" font-family="sans-serif" font-size="14" font-weight="bold" lengthAdjust="spacing" textLength="170.5293" x="280.6218" y="23.5352">Domain Model - View 1</text><!--class User--><g id="elem_User"><rect codeLine="4" fill="#FAA57A" height="34" id="User" rx="2.5" ry="2.5" style="stroke:#181818;stroke-width:0.5;" width="77.3789" x="560.95" y="44.4883"/><ellipse cx="576.95" cy="61.4883" fill="#ADD1B2" rx="12" ry="12" style="stroke:#181818;stroke-width:1.0;"/><path d="M579.7566,68.5684 Q579.073,68.9199 578.3211,69.0957 Q577.5691,69.2715 576.7391,69.2715 Q573.7898,69.2715 572.2371,67.3281 Q570.6844,65.3848 570.6844,61.7129 Q570.6844,58.0313 572.2371,56.0879 Q573.7898,54.1445 576.7391,54.1445 Q577.5691,54.1445 578.3309,54.3203 Q579.0926,54.4961 579.7566,54.8477 L579.7566,58.0508 Q579.0145,57.3672 578.3162,57.0498 Q577.618,56.7324 576.8758,56.7324 Q575.2938,56.7324 574.4881,57.9873 Q573.6824,59.2422 573.6824,61.7129 Q573.6824,64.1738 574.4881,65.4287 Q575.2938,66.6836 576.8758,66.6836 Q577.618,66.6836 578.3162,66.3662 Q579.0145,66.0488 579.7566,65.3652 Z " fill="#000000"/><text fill="#000000" font-family="sans-serif" font-size="20" lengthAdjust="spacing" textLength="43.3789" x="591.95" y="69.0469">User</text></g><!--class Patient--><g id="elem_Patient"><rect codeLine="5" fill="#98FB98" height="34" id="Patient" rx="2.5" ry="2.5" style="stroke:#181818;stroke-width:0.5;" width="100.3965" x="490.44" y="163.4883"/><ellipse cx="506.44" cy="180.4883" fill="#ADD1B2" rx="12" ry="12" style="stroke:#181818;stroke-width:1.0;"/><path d="M509.2466,187.5684 Q508.563,187.9199 507.8111,188.0957 Q507.0591,188.2715 506.2291,188.2715 Q503.2798,188.2715 501.7271,186.3281 Q500.1744,184.3848 500.1744,180.7129 Q500.1744,177.0313 501.7271,175.0879 Q503.2798,173.1445 506.2291,173.1445 Q507.0591,173.1445 507.8209,173.3203 Q508.5826,173.4961 509.2466,173.8477 L509.2466,177.0508 Q508.5045,176.3672 507.8062,176.0498 Q507.108,175.7324 506.3658,175.7324 Q504.7838,175.7324 503.9781,176.9873 Q503.1724,178.2422 503.1724,180.7129 Q503.1724,183.1738 503.9781,184.4287 Q504.7838,185.6836 506.3658,185.6836 Q507.108,185.6836 507.8062,185.3662 Q508.5045,185.0488 509.2466,184.3652 Z " fill="#000000"/><text fill="#000000" font-family="sans-serif" font-size="20" lengthAdjust="spacing" textLength="66.3965" x="521.44" y="188.0469">Patient</text></g><!--class Staff--><g id="elem_Staff"><rect codeLine="6" fill="#87CEFA" height="34" id="Staff" rx="2.5" ry="2.5" style="stroke:#181818;stroke-width:0.5;" width="78.0039" x="365.64" y="615.4883"/><ellipse cx="381.64" cy="632.4883" fill="#ADD1B2" rx="12" ry="12" style="stroke:#181818;stroke-width:1.0;"/><path d="M384.4466,639.5684 Q383.763,639.9199 383.0111,640.0957 Q382.2591,640.2715 381.4291,640.2715 Q378.4798,640.2715 376.9271,638.3281 Q375.3744,636.3848 375.3744,632.7129 Q375.3744,629.0313 376.9271,627.0879 Q378.4798,625.1445 381.4291,625.1445 Q382.2591,625.1445 383.0209,625.3203 Q383.7826,625.4961 384.4466,625.8477 L384.4466,629.0508 Q383.7045,628.3672 383.0062,628.0498 Q382.308,627.7324 381.5658,627.7324 Q379.9838,627.7324 379.1781,628.9873 Q378.3724,630.2422 378.3724,632.7129 Q378.3724,635.1738 379.1781,636.4287 Q379.9838,637.6836 381.5658,637.6836 Q382.308,637.6836 383.0062,637.3662 Q383.7045,637.0488 384.4466,636.3652 Z " fill="#000000"/><text fill="#000000" font-family="sans-serif" font-size="20" lengthAdjust="spacing" textLength="44.0039" x="396.64" y="640.0469">Staff</text></g><!--class OperationRequest--><g id="elem_OperationRequest"><rect codeLine="7" fill="#DDA0DD" height="34" id="OperationRequest" rx="2.5" ry="2.5" style="stroke:#181818;stroke-width:0.5;" width="208.0625" x="247.61" y="368.4883"/><ellipse cx="263.61" cy="385.4883" fill="#ADD1B2" rx="12" ry="12" style="stroke:#181818;stroke-width:1.0;"/><path d="M266.4166,392.5684 Q265.733,392.9199 264.9811,393.0957 Q264.2291,393.2715 263.3991,393.2715 Q260.4498,393.2715 258.8971,391.3281 Q257.3444,389.3848 257.3444,385.7129 Q257.3444,382.0313 258.8971,380.0879 Q260.4498,378.1445 263.3991,378.1445 Q264.2291,378.1445 264.9909,378.3203 Q265.7526,378.4961 266.4166,378.8477 L266.4166,382.0508 Q265.6745,381.3672 264.9762,381.0498 Q264.278,380.7324 263.5358,380.7324 Q261.9538,380.7324 261.1481,381.9873 Q260.3424,383.2422 260.3424,385.7129 Q260.3424,388.1738 261.1481,389.4287 Q261.9538,390.6836 263.5358,390.6836 Q264.278,390.6836 264.9762,390.3662 Q265.6745,390.0488 266.4166,389.3652 Z " fill="#000000"/><text fill="#000000" font-family="sans-serif" font-size="20" lengthAdjust="spacing" textLength="174.0625" x="278.61" y="393.0469">OperationRequest</text></g><!--class OperationType--><g id="elem_OperationType"><rect codeLine="8" fill="#AFEEEE" height="34" id="OperationType" rx="2.5" ry="2.5" style="stroke:#181818;stroke-width:0.5;" width="177.2813" x="7" y="551.4883"/><ellipse cx="23" cy="568.4883" fill="#ADD1B2" rx="12" ry="12" style="stroke:#181818;stroke-width:1.0;"/><path d="M25.8066,575.5684 Q25.123,575.9199 24.3711,576.0957 Q23.6191,576.2715 22.7891,576.2715 Q19.8398,576.2715 18.2871,574.3281 Q16.7344,572.3848 16.7344,568.7129 Q16.7344,565.0313 18.2871,563.0879 Q19.8398,561.1445 22.7891,561.1445 Q23.6191,561.1445 24.3809,561.3203 Q25.1426,561.4961 25.8066,561.8477 L25.8066,565.0508 Q25.0645,564.3672 24.3662,564.0498 Q23.668,563.7324 22.9258,563.7324 Q21.3438,563.7324 20.5381,564.9873 Q19.7324,566.2422 19.7324,568.7129 Q19.7324,571.1738 20.5381,572.4287 Q21.3438,573.6836 22.9258,573.6836 Q23.668,573.6836 24.3662,573.3662 Q25.0645,573.0488 25.8066,572.3652 Z " fill="#000000"/><text fill="#000000" font-family="sans-serif" font-size="20" lengthAdjust="spacing" textLength="143.2813" x="38" y="576.0469">OperationType</text></g><!--class Appointment--><g id="elem_Appointment"><rect codeLine="9" fill="#F0E68C" height="34" id="Appointment" rx="2.5" ry="2.5" style="stroke:#181818;stroke-width:0.5;" width="160.6406" x="196.32" y="487.4883"/><ellipse cx="212.32" cy="504.4883" fill="#ADD1B2" rx="12" ry="12" style="stroke:#181818;stroke-width:1.0;"/><path d="M215.1266,511.5684 Q214.443,511.9199 213.6911,512.0957 Q212.9391,512.2715 212.1091,512.2715 Q209.1598,512.2715 207.6071,510.3281 Q206.0544,508.3848 206.0544,504.7129 Q206.0544,501.0313 207.6071,499.0879 Q209.1598,497.1445 212.1091,497.1445 Q212.9391,497.1445 213.7009,497.3203 Q214.4626,497.4961 215.1266,497.8477 L215.1266,501.0508 Q214.3845,500.3672 213.6862,500.0498 Q212.988,499.7324 212.2458,499.7324 Q210.6638,499.7324 209.8581,500.9873 Q209.0524,502.2422 209.0524,504.7129 Q209.0524,507.1738 209.8581,508.4287 Q210.6638,509.6836 212.2458,509.6836 Q212.988,509.6836 213.6862,509.3662 Q214.3845,509.0488 215.1266,508.3652 Z " fill="#000000"/><text fill="#000000" font-family="sans-serif" font-size="20" lengthAdjust="spacing" textLength="126.6406" x="227.32" y="512.0469">Appointment</text></g><!--class SurgeryRoom--><g id="elem_SurgeryRoom"><rect codeLine="10" fill="#D8BFD8" height="34" id="SurgeryRoom" rx="2.5" ry="2.5" style="stroke:#181818;stroke-width:0.5;" width="163.502" x="145.89" y="615.4883"/><ellipse cx="161.89" cy="632.4883" fill="#ADD1B2" rx="12" ry="12" style="stroke:#181818;stroke-width:1.0;"/><path d="M164.6966,639.5684 Q164.013,639.9199 163.2611,640.0957 Q162.5091,640.2715 161.6791,640.2715 Q158.7298,640.2715 157.1771,638.3281 Q155.6244,636.3848 155.6244,632.7129 Q155.6244,629.0313 157.1771,627.0879 Q158.7298,625.1445 161.6791,625.1445 Q162.5091,625.1445 163.2709,625.3203 Q164.0326,625.4961 164.6966,625.8477 L164.6966,629.0508 Q163.9545,628.3672 163.2562,628.0498 Q162.558,627.7324 161.8158,627.7324 Q160.2338,627.7324 159.4281,628.9873 Q158.6224,630.2422 158.6224,632.7129 Q158.6224,635.1738 159.4281,636.4287 Q160.2338,637.6836 161.8158,637.6836 Q162.558,637.6836 163.2562,637.3662 Q163.9545,637.0488 164.6966,636.3652 Z " fill="#000000"/><text fill="#000000" font-family="sans-serif" font-size="20" lengthAdjust="spacing" textLength="129.502" x="176.89" y="640.0469">SurgeryRoom</text></g><!--class Specialization--><g id="elem_Specialization"><rect codeLine="11" fill="#B0C4DE" height="34" id="Specialization" rx="2.5" ry="2.5" style="stroke:#181818;stroke-width:0.5;" width="167.6035" x="70.84" y="820.4883"/><ellipse cx="86.84" cy="837.4883" fill="#ADD1B2" rx="12" ry="12" style="stroke:#181818;stroke-width:1.0;"/><path d="M89.6466,844.5684 Q88.963,844.9199 88.2111,845.0957 Q87.4591,845.2715 86.6291,845.2715 Q83.6798,845.2715 82.1271,843.3281 Q80.5744,841.3848 80.5744,837.7129 Q80.5744,834.0313 82.1271,832.0879 Q83.6798,830.1445 86.6291,830.1445 Q87.4591,830.1445 88.2209,830.3203 Q88.9826,830.4961 89.6466,830.8477 L89.6466,834.0508 Q88.9045,833.3672 88.2062,833.0498 Q87.508,832.7324 86.7658,832.7324 Q85.1838,832.7324 84.3781,833.9873 Q83.5724,835.2422 83.5724,837.7129 Q83.5724,840.1738 84.3781,841.4287 Q85.1838,842.6836 86.7658,842.6836 Q87.508,842.6836 88.2062,842.3662 Q88.9045,842.0488 89.6466,841.3652 Z " fill="#000000"/><text fill="#000000" font-family="sans-serif" font-size="20" lengthAdjust="spacing" textLength="133.6035" x="101.84" y="845.0469">Specialization</text></g><!--link User to Patient--><g id="link_User_Patient"><path codeLine="14" d="M573.23,78.8583 C563.16,86.5483 552.66,96.6483 546.64,108.4883 C537.95,125.5783 537.1679,142.0231 538.2279,157.0531 " fill="none" id="User-to-Patient" style="stroke:#181818;stroke-width:1.0;"/><polygon fill="#181818" points="538.65,163.0383,542.0069,153.7792,538.2982,158.0507,534.0268,154.342,538.65,163.0383" style="stroke:#181818;stroke-width:1.0;"/><text fill="#000000" font-family="sans-serif" font-size="20" lengthAdjust="spacing" textLength="81.1328" x="547.64" y="128.8242">can be a</text><text fill="#000000" font-family="sans-serif" font-size="20" lengthAdjust="spacing" textLength="12.6465" x="553.0079" y="105.6632">1</text><text fill="#000000" font-family="sans-serif" font-size="20" lengthAdjust="spacing" textLength="12.6465" x="524.4942" y="151.31">1</text></g><!--link User to Staff--><g id="link_User_Staff"><path codeLine="15" d="M613.68,78.6383 C620.45,87.0883 628.26,97.8583 633.64,108.4883 C648.56,137.9683 655.64,146.4483 655.64,179.4883 C655.64,179.4883 655.64,179.4883 655.64,505.4883 C655.64,598.9783 520.7969,622.5823 450.1169,628.8023 " fill="none" id="User-to-Staff" style="stroke:#181818;stroke-width:1.0;"/><polygon fill="#181818" points="444.14,629.3283,453.456,632.5239,449.1208,628.89,452.7547,624.5547,444.14,629.3283" style="stroke:#181818;stroke-width:1.0;"/><text fill="#000000" font-family="sans-serif" font-size="20" lengthAdjust="spacing" textLength="81.1328" x="656.64" y="333.8242">can be a</text><text fill="#000000" font-family="sans-serif" font-size="20" lengthAdjust="spacing" textLength="12.6465" x="603.9278" y="105.7484">1</text><text fill="#000000" font-family="sans-serif" font-size="20" lengthAdjust="spacing" textLength="12.6465" x="451.7292" y="623.2821">1</text></g><!--link Staff to OperationRequest--><g id="link_Staff_OperationRequest"><path codeLine="17" d="M408.18,615.0783 C414.97,579.8083 426.75,494.8883 398.64,432.4883 C393.39,420.8283 388.3018,414.4657 379.1018,406.6057 " fill="none" id="Staff-to-OperationRequest" style="stroke:#181818;stroke-width:1.0;"/><polygon fill="#181818" points="374.54,402.7083,378.7845,411.5956,378.3415,405.9561,383.981,405.5131,374.54,402.7083" style="stroke:#181818;stroke-width:1.0;"/><text fill="#000000" font-family="sans-serif" font-size="20" lengthAdjust="spacing" textLength="174.9316" x="417.35" y="512.3242">makes an (doctor)</text><text fill="#000000" font-family="sans-serif" font-size="20" lengthAdjust="spacing" textLength="12.6465" x="395.5785" y="603.3613">1</text><text fill="#000000" font-family="sans-serif" font-size="20" lengthAdjust="spacing" textLength="41.2695" x="386.2396" y="429.8373">1...*</text></g><!--link Staff to Specialization--><g id="link_Staff_Specialization"><path codeLine="18" d="M384.6,649.7583 C337.79,687.7683 226.3384,778.2768 179.4284,816.3568 " fill="none" id="Staff-to-Specialization" style="stroke:#181818;stroke-width:1.0;"/><polygon fill="#181818" points="174.77,820.1383,184.2785,817.5716,178.652,816.987,179.2365,811.3605,174.77,820.1383" style="stroke:#181818;stroke-width:1.0;"/><text fill="#000000" font-family="sans-serif" font-size="20" lengthAdjust="spacing" textLength="51.0254" x="280.64" y="754.8242">has a</text><text fill="#000000" font-family="sans-serif" font-size="20" lengthAdjust="spacing" textLength="12.6465" x="365.6881" y="676.9007">1</text><text fill="#000000" font-family="sans-serif" font-size="20" lengthAdjust="spacing" textLength="41.2695" x="186.2346" y="808.4382">1...*</text></g><!--link Patient to OperationRequest--><g id="link_Patient_OperationRequest"><path codeLine="19" d="M525.49,197.7583 C490.1,235.7683 406.4089,325.6673 370.9489,363.7473 " fill="none" id="Patient-to-OperationRequest" style="stroke:#181818;stroke-width:1.0;"/><polygon fill="#181818" points="366.86,368.1383,375.9207,364.2777,370.2674,364.4791,370.066,358.8258,366.86,368.1383" style="stroke:#181818;stroke-width:1.0;"/><text fill="#000000" font-family="sans-serif" font-size="20" lengthAdjust="spacing" textLength="63.4375" x="469.01" y="278.8242">has an</text><text fill="#000000" font-family="sans-serif" font-size="20" lengthAdjust="spacing" textLength="12.6465" x="507.8933" y="224.9007">1</text><text fill="#000000" font-family="sans-serif" font-size="20" lengthAdjust="spacing" textLength="41.2695" x="324.4126" y="356.4382">1...*</text></g><!--link OperationRequest to OperationType--><g id="link_OperationRequest_OperationType"><path codeLine="21" d="M311.67,402.8283 C293.25,410.9183 271.37,421.3383 252.64,432.4883 C194.57,467.0683 141.2674,519.3325 114.8474,546.9525 " fill="none" id="OperationRequest-to-OperationType" style="stroke:#181818;stroke-width:1.0;"/><polygon fill="#181818" points="110.7,551.2883,119.8116,547.5495,114.1562,547.6751,114.0306,542.0197,110.7,551.2883" style="stroke:#181818;stroke-width:1.0;"/><text fill="#000000" font-family="sans-serif" font-size="20" lengthAdjust="spacing" textLength="45.1953" x="253.64" y="452.8242">for a</text><text fill="#000000" font-family="sans-serif" font-size="20" lengthAdjust="spacing" textLength="41.2695" x="254.4546" y="429.9895">1...*</text><text fill="#000000" font-family="sans-serif" font-size="20" lengthAdjust="spacing" textLength="12.6465" x="101.4561" y="539.2751">1</text></g><!--link OperationType to Specialization--><g id="link_OperationType_Specialization"><path codeLine="22" d="M99.24,585.7883 C109.78,633.4583 139.145,766.3797 149.715,814.1997 " fill="none" id="OperationType-to-Specialization" style="stroke:#181818;stroke-width:1.0;"/><polygon fill="#181818" points="151.01,820.0583,152.9733,810.4071,149.9309,815.1761,145.1618,812.1337,151.01,820.0583" style="stroke:#181818;stroke-width:1.0;"/><text fill="#000000" font-family="sans-serif" font-size="20" lengthAdjust="spacing" textLength="100.7129" x="126.34" y="699.8242">requests a</text><text fill="#000000" font-family="sans-serif" font-size="20" lengthAdjust="spacing" textLength="41.2695" x="53.7342" y="612.9388">0...*</text><text fill="#000000" font-family="sans-serif" font-size="20" lengthAdjust="spacing" textLength="34.9414" x="111.3397" y="808.3357">1..*</text></g><!--link OperationRequest to Appointment--><g id="link_OperationRequest_Appointment"><path codeLine="23" d="M341.21,402.7583 C326.88,425.1083 304.4977,460.0268 290.2177,482.3068 " fill="none" id="OperationRequest-to-Appointment" style="stroke:#181818;stroke-width:1.0;"/><polygon fill="#181818" points="286.98,487.3583,295.2042,481.9395,289.6781,483.1487,288.4688,477.6226,286.98,487.3583" style="stroke:#181818;stroke-width:1.0;"/><text fill="#000000" font-family="sans-serif" font-size="20" lengthAdjust="spacing" textLength="68.7988" x="321.86" y="452.8242">sets an</text><text fill="#000000" font-family="sans-serif" font-size="20" lengthAdjust="spacing" textLength="12.6465" x="324.881" y="429.9007">1</text><text fill="#000000" font-family="sans-serif" font-size="20" lengthAdjust="spacing" textLength="12.6465" x="276.3497" y="475.3656">1</text></g><!--link Appointment to SurgeryRoom--><g id="link_Appointment_SurgeryRoom"><path codeLine="24" d="M248.67,521.9383 C238.51,529.5283 228.17,539.5283 222.64,551.4883 C213.25,571.8283 216.0774,592.438 220.6374,609.228 " fill="none" id="Appointment-to-SurgeryRoom" style="stroke:#181818;stroke-width:1.0;"/><polygon fill="#181818" points="222.21,615.0183,223.7113,605.2845,220.8995,610.1931,215.991,607.3813,222.21,615.0183" style="stroke:#181818;stroke-width:1.0;"/><text fill="#000000" font-family="sans-serif" font-size="20" lengthAdjust="spacing" textLength="51.0254" x="223.64" y="576.3242">has a</text><text fill="#000000" font-family="sans-serif" font-size="20" lengthAdjust="spacing" textLength="41.2695" x="195.284" y="548.7637">1...*</text><text fill="#000000" font-family="sans-serif" font-size="20" lengthAdjust="spacing" textLength="12.6465" x="207.0859" y="603.2844">1</text></g><!--link Appointment to Staff--><g id="link_Appointment_Staff"><path codeLine="26" d="M281.17,521.7183 C286.77,539.2883 297.83,567.2483 315.64,585.4883 C329.37,599.5483 342.8327,607.7314 359.7227,615.2014 " fill="none" id="Appointment-to-Staff" style="stroke:#181818;stroke-width:1.0;"/><polygon fill="#181818" points="365.21,617.6283,358.597,610.3298,360.6373,615.6059,355.3612,617.6461,365.21,617.6283" style="stroke:#181818;stroke-width:1.0;"/><text fill="#000000" font-family="sans-serif" font-size="20" lengthAdjust="spacing" textLength="83.3398" x="316.64" y="576.3242">requests</text><text fill="#000000" font-family="sans-serif" font-size="20" lengthAdjust="spacing" textLength="41.2695" x="287.9329" y="548.8499">0...*</text><text fill="#000000" font-family="sans-serif" font-size="20" lengthAdjust="spacing" textLength="41.2695" x="317.4043" y="610.3925">1...*</text></g><!--SRC=[VL9TJuCm57tlhxY1Xwa92pFg634cRC2RqMpgUmSNrmmejYLc-_NM3iR7ZBoKz9vpxpddLkvPML51YvmdUqmXnOpMkOfvgJRiY73h4iLKZc25lA2iX6UUOWuEV33yXfb5TYn5mA9I1oYmsAAGX2GvbHBU9Ggmuo2udmVDrIjL34i5ziABbmklkTqeccLWU_DL5BV8bmg51lDoZLyrIaq9my0Dmt7vxL0Xs44SwQ-f1LN5MQaACoXsemTlrGwgnIUAmvhpGlVpbd5ubb1XmcZEZgOfs4jtTHT6PD9KanscTOw464_Mp0B7UJ9dwyY7X9QmHQ1m2J86-mXoijnXfjFfZNLXseU2xb62vbsbF55SN0-O7NMetuSTrIpIYXkZ_nXa22KXms1_YOzENJd_C3CkzAWHppsXsvdwTvIm3-BKGFR9xRBxuVNMwOD4PNJsTznAEwVTRRdnfGCV44RgZ3mJQwUAJDgbQzZWuGmhlRuZocz3yWC0]--></g></svg>