<svg xmlns="http://www.w3.org/2000/svg" xmlns:xlink="http://www.w3.org/1999/xlink" contentStyleType="text/css" height="888px" preserveAspectRatio="none" style="width:1138px;height:888px;background:#FFFFFF;" version="1.1" viewBox="0 0 1138 888" width="1138px" zoomAndPan="magnify"><defs/><g><!--class OperationType--><g id="elem_OperationType"><rect codeLine="1" fill="#F1F1F1" height="238.4375" id="OperationType" rx="2.5" ry="2.5" style="stroke:#181818;stroke-width:0.5;" width="817.4004" x="63.65" y="643.21"/><ellipse cx="396.2096" cy="660.21" fill="#ADD1B2" rx="12" ry="12" style="stroke:#181818;stroke-width:1.0;"/><path d="M399.0162,667.2901 Q398.3326,667.6416 397.5807,667.8174 Q396.8287,667.9932 395.9986,667.9932 Q393.0494,667.9932 391.4967,666.0498 Q389.9439,664.1065 389.9439,660.4346 Q389.9439,656.753 391.4967,654.8096 Q393.0494,652.8662 395.9986,652.8662 Q396.8287,652.8662 397.5904,653.042 Q398.3521,653.2178 399.0162,653.5694 L399.0162,656.7725 Q398.274,656.0889 397.5758,655.7715 Q396.8775,655.4541 396.1354,655.4541 Q394.5533,655.4541 393.7477,656.709 Q392.942,657.9639 392.942,660.4346 Q392.942,662.8955 393.7477,664.1504 Q394.5533,665.4053 396.1354,665.4053 Q396.8775,665.4053 397.5758,665.0879 Q398.274,664.7705 399.0162,664.087 Z " fill="#000000"/><text fill="#000000" font-family="sans-serif" font-size="20" lengthAdjust="spacing" textLength="143.2813" x="418.2096" y="667.7686">OperationType</text><line style="stroke:#181818;stroke-width:0.5;" x1="64.65" x2="880.0504" y1="677.21" y2="677.21"/><rect fill="none" height="6" style="stroke:#C82930;stroke-width:1.0;" width="6" x="71.65" y="691.4873"/><text fill="#000000" font-family="sans-serif" font-size="20" lengthAdjust="spacing" textLength="72.5293" x="84.65" y="700.5459">Long id</text><rect fill="none" height="6" style="stroke:#C82930;stroke-width:1.0;" width="6" x="71.65" y="715.042"/><text fill="#000000" font-family="sans-serif" font-size="20" lengthAdjust="spacing" textLength="116.6992" x="84.65" y="724.1006">String name</text><rect fill="none" height="6" style="stroke:#C82930;stroke-width:1.0;" width="6" x="71.65" y="738.5967"/><text fill="#000000" font-family="sans-serif" font-size="20" lengthAdjust="spacing" textLength="242.2754" x="84.65" y="747.6553">List&lt;Staff&gt; requiredStaff</text><rect fill="none" height="6" style="stroke:#C82930;stroke-width:1.0;" width="6" x="71.65" y="762.1514"/><text fill="#000000" font-family="sans-serif" font-size="20" lengthAdjust="spacing" textLength="212.1094" x="84.65" y="771.21">int estimatedDuration</text><rect fill="none" height="6" style="stroke:#C82930;stroke-width:1.0;" width="6" x="71.65" y="785.7061"/><text fill="#000000" font-family="sans-serif" font-size="20" lengthAdjust="spacing" textLength="158.6426" x="84.65" y="794.7647">boolean isActive</text><line style="stroke:#181818;stroke-width:0.5;" x1="64.65" x2="880.0504" y1="802.9834" y2="802.9834"/><ellipse cx="74.65" cy="820.2608" fill="#84BE84" rx="3" ry="3" style="stroke:#038048;stroke-width:1.0;"/><text fill="#000000" font-family="sans-serif" font-size="20" lengthAdjust="spacing" textLength="790.4004" x="84.65" y="826.3194">void updateDetails(String name, List&lt;Staff&gt; requiredStaff, int estimatedDuration)</text><ellipse cx="74.65" cy="843.8155" fill="#84BE84" rx="3" ry="3" style="stroke:#038048;stroke-width:1.0;"/><text fill="#000000" font-family="sans-serif" font-size="20" lengthAdjust="spacing" textLength="158.6426" x="84.65" y="849.8741">void deactivate()</text><ellipse cx="74.65" cy="867.3702" fill="#84BE84" rx="3" ry="3" style="stroke:#038048;stroke-width:1.0;"/><text fill="#000000" font-family="sans-serif" font-size="20" lengthAdjust="spacing" textLength="171.6504" x="84.65" y="873.4287">boolean isActive()</text></g><!--class OperationTypeController--><g id="elem_OperationTypeController"><rect codeLine="13" fill="#F1F1F1" height="120.6641" id="OperationTypeController" rx="2.5" ry="2.5" style="stroke:#181818;stroke-width:0.5;" width="682.7031" x="131" y="7"/><ellipse cx="347.5244" cy="24" fill="#ADD1B2" rx="12" ry="12" style="stroke:#181818;stroke-width:1.0;"/><path d="M350.3311,31.0801 Q349.6475,31.4316 348.8955,31.6074 Q348.1436,31.7832 347.3135,31.7832 Q344.3643,31.7832 342.8115,29.8398 Q341.2588,27.8965 341.2588,24.2246 Q341.2588,20.543 342.8115,18.5996 Q344.3643,16.6563 347.3135,16.6563 Q348.1436,16.6563 348.9053,16.832 Q349.667,17.0078 350.3311,17.3594 L350.3311,20.5625 Q349.5889,19.8789 348.8906,19.5615 Q348.1924,19.2441 347.4502,19.2441 Q345.8682,19.2441 345.0625,20.499 Q344.2568,21.7539 344.2568,24.2246 Q344.2568,26.6855 345.0625,27.9404 Q345.8682,29.1953 347.4502,29.1953 Q348.1924,29.1953 348.8906,28.8779 Q349.5889,28.5605 350.3311,27.877 Z " fill="#000000"/><text fill="#000000" font-family="sans-serif" font-size="20" lengthAdjust="spacing" textLength="240.6543" x="369.5244" y="31.5586">OperationTypeController</text><line style="stroke:#181818;stroke-width:0.5;" x1="132" x2="812.7031" y1="41" y2="41"/><line style="stroke:#181818;stroke-width:0.5;" x1="132" x2="812.7031" y1="49" y2="49"/><ellipse cx="142" cy="66.2773" fill="#84BE84" rx="3" ry="3" style="stroke:#038048;stroke-width:1.0;"/><text fill="#000000" font-family="sans-serif" font-size="20" lengthAdjust="spacing" textLength="569.7461" x="152" y="72.3359">Response addOperationType(OperationTypeDTO jsonData)</text><ellipse cx="142" cy="89.832" fill="#84BE84" rx="3" ry="3" style="stroke:#038048;stroke-width:1.0;"/><text fill="#000000" font-family="sans-serif" font-size="20" lengthAdjust="spacing" textLength="655.7031" x="152" y="95.8906">Response editOperationType(Long id, OperationTypeDTO jsonData)</text><ellipse cx="142" cy="113.3867" fill="#84BE84" rx="3" ry="3" style="stroke:#038048;stroke-width:1.0;"/><text fill="#000000" font-family="sans-serif" font-size="20" lengthAdjust="spacing" textLength="426.0547" x="152" y="119.4453">Response deactivateOperationType(Long id)</text></g><!--class OperationTypeService--><g id="elem_OperationTypeService"><rect codeLine="19" fill="#F1F1F1" height="191.3281" id="OperationTypeService" rx="2.5" ry="2.5" style="stroke:#181818;stroke-width:0.5;" width="930.7012" x="7" y="187.67"/><ellipse cx="362.4014" cy="204.67" fill="#ADD1B2" rx="12" ry="12" style="stroke:#181818;stroke-width:1.0;"/><path d="M365.208,211.7501 Q364.5244,212.1016 363.7725,212.2774 Q363.0205,212.4532 362.1904,212.4532 Q359.2412,212.4532 357.6885,210.5098 Q356.1357,208.5665 356.1357,204.8946 Q356.1357,201.213 357.6885,199.2696 Q359.2412,197.3262 362.1904,197.3262 Q363.0205,197.3262 363.7822,197.502 Q364.5439,197.6778 365.208,198.0294 L365.208,201.2325 Q364.4658,200.5489 363.7676,200.2315 Q363.0693,199.9141 362.3271,199.9141 Q360.7451,199.9141 359.9395,201.169 Q359.1338,202.4239 359.1338,204.8946 Q359.1338,207.3555 359.9395,208.6104 Q360.7451,209.8653 362.3271,209.8653 Q363.0693,209.8653 363.7676,209.5479 Q364.4658,209.2305 365.208,208.547 Z " fill="#000000"/><text fill="#000000" font-family="sans-serif" font-size="20" lengthAdjust="spacing" textLength="210.8984" x="384.4014" y="212.2286">OperationTypeService</text><line style="stroke:#181818;stroke-width:0.5;" x1="8" x2="936.7012" y1="221.67" y2="221.67"/><line style="stroke:#181818;stroke-width:0.5;" x1="8" x2="936.7012" y1="229.67" y2="229.67"/><ellipse cx="18" cy="246.9473" fill="#84BE84" rx="3" ry="3" style="stroke:#038048;stroke-width:1.0;"/><text fill="#000000" font-family="sans-serif" font-size="20" lengthAdjust="spacing" textLength="823.7402" x="28" y="253.0059">OperationType validateAndProcessOperationType(OperationTypeDTO operationData)</text><ellipse cx="18" cy="270.502" fill="#84BE84" rx="3" ry="3" style="stroke:#038048;stroke-width:1.0;"/><text fill="#000000" font-family="sans-serif" font-size="20" lengthAdjust="spacing" textLength="535.9961" x="28" y="276.5606">void saveOperationType(OperationType operationType)</text><ellipse cx="18" cy="294.0567" fill="#84BE84" rx="3" ry="3" style="stroke:#038048;stroke-width:1.0;"/><text fill="#000000" font-family="sans-serif" font-size="20" lengthAdjust="spacing" textLength="655.791" x="28" y="300.1153">boolean checkIfOperationTypeExists(String name, Long excludedId)</text><ellipse cx="18" cy="317.6114" fill="#84BE84" rx="3" ry="3" style="stroke:#038048;stroke-width:1.0;"/><text fill="#000000" font-family="sans-serif" font-size="20" lengthAdjust="spacing" textLength="449.8242" x="28" y="323.67">OperationType getOperationTypeById(Long id)</text><ellipse cx="18" cy="341.1661" fill="#84BE84" rx="3" ry="3" style="stroke:#038048;stroke-width:1.0;"/><text fill="#000000" font-family="sans-serif" font-size="20" lengthAdjust="spacing" textLength="903.7012" x="28" y="347.2247">void updateOperationType(OperationType operationType, OperationTypeDTO operationData)</text><ellipse cx="18" cy="364.7208" fill="#84BE84" rx="3" ry="3" style="stroke:#038048;stroke-width:1.0;"/><text fill="#000000" font-family="sans-serif" font-size="20" lengthAdjust="spacing" textLength="374.4531" x="28" y="370.7794">void deactivateOperationType(Long id)</text></g><!--class OperationTypeRepository--><g id="elem_OperationTypeRepository"><rect codeLine="28" fill="#F1F1F1" height="144.2188" id="OperationTypeRepository" rx="2.5" ry="2.5" style="stroke:#181818;stroke-width:0.5;" width="740.3789" x="314.16" y="438.99"/><ellipse cx="556.6903" cy="455.99" fill="#ADD1B2" rx="12" ry="12" style="stroke:#181818;stroke-width:1.0;"/><path d="M559.4969,463.0701 Q558.8133,463.4216 558.0614,463.5974 Q557.3094,463.7732 556.4793,463.7732 Q553.5301,463.7732 551.9774,461.8298 Q550.4246,459.8865 550.4246,456.2146 Q550.4246,452.533 551.9774,450.5896 Q553.5301,448.6462 556.4793,448.6462 Q557.3094,448.6462 558.0711,448.822 Q558.8329,448.9978 559.4969,449.3494 L559.4969,452.5525 Q558.7547,451.8689 558.0565,451.5515 Q557.3582,451.2341 556.6161,451.2341 Q555.034,451.2341 554.2284,452.489 Q553.4227,453.7439 553.4227,456.2146 Q553.4227,458.6755 554.2284,459.9304 Q555.034,461.1853 556.6161,461.1853 Q557.3582,461.1853 558.0565,460.8679 Q558.7547,460.5505 559.4969,459.867 Z " fill="#000000"/><text fill="#000000" font-family="sans-serif" font-size="20" lengthAdjust="spacing" textLength="246.3184" x="578.6903" y="463.5486">OperationTypeRepository</text><line style="stroke:#181818;stroke-width:0.5;" x1="315.16" x2="1053.5389" y1="472.99" y2="472.99"/><line style="stroke:#181818;stroke-width:0.5;" x1="315.16" x2="1053.5389" y1="480.99" y2="480.99"/><ellipse cx="325.16" cy="498.2673" fill="#84BE84" rx="3" ry="3" style="stroke:#038048;stroke-width:1.0;"/><text fill="#000000" font-family="sans-serif" font-size="20" lengthAdjust="spacing" textLength="713.3789" x="335.16" y="504.3259">OperationType findByNameAndExcludedId(String name, Long excludedId)</text><ellipse cx="325.16" cy="521.822" fill="#84BE84" rx="3" ry="3" style="stroke:#038048;stroke-width:1.0;"/><text fill="#000000" font-family="sans-serif" font-size="20" lengthAdjust="spacing" textLength="313.584" x="335.16" y="527.8806">OperationType findById(Long id)</text><ellipse cx="325.16" cy="545.3767" fill="#84BE84" rx="3" ry="3" style="stroke:#038048;stroke-width:1.0;"/><text fill="#000000" font-family="sans-serif" font-size="20" lengthAdjust="spacing" textLength="392.7148" x="335.16" y="551.4353">void save(OperationType operationType)</text><ellipse cx="325.16" cy="568.9314" fill="#84BE84" rx="3" ry="3" style="stroke:#038048;stroke-width:1.0;"/><text fill="#000000" font-family="sans-serif" font-size="20" lengthAdjust="spacing" textLength="231.1719" x="335.16" y="574.99">void deactivate(Long id)</text></g><!--class OperationTypeDTO--><g id="elem_OperationTypeDTO"><rect codeLine="35" fill="#F1F1F1" height="120.6641" id="OperationTypeDTO" rx="2.5" ry="2.5" style="stroke:#181818;stroke-width:0.5;" width="282.3711" x="849.17" y="7"/><ellipse cx="893.0366" cy="24" fill="#ADD1B2" rx="12" ry="12" style="stroke:#181818;stroke-width:1.0;"/><path d="M895.8432,31.0801 Q895.1596,31.4316 894.4077,31.6074 Q893.6557,31.7832 892.8257,31.7832 Q889.8764,31.7832 888.3237,29.8398 Q886.771,27.8965 886.771,24.2246 Q886.771,20.543 888.3237,18.5996 Q889.8764,16.6563 892.8257,16.6563 Q893.6557,16.6563 894.4175,16.832 Q895.1792,17.0078 895.8432,17.3594 L895.8432,20.5625 Q895.1011,19.8789 894.4028,19.5615 Q893.7046,19.2441 892.9624,19.2441 Q891.3804,19.2441 890.5747,20.499 Q889.769,21.7539 889.769,24.2246 Q889.769,26.6855 890.5747,27.9404 Q891.3804,29.1953 892.9624,29.1953 Q893.7046,29.1953 894.4028,28.8779 Q895.1011,28.5605 895.8432,27.877 Z " fill="#000000"/><text fill="#000000" font-family="sans-serif" font-size="20" lengthAdjust="spacing" textLength="186.4453" x="914.2292" y="31.5586">OperationTypeDTO</text><line style="stroke:#181818;stroke-width:0.5;" x1="850.17" x2="1130.5411" y1="41" y2="41"/><rect fill="none" height="6" style="stroke:#C82930;stroke-width:1.0;" width="6" x="857.17" y="55.2773"/><text fill="#000000" font-family="sans-serif" font-size="20" lengthAdjust="spacing" textLength="116.6992" x="870.17" y="64.3359">String name</text><rect fill="none" height="6" style="stroke:#C82930;stroke-width:1.0;" width="6" x="857.17" y="78.832"/><text fill="#000000" font-family="sans-serif" font-size="20" lengthAdjust="spacing" textLength="255.3711" x="870.17" y="87.8906">List&lt;String&gt; requiredStaff</text><rect fill="none" height="6" style="stroke:#C82930;stroke-width:1.0;" width="6" x="857.17" y="102.3867"/><text fill="#000000" font-family="sans-serif" font-size="20" lengthAdjust="spacing" textLength="212.1094" x="870.17" y="111.4453">int estimatedDuration</text><line style="stroke:#181818;stroke-width:0.5;" x1="850.17" x2="1130.5411" y1="119.6641" y2="119.6641"/></g><!--link OperationTypeController to OperationTypeService--><g id="link_OperationTypeController_OperationTypeService"><path codeLine="41" d="M472.35,127.94 C472.35,146.37 472.35,161.15 472.35,181.35 " fill="none" id="OperationTypeController-to-OperationTypeService" style="stroke:#181818;stroke-width:1.0;"/><polygon fill="#181818" points="472.35,187.35,476.35,178.35,472.35,182.35,468.35,178.35,472.35,187.35" style="stroke:#181818;stroke-width:1.0;"/></g><!--link OperationTypeService to OperationTypeRepository--><g id="link_OperationTypeService_OperationTypeRepository"><path codeLine="42" d="M561.64,379.42 C580.31,399.31 595.593,415.576 613.283,434.416 " fill="none" id="OperationTypeService-to-OperationTypeRepository" style="stroke:#181818;stroke-width:1.0;"/><polygon fill="#181818" points="617.39,438.79,614.1455,429.4909,613.9675,435.145,608.3134,434.967,617.39,438.79" style="stroke:#181818;stroke-width:1.0;"/></g><!--link OperationTypeService to OperationType--><g id="link_OperationTypeService_OperationType"><path codeLine="43" d="M337.66,379.29 C320.93,397.13 306.24,417.13 296.35,438.99 C269.93,497.39 272.01,523.92 296.35,583.21 C305.06,604.43 313.9525,619.7525 328.4525,638.2025 " fill="none" id="OperationTypeService-to-OperationType" style="stroke:#181818;stroke-width:1.0;"/><polygon fill="#181818" points="332.16,642.92,329.7437,633.3721,329.0704,638.9888,323.4538,638.3155,332.16,642.92" style="stroke:#181818;stroke-width:1.0;"/></g><!--link OperationTypeRepository to OperationType--><g id="link_OperationTypeRepository_OperationType"><path codeLine="44" d="M623.6,583.55 C607.82,602.11 594.265,618.0376 577.025,638.3276 " fill="none" id="OperationTypeRepository-to-OperationType" style="stroke:#181818;stroke-width:1.0;"/><polygon fill="#181818" points="573.14,642.9,582.0158,638.6315,576.3775,639.0897,575.9193,633.4514,573.14,642.9" style="stroke:#181818;stroke-width:1.0;"/></g><!--SRC=[bPJVJy8m4CVVzrVS8mkG69yD2GWc94OC-0_KtGrFIZlRRW6D_xlTGEQW0tpRzNxrFj_hx8fL9enOIvsi204f5Rbq3rgv1NyItDv4YHJMmYmZ8nnhzRBD2BuYW3uyQhK4nkfxuGnxIuarxNnitTt2YJGTWA6Fd0rXPLPULWx8EbuBHpZETvKhpwlMaeG2jiF4SK6HF-r2eHaXpz27Zya9bhRpfs6llLilt2gkgoA9if7tTc80g1p7bzXvlgCGYtkFocWfoLHKkZ0dcsbb2GHY8xBJiCOlCtYtMes54t4paP1TCtDFkWVNbgYd2XQAMyTPa2aueVqiJTKB8RcKOAZmsUY4hBqmd_uzg6zOCRUYe3EfTLvfnGr9aZTALjEq4J_PUFcFDw8Sb3Q9p95mYd5Wd2KrAO-sKpm0EbwxgwyRqAWDmqMHMZIQKwOjEsssGPbILZZQFdaCNgZ90S6_-Upg19cK0bxMxFXzNLo-4jRNkTz9UNZz_yGtQNkg_VuWkFTHy36SHDSAN9aGjGbu4la3]--></g></svg>