<svg xmlns="http://www.w3.org/2000/svg" xmlns:xlink="http://www.w3.org/1999/xlink" contentStyleType="text/css" height="797px" preserveAspectRatio="none" style="width:2883px;height:797px;background:#FFFFFF;" version="1.1" viewBox="0 0 2883 797" width="2883px" zoomAndPan="magnify"><defs/><g><rect fill="#FFFFFF" height="601.875" style="stroke:#181818;stroke-width:1.0;" width="10" x="34.626" y="98.5547"/><rect fill="#FFFFFF" height="592.875" style="stroke:#181818;stroke-width:1.0;" width="10" x="779.6807" y="98.5547"/><rect fill="#FFFFFF" height="413.1016" style="stroke:#181818;stroke-width:1.0;" width="10" x="1319.1006" y="240.7734"/><rect fill="#FFFFFF" height="112.6641" style="stroke:#181818;stroke-width:1.0;" width="10" x="1710.7666" y="353.4375"/><rect fill="#FFFFFF" height="422.1016" style="stroke:#181818;stroke-width:1.0;" width="10" x="1929.5664" y="278.3281"/><rect fill="#FFFFFF" height="37.5547" style="stroke:#181818;stroke-width:1.0;" width="10" x="2160.6709" y="503.6563"/><rect fill="#FFFFFF" height="37.5547" style="stroke:#181818;stroke-width:1.0;" width="10" x="2493.5234" y="578.7656"/><line style="stroke:#181818;stroke-width:0.5;stroke-dasharray:5.0,5.0;" x1="39" x2="39" y1="88.5547" y2="709.4297"/><line style="stroke:#181818;stroke-width:0.5;stroke-dasharray:5.0,5.0;" x1="784.3535" x2="784.3535" y1="88.5547" y2="709.4297"/><line style="stroke:#181818;stroke-width:0.5;stroke-dasharray:5.0,5.0;" x1="1323.6514" x2="1323.6514" y1="88.5547" y2="709.4297"/><line style="stroke:#181818;stroke-width:0.5;stroke-dasharray:5.0,5.0;" x1="1715.6074" x2="1715.6074" y1="88.5547" y2="709.4297"/><line style="stroke:#181818;stroke-width:0.5;stroke-dasharray:5.0,5.0;" x1="1933.9258" x2="1933.9258" y1="88.5547" y2="709.4297"/><line style="stroke:#181818;stroke-width:0.5;stroke-dasharray:5.0,5.0;" x1="2165.207" x2="2165.207" y1="88.5547" y2="709.4297"/><line style="stroke:#181818;stroke-width:0.5;stroke-dasharray:5.0,5.0;" x1="2498.1348" x2="2498.1348" y1="88.5547" y2="709.4297"/><line style="stroke:#181818;stroke-width:0.5;stroke-dasharray:5.0,5.0;" x1="2835.8311" x2="2835.8311" y1="88.5547" y2="709.4297"/><text fill="#000000" font-family="sans-serif" font-size="20" lengthAdjust="spacing" textLength="63.252" x="5" y="84.3359">Admin</text><ellipse cx="39.626" cy="13.5" fill="#E2E2F0" rx="8" ry="8" style="stroke:#181818;stroke-width:0.5;"/><path d="M39.626,21.5 L39.626,48.5 M26.626,29.5 L52.626,29.5 M39.626,48.5 L26.626,63.5 M39.626,48.5 L52.626,63.5 " fill="none" style="stroke:#181818;stroke-width:0.5;"/><text fill="#000000" font-family="sans-serif" font-size="20" lengthAdjust="spacing" textLength="63.252" x="5" y="727.7656">Admin</text><ellipse cx="39.626" cy="740.4844" fill="#E2E2F0" rx="8" ry="8" style="stroke:#181818;stroke-width:0.5;"/><path d="M39.626,748.4844 L39.626,775.4844 M26.626,756.4844 L52.626,756.4844 M39.626,775.4844 L26.626,790.4844 M39.626,775.4844 L52.626,790.4844 " fill="none" style="stroke:#181818;stroke-width:0.5;"/><rect fill="#E2E2F0" height="37.5547" rx="2.5" ry="2.5" style="stroke:#181818;stroke-width:0.5;" width="254.6543" x="657.3535" y="50"/><text fill="#000000" font-family="sans-serif" font-size="20" lengthAdjust="spacing" textLength="240.6543" x="664.3535" y="76.3359">OperationTypeController</text><rect fill="#E2E2F0" height="37.5547" rx="2.5" ry="2.5" style="stroke:#181818;stroke-width:0.5;" width="254.6543" x="657.3535" y="708.4297"/><text fill="#000000" font-family="sans-serif" font-size="20" lengthAdjust="spacing" textLength="240.6543" x="664.3535" y="734.7656">OperationTypeController</text><rect fill="#E2E2F0" height="37.5547" rx="2.5" ry="2.5" style="stroke:#181818;stroke-width:0.5;" width="224.8984" x="1211.6514" y="50"/><text fill="#000000" font-family="sans-serif" font-size="20" lengthAdjust="spacing" textLength="210.8984" x="1218.6514" y="76.3359">OperationTypeService</text><rect fill="#E2E2F0" height="37.5547" rx="2.5" ry="2.5" style="stroke:#181818;stroke-width:0.5;" width="224.8984" x="1211.6514" y="708.4297"/><text fill="#000000" font-family="sans-serif" font-size="20" lengthAdjust="spacing" textLength="210.8984" x="1218.6514" y="734.7656">OperationTypeService</text><rect fill="#E2E2F0" height="37.5547" rx="2.5" ry="2.5" style="stroke:#181818;stroke-width:0.5;" width="260.3184" x="1585.6074" y="50"/><text fill="#000000" font-family="sans-serif" font-size="20" lengthAdjust="spacing" textLength="246.3184" x="1592.6074" y="76.3359">OperationTypeRepository</text><rect fill="#E2E2F0" height="37.5547" rx="2.5" ry="2.5" style="stroke:#181818;stroke-width:0.5;" width="260.3184" x="1585.6074" y="708.4297"/><text fill="#000000" font-family="sans-serif" font-size="20" lengthAdjust="spacing" textLength="246.3184" x="1592.6074" y="734.7656">OperationTypeRepository</text><rect fill="#E2E2F0" height="37.5547" rx="2.5" ry="2.5" style="stroke:#181818;stroke-width:0.5;" width="157.2813" x="1855.9258" y="50"/><text fill="#000000" font-family="sans-serif" font-size="20" lengthAdjust="spacing" textLength="143.2813" x="1862.9258" y="76.3359">OperationType</text><rect fill="#E2E2F0" height="37.5547" rx="2.5" ry="2.5" style="stroke:#181818;stroke-width:0.5;" width="157.2813" x="1855.9258" y="708.4297"/><text fill="#000000" font-family="sans-serif" font-size="20" lengthAdjust="spacing" textLength="143.2813" x="1862.9258" y="734.7656">OperationType</text><rect fill="#E2E2F0" height="37.5547" rx="2.5" ry="2.5" style="stroke:#181818;stroke-width:0.5;" width="284.9277" x="2023.207" y="50"/><text fill="#000000" font-family="sans-serif" font-size="20" lengthAdjust="spacing" textLength="270.9277" x="2030.207" y="76.3359">OperationTypeCreatedEvent</text><rect fill="#E2E2F0" height="37.5547" rx="2.5" ry="2.5" style="stroke:#181818;stroke-width:0.5;" width="284.9277" x="2023.207" y="708.4297"/><text fill="#000000" font-family="sans-serif" font-size="20" lengthAdjust="spacing" textLength="270.9277" x="2030.207" y="734.7656">OperationTypeCreatedEvent</text><rect fill="#E2E2F0" height="37.5547" rx="2.5" ry="2.5" style="stroke:#181818;stroke-width:0.5;" width="360.7773" x="2318.1348" y="50"/><text fill="#000000" font-family="sans-serif" font-size="20" lengthAdjust="spacing" textLength="346.7773" x="2325.1348" y="76.3359">OperationTypeCreatedEventHandler</text><rect fill="#E2E2F0" height="37.5547" rx="2.5" ry="2.5" style="stroke:#181818;stroke-width:0.5;" width="360.7773" x="2318.1348" y="708.4297"/><text fill="#000000" font-family="sans-serif" font-size="20" lengthAdjust="spacing" textLength="346.7773" x="2325.1348" y="734.7656">OperationTypeCreatedEventHandler</text><rect fill="#E2E2F0" height="37.5547" rx="2.5" ry="2.5" style="stroke:#181818;stroke-width:0.5;" width="81.2168" x="2795.8311" y="50"/><text fill="#000000" font-family="sans-serif" font-size="20" lengthAdjust="spacing" textLength="67.2168" x="2802.8311" y="76.3359">Logger</text><rect fill="#E2E2F0" height="37.5547" rx="2.5" ry="2.5" style="stroke:#181818;stroke-width:0.5;" width="81.2168" x="2795.8311" y="708.4297"/><text fill="#000000" font-family="sans-serif" font-size="20" lengthAdjust="spacing" textLength="67.2168" x="2802.8311" y="734.7656">Logger</text><rect fill="#FFFFFF" height="601.875" style="stroke:#181818;stroke-width:1.0;" width="10" x="34.626" y="98.5547"/><rect fill="#FFFFFF" height="592.875" style="stroke:#181818;stroke-width:1.0;" width="10" x="779.6807" y="98.5547"/><rect fill="#FFFFFF" height="413.1016" style="stroke:#181818;stroke-width:1.0;" width="10" x="1319.1006" y="240.7734"/><rect fill="#FFFFFF" height="112.6641" style="stroke:#181818;stroke-width:1.0;" width="10" x="1710.7666" y="353.4375"/><rect fill="#FFFFFF" height="422.1016" style="stroke:#181818;stroke-width:1.0;" width="10" x="1929.5664" y="278.3281"/><rect fill="#FFFFFF" height="37.5547" style="stroke:#181818;stroke-width:1.0;" width="10" x="2160.6709" y="503.6563"/><rect fill="#FFFFFF" height="37.5547" style="stroke:#181818;stroke-width:1.0;" width="10" x="2493.5234" y="578.7656"/><polygon fill="#181818" points="767.6807,124.1094,777.6807,128.1094,767.6807,132.1094,771.6807,128.1094" style="stroke:#181818;stroke-width:1.0;"/><line style="stroke:#181818;stroke-width:1.0;" x1="44.626" x2="773.6807" y1="128.1094" y2="128.1094"/><text fill="#000000" font-family="sans-serif" font-size="20" lengthAdjust="spacing" textLength="543.8184" x="51.626" y="121.8906">ask to add new operation type (GET: addOperationType)</text><polygon fill="#181818" points="55.626,161.6641,45.626,165.6641,55.626,169.6641,51.626,165.6641" style="stroke:#181818;stroke-width:1.0;"/><line style="stroke:#181818;stroke-width:1.0;stroke-dasharray:2.0,2.0;" x1="49.626" x2="778.6807" y1="165.6641" y2="165.6641"/><text fill="#000000" font-family="sans-serif" font-size="20" lengthAdjust="spacing" textLength="370.8105" x="61.626" y="159.4453">sends form to add new operation type</text><polygon fill="#181818" points="767.6807,199.2188,777.6807,203.2188,767.6807,207.2188,771.6807,203.2188" style="stroke:#181818;stroke-width:1.0;"/><line style="stroke:#181818;stroke-width:1.0;" x1="44.626" x2="773.6807" y1="203.2188" y2="203.2188"/><text fill="#000000" font-family="sans-serif" font-size="20" lengthAdjust="spacing" textLength="711.0547" x="51.626" y="197">submit form with new operation type details (POST: registOperationType)</text><polygon fill="#181818" points="1307.1006,236.7734,1317.1006,240.7734,1307.1006,244.7734,1311.1006,240.7734" style="stroke:#181818;stroke-width:1.0;"/><line style="stroke:#181818;stroke-width:1.0;" x1="789.6807" x2="1313.1006" y1="240.7734" y2="240.7734"/><text fill="#000000" font-family="sans-serif" font-size="20" lengthAdjust="spacing" textLength="510.4199" x="796.6807" y="234.5547">registOperationType (name, required staff, duration)</text><polygon fill="#181818" points="1917.5664,274.3281,1927.5664,278.3281,1917.5664,282.3281,1921.5664,278.3281" style="stroke:#181818;stroke-width:1.0;"/><line style="stroke:#181818;stroke-width:1.0;" x1="1329.1006" x2="1923.5664" y1="278.3281" y2="278.3281"/><text fill="#000000" font-family="sans-serif" font-size="20" lengthAdjust="spacing" textLength="341.1816" x="1336.1006" y="272.1094">create new OperationType instance</text><polygon fill="#181818" points="1340.1006,311.8828,1330.1006,315.8828,1340.1006,319.8828,1336.1006,315.8828" style="stroke:#181818;stroke-width:1.0;"/><line style="stroke:#181818;stroke-width:1.0;stroke-dasharray:2.0,2.0;" x1="1334.1006" x2="1928.5664" y1="315.8828" y2="315.8828"/><text fill="#000000" font-family="sans-serif" font-size="20" lengthAdjust="spacing" textLength="296.4648" x="1346.1006" y="309.6641">return OperationType instance</text><polygon fill="#181818" points="1698.7666,349.4375,1708.7666,353.4375,1698.7666,357.4375,1702.7666,353.4375" style="stroke:#181818;stroke-width:1.0;"/><line style="stroke:#181818;stroke-width:1.0;" x1="1329.1006" x2="1704.7666" y1="353.4375" y2="353.4375"/><text fill="#000000" font-family="sans-serif" font-size="20" lengthAdjust="spacing" textLength="362.666" x="1336.1006" y="347.2188">check if operation type already exists</text><polygon fill="#181818" points="1340.1006,386.9922,1330.1006,390.9922,1340.1006,394.9922,1336.1006,390.9922" style="stroke:#181818;stroke-width:1.0;"/><line style="stroke:#181818;stroke-width:1.0;stroke-dasharray:2.0,2.0;" x1="1334.1006" x2="1709.7666" y1="390.9922" y2="390.9922"/><text fill="#000000" font-family="sans-serif" font-size="20" lengthAdjust="spacing" textLength="285.4297" x="1346.1006" y="384.7734">operation type does not exist</text><polygon fill="#181818" points="1698.7666,424.5469,1708.7666,428.5469,1698.7666,432.5469,1702.7666,428.5469" style="stroke:#181818;stroke-width:1.0;"/><line style="stroke:#181818;stroke-width:1.0;" x1="1329.1006" x2="1704.7666" y1="428.5469" y2="428.5469"/><text fill="#000000" font-family="sans-serif" font-size="20" lengthAdjust="spacing" textLength="192.3438" x="1336.1006" y="422.3281">save OperationType</text><polygon fill="#181818" points="1340.1006,462.1016,1330.1006,466.1016,1340.1006,470.1016,1336.1006,466.1016" style="stroke:#181818;stroke-width:1.0;"/><line style="stroke:#181818;stroke-width:1.0;stroke-dasharray:2.0,2.0;" x1="1334.1006" x2="1714.7666" y1="466.1016" y2="466.1016"/><text fill="#000000" font-family="sans-serif" font-size="20" lengthAdjust="spacing" textLength="202.8418" x="1346.1006" y="459.8828">operation type saved</text><polygon fill="#181818" points="2148.6709,499.6563,2158.6709,503.6563,2148.6709,507.6563,2152.6709,503.6563" style="stroke:#181818;stroke-width:1.0;"/><line style="stroke:#181818;stroke-width:1.0;" x1="1329.1006" x2="2154.6709" y1="503.6563" y2="503.6563"/><text fill="#000000" font-family="sans-serif" font-size="20" lengthAdjust="spacing" textLength="336.4941" x="1336.1006" y="497.4375">create OperationTypeCreatedEvent</text><polygon fill="#181818" points="1340.1006,537.2109,1330.1006,541.2109,1340.1006,545.2109,1336.1006,541.2109" style="stroke:#181818;stroke-width:1.0;"/><line style="stroke:#181818;stroke-width:1.0;stroke-dasharray:2.0,2.0;" x1="1334.1006" x2="2164.6709" y1="541.2109" y2="541.2109"/><text fill="#000000" font-family="sans-serif" font-size="20" lengthAdjust="spacing" textLength="130.6836" x="1346.1006" y="534.9922">event created</text><polygon fill="#181818" points="2481.5234,574.7656,2491.5234,578.7656,2481.5234,582.7656,2485.5234,578.7656" style="stroke:#181818;stroke-width:1.0;"/><line style="stroke:#181818;stroke-width:1.0;" x1="1329.1006" x2="2487.5234" y1="578.7656" y2="578.7656"/><text fill="#000000" font-family="sans-serif" font-size="20" lengthAdjust="spacing" textLength="342.6367" x="1336.1006" y="572.5469">handle OperationTypeCreatedEvent</text><polygon fill="#181818" points="2824.4395,612.3203,2834.4395,616.3203,2824.4395,620.3203,2828.4395,616.3203" style="stroke:#181818;stroke-width:1.0;"/><line style="stroke:#181818;stroke-width:1.0;" x1="2498.5234" x2="2830.4395" y1="616.3203" y2="616.3203"/><text fill="#000000" font-family="sans-serif" font-size="20" lengthAdjust="spacing" textLength="308.916" x="2505.5234" y="610.1016">log information about the event</text><polygon fill="#181818" points="800.6807,649.875,790.6807,653.875,800.6807,657.875,796.6807,653.875" style="stroke:#181818;stroke-width:1.0;"/><line style="stroke:#181818;stroke-width:1.0;stroke-dasharray:2.0,2.0;" x1="794.6807" x2="1323.1006" y1="653.875" y2="653.875"/><text fill="#000000" font-family="sans-serif" font-size="20" lengthAdjust="spacing" textLength="235.2441" x="806.6807" y="647.6563">return success response</text><polygon fill="#181818" points="55.626,687.4297,45.626,691.4297,55.626,695.4297,51.626,691.4297" style="stroke:#181818;stroke-width:1.0;"/><line style="stroke:#181818;stroke-width:1.0;stroke-dasharray:2.0,2.0;" x1="49.626" x2="783.6807" y1="691.4297" y2="691.4297"/><text fill="#000000" font-family="sans-serif" font-size="20" lengthAdjust="spacing" textLength="232.6465" x="61.626" y="685.2109">shows success message</text><!--SRC=[ZLDDRzim3BtxL_2O0WqmxEX3WM7ejiE03al_W6hHjX1RyaGwMVRhHrl-KXeLkGYYnFVuHF7HqTXEUTKshZYY1esbwXl-vYmVp3-4pvyoLR3py4MtncQIogOmdR8CBnrwnSRPrqk7NmNWNTEW1qMmHcd40Vt953YaJzjqxc_i71cHSHdIroYD6FAYWm-aUrIC-lc4SYEmSNDV-WzbzVJaRHo1Vxgg2YbXbmqDDIVXc7gwX9kkPUCLx9ysXxbm784TAAt1uXdSB0juUF7k-_DhFbn6SX-opTViXN1ape7GQeBI-JPDcP11_LjhE63FXkjROZIoCWt1xjVBGLHvh0pn1yAUvY6ucGixgrfybAi_lV4ofiIgB1z1zo7dOMtYF4lPF5z27N7bK8m_EAgEgnWhl5R02riyGd7sFXRDlRSflgsOTNf5IOt54KnvtJtLY4Hz0VmhdQ1LpcRoDvQ8X5p_WqC2wpXG9OMGEbq_ziu20r9d6czft5OR_R7qFkcezQqX3AwC1E1u58YYoW7nhkXaoXpgSNDtxTdCaTE5DDWuXyPLyiE32q8xr9lh6RZ6eF2Tifbl5NZbgsc6g2yA99AGEcS9jqJBT2TCNRipBGIjBAgAy2liFm00]--></g></svg>