<svg xmlns="http://www.w3.org/2000/svg" xmlns:xlink="http://www.w3.org/1999/xlink" contentStyleType="text/css" height="722px" preserveAspectRatio="none" style="width:1919px;height:722px;background:#FFFFFF;" version="1.1" viewBox="0 0 1919 722" width="1919px" zoomAndPan="magnify"><defs/><g><rect fill="#FFFFFF" height="526.7656" style="stroke:#181818;stroke-width:1.0;" width="10" x="34.626" y="98.5547"/><rect fill="#FFFFFF" height="517.7656" style="stroke:#181818;stroke-width:1.0;" width="10" x="499.1436" y="98.5547"/><rect fill="#FFFFFF" height="337.9922" style="stroke:#181818;stroke-width:1.0;" width="10" x="922.8994" y="240.7734"/><rect fill="#FFFFFF" height="112.6641" style="stroke:#181818;stroke-width:1.0;" width="10" x="1314.5654" y="278.3281"/><rect fill="#FFFFFF" height="37.5547" style="stroke:#181818;stroke-width:1.0;" width="10" x="1416.1973" y="428.5469"/><rect fill="#FFFFFF" height="37.5547" style="stroke:#181818;stroke-width:1.0;" width="10" x="1530.3486" y="503.6563"/><line style="stroke:#181818;stroke-width:0.5;stroke-dasharray:5.0,5.0;" x1="39" x2="39" y1="88.5547" y2="634.3203"/><line style="stroke:#181818;stroke-width:0.5;stroke-dasharray:5.0,5.0;" x1="503.457" x2="503.457" y1="88.5547" y2="634.3203"/><line style="stroke:#181818;stroke-width:0.5;stroke-dasharray:5.0,5.0;" x1="927.0908" x2="927.0908" y1="88.5547" y2="634.3203"/><line style="stroke:#181818;stroke-width:0.5;stroke-dasharray:5.0,5.0;" x1="1319.0469" x2="1319.0469" y1="88.5547" y2="634.3203"/><line style="stroke:#181818;stroke-width:0.5;stroke-dasharray:5.0,5.0;" x1="1421.084" x2="1421.084" y1="88.5547" y2="634.3203"/><line style="stroke:#181818;stroke-width:0.5;stroke-dasharray:5.0,5.0;" x1="1535.3105" x2="1535.3105" y1="88.5547" y2="634.3203"/><line style="stroke:#181818;stroke-width:0.5;stroke-dasharray:5.0,5.0;" x1="1872.6563" x2="1872.6563" y1="88.5547" y2="634.3203"/><text fill="#000000" font-family="sans-serif" font-size="20" lengthAdjust="spacing" textLength="63.252" x="5" y="84.3359">Admin</text><ellipse cx="39.626" cy="13.5" fill="#E2E2F0" rx="8" ry="8" style="stroke:#181818;stroke-width:0.5;"/><path d="M39.626,21.5 L39.626,48.5 M26.626,29.5 L52.626,29.5 M39.626,48.5 L26.626,63.5 M39.626,48.5 L52.626,63.5 " fill="none" style="stroke:#181818;stroke-width:0.5;"/><text fill="#000000" font-family="sans-serif" font-size="20" lengthAdjust="spacing" textLength="63.252" x="5" y="652.6563">Admin</text><ellipse cx="39.626" cy="665.375" fill="#E2E2F0" rx="8" ry="8" style="stroke:#181818;stroke-width:0.5;"/><path d="M39.626,673.375 L39.626,700.375 M26.626,681.375 L52.626,681.375 M39.626,700.375 L26.626,715.375 M39.626,700.375 L52.626,715.375 " fill="none" style="stroke:#181818;stroke-width:0.5;"/><rect fill="#E2E2F0" height="37.5547" rx="2.5" ry="2.5" style="stroke:#181818;stroke-width:0.5;" width="111.373" x="448.457" y="50"/><text fill="#000000" font-family="sans-serif" font-size="20" lengthAdjust="spacing" textLength="97.373" x="455.457" y="76.3359">Controller</text><rect fill="#E2E2F0" height="37.5547" rx="2.5" ry="2.5" style="stroke:#181818;stroke-width:0.5;" width="111.373" x="448.457" y="633.3203"/><text fill="#000000" font-family="sans-serif" font-size="20" lengthAdjust="spacing" textLength="97.373" x="455.457" y="659.6563">Controller</text><rect fill="#E2E2F0" height="37.5547" rx="2.5" ry="2.5" style="stroke:#181818;stroke-width:0.5;" width="81.6172" x="887.0908" y="50"/><text fill="#000000" font-family="sans-serif" font-size="20" lengthAdjust="spacing" textLength="67.6172" x="894.0908" y="76.3359">Service</text><rect fill="#E2E2F0" height="37.5547" rx="2.5" ry="2.5" style="stroke:#181818;stroke-width:0.5;" width="81.6172" x="887.0908" y="633.3203"/><text fill="#000000" font-family="sans-serif" font-size="20" lengthAdjust="spacing" textLength="67.6172" x="894.0908" y="659.6563">Service</text><rect fill="#E2E2F0" height="37.5547" rx="2.5" ry="2.5" style="stroke:#181818;stroke-width:0.5;" width="117.0371" x="1261.0469" y="50"/><text fill="#000000" font-family="sans-serif" font-size="20" lengthAdjust="spacing" textLength="103.0371" x="1268.0469" y="76.3359">Repository</text><rect fill="#E2E2F0" height="37.5547" rx="2.5" ry="2.5" style="stroke:#181818;stroke-width:0.5;" width="117.0371" x="1261.0469" y="633.3203"/><text fill="#000000" font-family="sans-serif" font-size="20" lengthAdjust="spacing" textLength="103.0371" x="1268.0469" y="659.6563">Repository</text><rect fill="#E2E2F0" height="37.5547" rx="2.5" ry="2.5" style="stroke:#181818;stroke-width:0.5;" width="66.2266" x="1388.084" y="50"/><text fill="#000000" font-family="sans-serif" font-size="20" lengthAdjust="spacing" textLength="52.2266" x="1395.084" y="76.3359">Event</text><rect fill="#E2E2F0" height="37.5547" rx="2.5" ry="2.5" style="stroke:#181818;stroke-width:0.5;" width="66.2266" x="1388.084" y="633.3203"/><text fill="#000000" font-family="sans-serif" font-size="20" lengthAdjust="spacing" textLength="52.2266" x="1395.084" y="659.6563">Event</text><rect fill="#E2E2F0" height="37.5547" rx="2.5" ry="2.5" style="stroke:#181818;stroke-width:0.5;" width="142.0762" x="1464.3105" y="50"/><text fill="#000000" font-family="sans-serif" font-size="20" lengthAdjust="spacing" textLength="128.0762" x="1471.3105" y="76.3359">EventHandler</text><rect fill="#E2E2F0" height="37.5547" rx="2.5" ry="2.5" style="stroke:#181818;stroke-width:0.5;" width="142.0762" x="1464.3105" y="633.3203"/><text fill="#000000" font-family="sans-serif" font-size="20" lengthAdjust="spacing" textLength="128.0762" x="1471.3105" y="659.6563">EventHandler</text><rect fill="#E2E2F0" height="37.5547" rx="2.5" ry="2.5" style="stroke:#181818;stroke-width:0.5;" width="81.2168" x="1832.6563" y="50"/><text fill="#000000" font-family="sans-serif" font-size="20" lengthAdjust="spacing" textLength="67.2168" x="1839.6563" y="76.3359">Logger</text><rect fill="#E2E2F0" height="37.5547" rx="2.5" ry="2.5" style="stroke:#181818;stroke-width:0.5;" width="81.2168" x="1832.6563" y="633.3203"/><text fill="#000000" font-family="sans-serif" font-size="20" lengthAdjust="spacing" textLength="67.2168" x="1839.6563" y="659.6563">Logger</text><rect fill="#FFFFFF" height="526.7656" style="stroke:#181818;stroke-width:1.0;" width="10" x="34.626" y="98.5547"/><rect fill="#FFFFFF" height="517.7656" style="stroke:#181818;stroke-width:1.0;" width="10" x="499.1436" y="98.5547"/><rect fill="#FFFFFF" height="337.9922" style="stroke:#181818;stroke-width:1.0;" width="10" x="922.8994" y="240.7734"/><rect fill="#FFFFFF" height="112.6641" style="stroke:#181818;stroke-width:1.0;" width="10" x="1314.5654" y="278.3281"/><rect fill="#FFFFFF" height="37.5547" style="stroke:#181818;stroke-width:1.0;" width="10" x="1416.1973" y="428.5469"/><rect fill="#FFFFFF" height="37.5547" style="stroke:#181818;stroke-width:1.0;" width="10" x="1530.3486" y="503.6563"/><polygon fill="#181818" points="487.1436,124.1094,497.1436,128.1094,487.1436,132.1094,491.1436,128.1094" style="stroke:#181818;stroke-width:1.0;"/><line style="stroke:#181818;stroke-width:1.0;" x1="44.626" x2="493.1436" y1="128.1094" y2="128.1094"/><text fill="#000000" font-family="sans-serif" font-size="20" lengthAdjust="spacing" textLength="294.3848" x="51.626" y="121.8906">ask to add new operation type</text><polygon fill="#181818" points="55.626,161.6641,45.626,165.6641,55.626,169.6641,51.626,165.6641" style="stroke:#181818;stroke-width:1.0;"/><line style="stroke:#181818;stroke-width:1.0;stroke-dasharray:2.0,2.0;" x1="49.626" x2="498.1436" y1="165.6641" y2="165.6641"/><text fill="#000000" font-family="sans-serif" font-size="20" lengthAdjust="spacing" textLength="374.7754" x="61.626" y="159.4453">shows form to add new operation type</text><polygon fill="#181818" points="487.1436,199.2188,497.1436,203.2188,487.1436,207.2188,491.1436,203.2188" style="stroke:#181818;stroke-width:1.0;"/><line style="stroke:#181818;stroke-width:1.0;" x1="44.626" x2="493.1436" y1="203.2188" y2="203.2188"/><text fill="#000000" font-family="sans-serif" font-size="20" lengthAdjust="spacing" textLength="430.5176" x="51.626" y="197">submit form with new operation type details</text><polygon fill="#181818" points="910.8994,236.7734,920.8994,240.7734,910.8994,244.7734,914.8994,240.7734" style="stroke:#181818;stroke-width:1.0;"/><line style="stroke:#181818;stroke-width:1.0;" x1="509.1436" x2="916.8994" y1="240.7734" y2="240.7734"/><text fill="#000000" font-family="sans-serif" font-size="20" lengthAdjust="spacing" textLength="394.7559" x="516.1436" y="234.5547">validate and process operation type data</text><polygon fill="#181818" points="1302.5654,274.3281,1312.5654,278.3281,1302.5654,282.3281,1306.5654,278.3281" style="stroke:#181818;stroke-width:1.0;"/><line style="stroke:#181818;stroke-width:1.0;" x1="932.8994" x2="1308.5654" y1="278.3281" y2="278.3281"/><text fill="#000000" font-family="sans-serif" font-size="20" lengthAdjust="spacing" textLength="362.666" x="939.8994" y="272.1094">check if operation type already exists</text><polygon fill="#181818" points="943.8994,311.8828,933.8994,315.8828,943.8994,319.8828,939.8994,315.8828" style="stroke:#181818;stroke-width:1.0;"/><line style="stroke:#181818;stroke-width:1.0;stroke-dasharray:2.0,2.0;" x1="937.8994" x2="1313.5654" y1="315.8828" y2="315.8828"/><text fill="#000000" font-family="sans-serif" font-size="20" lengthAdjust="spacing" textLength="285.4297" x="949.8994" y="309.6641">operation type does not exist</text><polygon fill="#181818" points="1302.5654,349.4375,1312.5654,353.4375,1302.5654,357.4375,1306.5654,353.4375" style="stroke:#181818;stroke-width:1.0;"/><line style="stroke:#181818;stroke-width:1.0;" x1="932.8994" x2="1308.5654" y1="353.4375" y2="353.4375"/><text fill="#000000" font-family="sans-serif" font-size="20" lengthAdjust="spacing" textLength="235.5469" x="939.8994" y="347.2188">save new operation type</text><polygon fill="#181818" points="943.8994,386.9922,933.8994,390.9922,943.8994,394.9922,939.8994,390.9922" style="stroke:#181818;stroke-width:1.0;"/><line style="stroke:#181818;stroke-width:1.0;stroke-dasharray:2.0,2.0;" x1="937.8994" x2="1318.5654" y1="390.9922" y2="390.9922"/><text fill="#000000" font-family="sans-serif" font-size="20" lengthAdjust="spacing" textLength="202.8418" x="949.8994" y="384.7734">operation type saved</text><polygon fill="#181818" points="1404.1973,424.5469,1414.1973,428.5469,1404.1973,432.5469,1408.1973,428.5469" style="stroke:#181818;stroke-width:1.0;"/><line style="stroke:#181818;stroke-width:1.0;" x1="932.8994" x2="1410.1973" y1="428.5469" y2="428.5469"/><text fill="#000000" font-family="sans-serif" font-size="20" lengthAdjust="spacing" textLength="336.4941" x="939.8994" y="422.3281">create OperationTypeCreatedEvent</text><polygon fill="#181818" points="943.8994,462.1016,933.8994,466.1016,943.8994,470.1016,939.8994,466.1016" style="stroke:#181818;stroke-width:1.0;"/><line style="stroke:#181818;stroke-width:1.0;stroke-dasharray:2.0,2.0;" x1="937.8994" x2="1420.1973" y1="466.1016" y2="466.1016"/><text fill="#000000" font-family="sans-serif" font-size="20" lengthAdjust="spacing" textLength="130.6836" x="949.8994" y="459.8828">event created</text><polygon fill="#181818" points="1518.3486,499.6563,1528.3486,503.6563,1518.3486,507.6563,1522.3486,503.6563" style="stroke:#181818;stroke-width:1.0;"/><line style="stroke:#181818;stroke-width:1.0;" x1="932.8994" x2="1524.3486" y1="503.6563" y2="503.6563"/><text fill="#000000" font-family="sans-serif" font-size="20" lengthAdjust="spacing" textLength="342.6367" x="939.8994" y="497.4375">handle OperationTypeCreatedEvent</text><polygon fill="#181818" points="1861.2646,537.2109,1871.2646,541.2109,1861.2646,545.2109,1865.2646,541.2109" style="stroke:#181818;stroke-width:1.0;"/><line style="stroke:#181818;stroke-width:1.0;" x1="1535.3486" x2="1867.2646" y1="541.2109" y2="541.2109"/><text fill="#000000" font-family="sans-serif" font-size="20" lengthAdjust="spacing" textLength="308.916" x="1542.3486" y="534.9922">log information about the event</text><polygon fill="#181818" points="520.1436,574.7656,510.1436,578.7656,520.1436,582.7656,516.1436,578.7656" style="stroke:#181818;stroke-width:1.0;"/><line style="stroke:#181818;stroke-width:1.0;stroke-dasharray:2.0,2.0;" x1="514.1436" x2="926.8994" y1="578.7656" y2="578.7656"/><text fill="#000000" font-family="sans-serif" font-size="20" lengthAdjust="spacing" textLength="235.2441" x="526.1436" y="572.5469">return success response</text><polygon fill="#181818" points="55.626,612.3203,45.626,616.3203,55.626,620.3203,51.626,616.3203" style="stroke:#181818;stroke-width:1.0;"/><line style="stroke:#181818;stroke-width:1.0;stroke-dasharray:2.0,2.0;" x1="49.626" x2="503.1436" y1="616.3203" y2="616.3203"/><text fill="#000000" font-family="sans-serif" font-size="20" lengthAdjust="spacing" textLength="232.6465" x="61.626" y="610.1016">shows success message</text><!--SRC=[ZLF1JiCm3BttA_m3an377f0G0d50GcByWDTuQxGshXAtOtmzRhEkoJOGbyXExETd-oNihUlGOzjmjIS3XhROD_B2JjRsc-3-hi1AsCEZQQqhD5HiPJjq0ayQuxbfo0E6nCk2rkG7Mz4OSJApvm_gE5Z5FuuHYvS5FG-afxvFnlNJApfpOf7wMU0RxtOn95h5s9OTKEZKsTbD6Ycc9rWz99UbOkn16D0OS7G0xiYZM7OWnuwAP2ehJPmGIWWr7m9isRT_fDuk5_fDQoNc7gpKDp9rQuAs2LdnXtdW9GpOM3FsfeE1pdD58Ln1eE0oX7bNnRm_XLksKq9LKxK7kxr4mSOJcYFGbmqI5hnaiydALod9IpvC0HnBXFgLIC21RitodrN6T5COkaKqBJdfIjlMxZJeVGRvL8odwSv4RPvneXkLcn6WwIe2PPLZnbNHavXBg2VZtxNdJv3z40MDyY-XuHrODwegZWCtt0j8JP7X5RCPRo5ueLDFqdkdSgqcUNaA7Rj0AT1PLNzzaXcWrGDtMVwIzWC0]--></g></svg>