<svg xmlns="http://www.w3.org/2000/svg" xmlns:xlink="http://www.w3.org/1999/xlink" contentStyleType="text/css" height="459px" preserveAspectRatio="none" style="width:678px;height:459px;background:#FFFFFF;" version="1.1" viewBox="0 0 678 459" width="678px" zoomAndPan="magnify"><defs/><g><rect fill="#FFFFFF" height="254.8828" style="stroke:#181818;stroke-width:1.0;" width="10" x="36.1982" y="98.5547"/><rect fill="#FFFFFF" height="225.3281" style="stroke:#181818;stroke-width:1.0;" width="10" x="346.4385" y="128.1094"/><rect fill="#FFFFFF" height="37.5547" style="stroke:#181818;stroke-width:1.0;" width="10" x="599.6963" y="165.6641"/><rect fill="#FFFFFF" height="37.5547" style="stroke:#181818;stroke-width:1.0;" width="10" x="599.6963" y="278.3281"/><line style="stroke:#181818;stroke-width:0.5;stroke-dasharray:5.0,5.0;" x1="41" x2="41" y1="88.5547" y2="371.4375"/><line style="stroke:#181818;stroke-width:0.5;stroke-dasharray:5.0,5.0;" x1="351.126" x2="351.126" y1="88.5547" y2="371.4375"/><line style="stroke:#181818;stroke-width:0.5;stroke-dasharray:5.0,5.0;" x1="604.5635" x2="604.5635" y1="88.5547" y2="371.4375"/><text fill="#000000" font-family="sans-serif" font-size="20" lengthAdjust="spacing" textLength="66.3965" x="5" y="84.3359">Patient</text><ellipse cx="41.1982" cy="13.5" fill="#E2E2F0" rx="8" ry="8" style="stroke:#181818;stroke-width:0.5;"/><path d="M41.1982,21.5 L41.1982,48.5 M28.1982,29.5 L54.1982,29.5 M41.1982,48.5 L28.1982,63.5 M41.1982,48.5 L54.1982,63.5 " fill="none" style="stroke:#181818;stroke-width:0.5;"/><text fill="#000000" font-family="sans-serif" font-size="20" lengthAdjust="spacing" textLength="66.3965" x="5" y="389.7734">Patient</text><ellipse cx="41.1982" cy="402.4922" fill="#E2E2F0" rx="8" ry="8" style="stroke:#181818;stroke-width:0.5;"/><path d="M41.1982,410.4922 L41.1982,437.4922 M28.1982,418.4922 L54.1982,418.4922 M41.1982,437.4922 L28.1982,452.4922 M41.1982,437.4922 L54.1982,452.4922 " fill="none" style="stroke:#181818;stroke-width:0.5;"/><rect fill="#E2E2F0" height="37.5547" rx="2.5" ry="2.5" style="stroke:#181818;stroke-width:0.5;" width="94.625" x="304.126" y="50"/><text fill="#000000" font-family="sans-serif" font-size="20" lengthAdjust="spacing" textLength="80.625" x="311.126" y="76.3359">Backend</text><rect fill="#E2E2F0" height="37.5547" rx="2.5" ry="2.5" style="stroke:#181818;stroke-width:0.5;" width="94.625" x="304.126" y="370.4375"/><text fill="#000000" font-family="sans-serif" font-size="20" lengthAdjust="spacing" textLength="80.625" x="311.126" y="396.7734">Backend</text><rect fill="#E2E2F0" height="37.5547" rx="2.5" ry="2.5" style="stroke:#181818;stroke-width:0.5;" width="136.2656" x="536.5635" y="50"/><text fill="#000000" font-family="sans-serif" font-size="20" lengthAdjust="spacing" textLength="122.2656" x="543.5635" y="76.3359">External IAM</text><rect fill="#E2E2F0" height="37.5547" rx="2.5" ry="2.5" style="stroke:#181818;stroke-width:0.5;" width="136.2656" x="536.5635" y="370.4375"/><text fill="#000000" font-family="sans-serif" font-size="20" lengthAdjust="spacing" textLength="122.2656" x="543.5635" y="396.7734">External IAM</text><rect fill="#FFFFFF" height="254.8828" style="stroke:#181818;stroke-width:1.0;" width="10" x="36.1982" y="98.5547"/><rect fill="#FFFFFF" height="225.3281" style="stroke:#181818;stroke-width:1.0;" width="10" x="346.4385" y="128.1094"/><rect fill="#FFFFFF" height="37.5547" style="stroke:#181818;stroke-width:1.0;" width="10" x="599.6963" y="165.6641"/><rect fill="#FFFFFF" height="37.5547" style="stroke:#181818;stroke-width:1.0;" width="10" x="599.6963" y="278.3281"/><polygon fill="#181818" points="334.4385,124.1094,344.4385,128.1094,334.4385,132.1094,338.4385,128.1094" style="stroke:#181818;stroke-width:1.0;"/><line style="stroke:#181818;stroke-width:1.0;" x1="46.1982" x2="340.4385" y1="128.1094" y2="128.1094"/><text fill="#000000" font-family="sans-serif" font-size="20" lengthAdjust="spacing" textLength="185.6738" x="53.1982" y="121.8906">initiate registration</text><polygon fill="#181818" points="587.6963,161.6641,597.6963,165.6641,587.6963,169.6641,591.6963,165.6641" style="stroke:#181818;stroke-width:1.0;"/><line style="stroke:#181818;stroke-width:1.0;" x1="356.4385" x2="593.6963" y1="165.6641" y2="165.6641"/><text fill="#000000" font-family="sans-serif" font-size="20" lengthAdjust="spacing" textLength="148.8379" x="363.4385" y="159.4453">register patient</text><polygon fill="#181818" points="367.4385,199.2188,357.4385,203.2188,367.4385,207.2188,363.4385,203.2188" style="stroke:#181818;stroke-width:1.0;"/><line style="stroke:#181818;stroke-width:1.0;stroke-dasharray:2.0,2.0;" x1="361.4385" x2="603.6963" y1="203.2188" y2="203.2188"/><text fill="#000000" font-family="sans-serif" font-size="20" lengthAdjust="spacing" textLength="219.2578" x="373.4385" y="197">send verification email</text><polygon fill="#181818" points="57.1982,236.7734,47.1982,240.7734,57.1982,244.7734,53.1982,240.7734" style="stroke:#181818;stroke-width:1.0;"/><line style="stroke:#181818;stroke-width:1.0;stroke-dasharray:2.0,2.0;" x1="51.1982" x2="345.4385" y1="240.7734" y2="240.7734"/><text fill="#000000" font-family="sans-serif" font-size="20" lengthAdjust="spacing" textLength="276.2402" x="63.1982" y="234.5547">notify verification email sent</text><polygon fill="#181818" points="587.6963,274.3281,597.6963,278.3281,587.6963,282.3281,591.6963,278.3281" style="stroke:#181818;stroke-width:1.0;"/><line style="stroke:#181818;stroke-width:1.0;" x1="46.1982" x2="593.6963" y1="278.3281" y2="278.3281"/><text fill="#000000" font-family="sans-serif" font-size="20" lengthAdjust="spacing" textLength="133.6816" x="53.1982" y="272.1094">confirm email</text><polygon fill="#181818" points="367.4385,311.8828,357.4385,315.8828,367.4385,319.8828,363.4385,315.8828" style="stroke:#181818;stroke-width:1.0;"/><line style="stroke:#181818;stroke-width:1.0;stroke-dasharray:2.0,2.0;" x1="361.4385" x2="603.6963" y1="315.8828" y2="315.8828"/><text fill="#000000" font-family="sans-serif" font-size="20" lengthAdjust="spacing" textLength="157.4121" x="373.4385" y="309.6641">email confirmed</text><polygon fill="#181818" points="52.1982,349.4375,42.1982,353.4375,52.1982,357.4375,48.1982,353.4375" style="stroke:#181818;stroke-width:1.0;"/><line style="stroke:#181818;stroke-width:1.0;stroke-dasharray:2.0,2.0;" x1="46.1982" x2="350.4385" y1="353.4375" y2="353.4375"/><text fill="#000000" font-family="sans-serif" font-size="20" lengthAdjust="spacing" textLength="218.9453" x="58.1982" y="347.2188">registration successful</text><!--SRC=[ZP71YW8n38RlVOhWNP0zpa7O1OKz289F4Dfq2SwaGviPrAUtTJiw0ylYeRI4__l_94rdbXuZTcsmPtBWoEFGwZw8dlX6yB4nQ3L4EA8oYPeiLhRSeoXyOMR4BMghtKKf2hRm_NbO0QPocsB28oezVUeDw-raqm0BAnTHf1zE6hCao0kTuanz53QRDrLE4Vfg_aHATZwmdiUameuKsRDzH01roArnjE1UCHckxJOWGTbV_y2BhPhvN8_UR13FiQiH_pVswrC9SkyrDDyLfC5QIiaFYsccnSrAqpVS0G00]--></g></svg>