<svg xmlns="http://www.w3.org/2000/svg" xmlns:xlink="http://www.w3.org/1999/xlink" contentStyleType="text/css" height="647px" preserveAspectRatio="none" style="width:1316px;height:647px;background:#FFFFFF;" version="1.1" viewBox="0 0 1316 647" width="1316px" zoomAndPan="magnify"><defs/><g><rect fill="#FFFFFF" height="442.6563" style="stroke:#181818;stroke-width:1.0;" width="10" x="36.1982" y="98.5547"/><rect fill="#FFFFFF" height="262.8828" style="stroke:#181818;stroke-width:1.0;" width="10" x="346.4385" y="128.1094"/><rect fill="#FFFFFF" height="37.5547" style="stroke:#181818;stroke-width:1.0;" width="10" x="346.4385" y="503.6563"/><rect fill="#FFFFFF" height="187.7734" style="stroke:#181818;stroke-width:1.0;" width="10" x="599.3838" y="165.6641"/><rect fill="#FFFFFF" height="37.5547" style="stroke:#181818;stroke-width:1.0;" width="10" x="599.3838" y="466.1016"/><rect fill="#FFFFFF" height="37.5547" style="stroke:#181818;stroke-width:1.0;" width="10" x="841.2256" y="203.2188"/><rect fill="#FFFFFF" height="37.5547" style="stroke:#181818;stroke-width:1.0;" width="10" x="1140.9434" y="278.3281"/><rect fill="#FFFFFF" height="37.5547" style="stroke:#181818;stroke-width:1.0;" width="10" x="1140.9434" y="428.5469"/><line style="stroke:#181818;stroke-width:0.5;stroke-dasharray:5.0,5.0;" x1="41" x2="41" y1="88.5547" y2="559.2109"/><line style="stroke:#181818;stroke-width:0.5;stroke-dasharray:5.0,5.0;" x1="350.7002" x2="350.7002" y1="88.5547" y2="559.2109"/><line style="stroke:#181818;stroke-width:0.5;stroke-dasharray:5.0,5.0;" x1="604.2471" x2="604.2471" y1="88.5547" y2="559.2109"/><line style="stroke:#181818;stroke-width:0.5;stroke-dasharray:5.0,5.0;" x1="845.8369" x2="845.8369" y1="88.5547" y2="559.2109"/><line style="stroke:#181818;stroke-width:0.5;stroke-dasharray:5.0,5.0;" x1="1145.6143" x2="1145.6143" y1="88.5547" y2="559.2109"/><text fill="#000000" font-family="sans-serif" font-size="20" lengthAdjust="spacing" textLength="66.3965" x="5" y="84.3359">Patient</text><ellipse cx="41.1982" cy="13.5" fill="#E2E2F0" rx="8" ry="8" style="stroke:#181818;stroke-width:0.5;"/><path d="M41.1982,21.5 L41.1982,48.5 M28.1982,29.5 L54.1982,29.5 M41.1982,48.5 L28.1982,63.5 M41.1982,48.5 L54.1982,63.5 " fill="none" style="stroke:#181818;stroke-width:0.5;"/><text fill="#000000" font-family="sans-serif" font-size="20" lengthAdjust="spacing" textLength="66.3965" x="5" y="577.5469">Patient</text><ellipse cx="41.1982" cy="590.2656" fill="#E2E2F0" rx="8" ry="8" style="stroke:#181818;stroke-width:0.5;"/><path d="M41.1982,598.2656 L41.1982,625.2656 M28.1982,606.2656 L54.1982,606.2656 M41.1982,625.2656 L28.1982,640.2656 M41.1982,625.2656 L54.1982,640.2656 " fill="none" style="stroke:#181818;stroke-width:0.5;"/><rect fill="#E2E2F0" height="37.5547" rx="2.5" ry="2.5" style="stroke:#181818;stroke-width:0.5;" width="157.4766" x="272.7002" y="50"/><text fill="#000000" font-family="sans-serif" font-size="20" lengthAdjust="spacing" textLength="143.4766" x="279.7002" y="76.3359">AuthController</text><rect fill="#E2E2F0" height="37.5547" rx="2.5" ry="2.5" style="stroke:#181818;stroke-width:0.5;" width="157.4766" x="272.7002" y="558.2109"/><text fill="#000000" font-family="sans-serif" font-size="20" lengthAdjust="spacing" textLength="143.4766" x="279.7002" y="584.5469">AuthController</text><rect fill="#E2E2F0" height="37.5547" rx="2.5" ry="2.5" style="stroke:#181818;stroke-width:0.5;" width="204.2734" x="502.2471" y="50"/><text fill="#000000" font-family="sans-serif" font-size="20" lengthAdjust="spacing" textLength="190.2734" x="509.2471" y="76.3359">CognitoAuthService</text><rect fill="#E2E2F0" height="37.5547" rx="2.5" ry="2.5" style="stroke:#181818;stroke-width:0.5;" width="204.2734" x="502.2471" y="558.2109"/><text fill="#000000" font-family="sans-serif" font-size="20" lengthAdjust="spacing" textLength="190.2734" x="509.2471" y="584.5469">CognitoAuthService</text><rect fill="#E2E2F0" height="37.5547" rx="2.5" ry="2.5" style="stroke:#181818;stroke-width:0.5;" width="250.7773" x="720.8369" y="50"/><text fill="#000000" font-family="sans-serif" font-size="20" lengthAdjust="spacing" textLength="236.7773" x="727.8369" y="76.3359">IPatientProfileRepository</text><rect fill="#E2E2F0" height="37.5547" rx="2.5" ry="2.5" style="stroke:#181818;stroke-width:0.5;" width="250.7773" x="720.8369" y="558.2109"/><text fill="#000000" font-family="sans-serif" font-size="20" lengthAdjust="spacing" textLength="236.7773" x="727.8369" y="584.5469">IPatientProfileRepository</text><rect fill="#E2E2F0" height="37.5547" rx="2.5" ry="2.5" style="stroke:#181818;stroke-width:0.5;" width="328.6582" x="981.6143" y="50"/><text fill="#000000" font-family="sans-serif" font-size="20" lengthAdjust="spacing" textLength="314.6582" x="988.6143" y="76.3359">IAmazonCognitoIdentityProvider</text><rect fill="#E2E2F0" height="37.5547" rx="2.5" ry="2.5" style="stroke:#181818;stroke-width:0.5;" width="328.6582" x="981.6143" y="558.2109"/><text fill="#000000" font-family="sans-serif" font-size="20" lengthAdjust="spacing" textLength="314.6582" x="988.6143" y="584.5469">IAmazonCognitoIdentityProvider</text><rect fill="#FFFFFF" height="442.6563" style="stroke:#181818;stroke-width:1.0;" width="10" x="36.1982" y="98.5547"/><rect fill="#FFFFFF" height="262.8828" style="stroke:#181818;stroke-width:1.0;" width="10" x="346.4385" y="128.1094"/><rect fill="#FFFFFF" height="37.5547" style="stroke:#181818;stroke-width:1.0;" width="10" x="346.4385" y="503.6563"/><rect fill="#FFFFFF" height="187.7734" style="stroke:#181818;stroke-width:1.0;" width="10" x="599.3838" y="165.6641"/><rect fill="#FFFFFF" height="37.5547" style="stroke:#181818;stroke-width:1.0;" width="10" x="599.3838" y="466.1016"/><rect fill="#FFFFFF" height="37.5547" style="stroke:#181818;stroke-width:1.0;" width="10" x="841.2256" y="203.2188"/><rect fill="#FFFFFF" height="37.5547" style="stroke:#181818;stroke-width:1.0;" width="10" x="1140.9434" y="278.3281"/><rect fill="#FFFFFF" height="37.5547" style="stroke:#181818;stroke-width:1.0;" width="10" x="1140.9434" y="428.5469"/><polygon fill="#181818" points="334.4385,124.1094,344.4385,128.1094,334.4385,132.1094,338.4385,128.1094" style="stroke:#181818;stroke-width:1.0;"/><line style="stroke:#181818;stroke-width:1.0;" x1="46.1982" x2="340.4385" y1="128.1094" y2="128.1094"/><text fill="#000000" font-family="sans-serif" font-size="20" lengthAdjust="spacing" textLength="185.6738" x="53.1982" y="121.8906">initiate registration</text><polygon fill="#181818" points="587.3838,161.6641,597.3838,165.6641,587.3838,169.6641,591.3838,165.6641" style="stroke:#181818;stroke-width:1.0;"/><line style="stroke:#181818;stroke-width:1.0;" x1="356.4385" x2="593.3838" y1="165.6641" y2="165.6641"/><text fill="#000000" font-family="sans-serif" font-size="20" lengthAdjust="spacing" textLength="146.4453" x="363.4385" y="159.4453">sign up patient</text><polygon fill="#181818" points="829.2256,199.2188,839.2256,203.2188,829.2256,207.2188,833.2256,203.2188" style="stroke:#181818;stroke-width:1.0;"/><line style="stroke:#181818;stroke-width:1.0;" x1="609.3838" x2="835.2256" y1="203.2188" y2="203.2188"/><text fill="#000000" font-family="sans-serif" font-size="20" lengthAdjust="spacing" textLength="212.8418" x="616.3838" y="197">check if patient exists</text><polygon fill="#181818" points="620.3838,236.7734,610.3838,240.7734,620.3838,244.7734,616.3838,240.7734" style="stroke:#181818;stroke-width:1.0;"/><line style="stroke:#181818;stroke-width:1.0;stroke-dasharray:2.0,2.0;" x1="614.3838" x2="845.2256" y1="240.7734" y2="240.7734"/><text fill="#000000" font-family="sans-serif" font-size="20" lengthAdjust="spacing" textLength="131.3184" x="626.3838" y="234.5547">patient exists</text><polygon fill="#181818" points="1128.9434,274.3281,1138.9434,278.3281,1128.9434,282.3281,1132.9434,278.3281" style="stroke:#181818;stroke-width:1.0;"/><line style="stroke:#181818;stroke-width:1.0;" x1="609.3838" x2="1134.9434" y1="278.3281" y2="278.3281"/><text fill="#000000" font-family="sans-serif" font-size="20" lengthAdjust="spacing" textLength="148.8379" x="616.3838" y="272.1094">register patient</text><polygon fill="#181818" points="620.3838,311.8828,610.3838,315.8828,620.3838,319.8828,616.3838,315.8828" style="stroke:#181818;stroke-width:1.0;"/><line style="stroke:#181818;stroke-width:1.0;stroke-dasharray:2.0,2.0;" x1="614.3838" x2="1144.9434" y1="315.8828" y2="315.8828"/><text fill="#000000" font-family="sans-serif" font-size="20" lengthAdjust="spacing" textLength="219.2578" x="626.3838" y="309.6641">send verification email</text><polygon fill="#181818" points="367.4385,349.4375,357.4385,353.4375,367.4385,357.4375,363.4385,353.4375" style="stroke:#181818;stroke-width:1.0;"/><line style="stroke:#181818;stroke-width:1.0;stroke-dasharray:2.0,2.0;" x1="361.4385" x2="603.3838" y1="353.4375" y2="353.4375"/><text fill="#000000" font-family="sans-serif" font-size="20" lengthAdjust="spacing" textLength="218.9453" x="373.4385" y="347.2188">registration successful</text><polygon fill="#181818" points="57.1982,386.9922,47.1982,390.9922,57.1982,394.9922,53.1982,390.9922" style="stroke:#181818;stroke-width:1.0;"/><line style="stroke:#181818;stroke-width:1.0;stroke-dasharray:2.0,2.0;" x1="51.1982" x2="350.4385" y1="390.9922" y2="390.9922"/><text fill="#000000" font-family="sans-serif" font-size="20" lengthAdjust="spacing" textLength="276.2402" x="63.1982" y="384.7734">notify verification email sent</text><polygon fill="#181818" points="1128.9434,424.5469,1138.9434,428.5469,1128.9434,432.5469,1132.9434,428.5469" style="stroke:#181818;stroke-width:1.0;"/><line style="stroke:#181818;stroke-width:1.0;" x1="46.1982" x2="1134.9434" y1="428.5469" y2="428.5469"/><text fill="#000000" font-family="sans-serif" font-size="20" lengthAdjust="spacing" textLength="133.6816" x="53.1982" y="422.3281">confirm email</text><polygon fill="#181818" points="620.3838,462.1016,610.3838,466.1016,620.3838,470.1016,616.3838,466.1016" style="stroke:#181818;stroke-width:1.0;"/><line style="stroke:#181818;stroke-width:1.0;stroke-dasharray:2.0,2.0;" x1="614.3838" x2="1144.9434" y1="466.1016" y2="466.1016"/><text fill="#000000" font-family="sans-serif" font-size="20" lengthAdjust="spacing" textLength="157.4121" x="626.3838" y="459.8828">email confirmed</text><polygon fill="#181818" points="367.4385,499.6563,357.4385,503.6563,367.4385,507.6563,363.4385,503.6563" style="stroke:#181818;stroke-width:1.0;"/><line style="stroke:#181818;stroke-width:1.0;stroke-dasharray:2.0,2.0;" x1="361.4385" x2="603.3838" y1="503.6563" y2="503.6563"/><text fill="#000000" font-family="sans-serif" font-size="20" lengthAdjust="spacing" textLength="157.4121" x="373.4385" y="497.4375">email confirmed</text><polygon fill="#181818" points="52.1982,537.2109,42.1982,541.2109,52.1982,545.2109,48.1982,541.2109" style="stroke:#181818;stroke-width:1.0;"/><line style="stroke:#181818;stroke-width:1.0;stroke-dasharray:2.0,2.0;" x1="46.1982" x2="350.4385" y1="541.2109" y2="541.2109"/><text fill="#000000" font-family="sans-serif" font-size="20" lengthAdjust="spacing" textLength="218.9453" x="58.1982" y="534.9922">registration successful</text><!--SRC=[ZLFDYi8m4BxtAUO5X6MFFIo8iE1XGTOd2Cb41zka9DEYFlqc6ksqYkwXb9JlPxvlqdWWrwcWsiRh0nemQ5NVyBTtlAKpmkT7fJJx01l5X8wh16RIr2d7iEnvlqh8u9i60wW8usa2NFcT8_OPlyKmaCOC5iS9UbsyDi5RQl0NEnyJEvmoQJnDESjMdRqhHckJwCIdf32GkOwsNlvKEGiDYl4UfxnXyILchu6I2cLSm1r53WdbtSWMCIjHG18HcMg8j7FGTz0LipjV9gzaAqbX35Y3tgC-0DcR0k0nJHD78T66g6an7sH6D_XCO3v8Agmk-LEsXmovp_GycaLq1WOCP4bVUWDi5JNIzRABYTsiVraxn5vhZD7s4ur9Xt89IQfijGRdcUpfoJHvIfPoSgNYKbnAqDvP2ct9yRw1gqDXeNb8_Zp3oq9UI4v4tbvHsSu_MXOoukljx_a3]--></g></svg>