<svg xmlns="http://www.w3.org/2000/svg" xmlns:xlink="http://www.w3.org/1999/xlink" contentStyleType="text/css" height="797px" preserveAspectRatio="none" style="width:2205px;height:797px;background:#FFFFFF;" version="1.1" viewBox="0 0 2205 797" width="2205px" zoomAndPan="magnify"><defs/><g><rect fill="#FFFFFF" height="592.875" style="stroke:#181818;stroke-width:1.0;" width="10" x="34.626" y="98.5547"/><rect fill="#FFFFFF" height="592.875" style="stroke:#181818;stroke-width:1.0;" width="10" x="732.3271" y="98.5547"/><rect fill="#FFFFFF" height="112.6641" style="stroke:#181818;stroke-width:1.0;" width="10" x="1314.7744" y="165.6641"/><rect fill="#FFFFFF" height="262.8828" style="stroke:#181818;stroke-width:1.0;" width="10" x="1314.7744" y="390.9922"/><rect fill="#FFFFFF" height="37.5547" style="stroke:#181818;stroke-width:1.0;" width="10" x="1897.2607" y="203.2188"/><rect fill="#FFFFFF" height="187.7734" style="stroke:#181818;stroke-width:1.0;" width="10" x="1897.2607" y="428.5469"/><rect fill="#FFFFFF" height="196.7734" style="stroke:#181818;stroke-width:1.0;" width="10" x="2116.0605" y="503.6563"/><line style="stroke:#181818;stroke-width:0.5;stroke-dasharray:5.0,5.0;" x1="39" x2="39" y1="88.5547" y2="709.4297"/><line style="stroke:#181818;stroke-width:0.5;stroke-dasharray:5.0,5.0;" x1="737" x2="737" y1="88.5547" y2="709.4297"/><line style="stroke:#181818;stroke-width:0.5;stroke-dasharray:5.0,5.0;" x1="1319.3252" x2="1319.3252" y1="88.5547" y2="709.4297"/><line style="stroke:#181818;stroke-width:0.5;stroke-dasharray:5.0,5.0;" x1="1902.1016" x2="1902.1016" y1="88.5547" y2="709.4297"/><line style="stroke:#181818;stroke-width:0.5;stroke-dasharray:5.0,5.0;" x1="2120.4199" x2="2120.4199" y1="88.5547" y2="709.4297"/><text fill="#000000" font-family="sans-serif" font-size="20" lengthAdjust="spacing" textLength="63.252" x="5" y="84.3359">Admin</text><ellipse cx="39.626" cy="13.5" fill="#E2E2F0" rx="8" ry="8" style="stroke:#181818;stroke-width:0.5;"/><path d="M39.626,21.5 L39.626,48.5 M26.626,29.5 L52.626,29.5 M39.626,48.5 L26.626,63.5 M39.626,48.5 L52.626,63.5 " fill="none" style="stroke:#181818;stroke-width:0.5;"/><text fill="#000000" font-family="sans-serif" font-size="20" lengthAdjust="spacing" textLength="63.252" x="5" y="727.7656">Admin</text><ellipse cx="39.626" cy="740.4844" fill="#E2E2F0" rx="8" ry="8" style="stroke:#181818;stroke-width:0.5;"/><path d="M39.626,748.4844 L39.626,775.4844 M26.626,756.4844 L52.626,756.4844 M39.626,775.4844 L26.626,790.4844 M39.626,775.4844 L52.626,790.4844 " fill="none" style="stroke:#181818;stroke-width:0.5;"/><rect fill="#E2E2F0" height="37.5547" rx="2.5" ry="2.5" style="stroke:#181818;stroke-width:0.5;" width="254.6543" x="610" y="50"/><text fill="#000000" font-family="sans-serif" font-size="20" lengthAdjust="spacing" textLength="240.6543" x="617" y="76.3359">OperationTypeController</text><rect fill="#E2E2F0" height="37.5547" rx="2.5" ry="2.5" style="stroke:#181818;stroke-width:0.5;" width="254.6543" x="610" y="708.4297"/><text fill="#000000" font-family="sans-serif" font-size="20" lengthAdjust="spacing" textLength="240.6543" x="617" y="734.7656">OperationTypeController</text><rect fill="#E2E2F0" height="37.5547" rx="2.5" ry="2.5" style="stroke:#181818;stroke-width:0.5;" width="224.8984" x="1207.3252" y="50"/><text fill="#000000" font-family="sans-serif" font-size="20" lengthAdjust="spacing" textLength="210.8984" x="1214.3252" y="76.3359">OperationTypeService</text><rect fill="#E2E2F0" height="37.5547" rx="2.5" ry="2.5" style="stroke:#181818;stroke-width:0.5;" width="224.8984" x="1207.3252" y="708.4297"/><text fill="#000000" font-family="sans-serif" font-size="20" lengthAdjust="spacing" textLength="210.8984" x="1214.3252" y="734.7656">OperationTypeService</text><rect fill="#E2E2F0" height="37.5547" rx="2.5" ry="2.5" style="stroke:#181818;stroke-width:0.5;" width="260.3184" x="1772.1016" y="50"/><text fill="#000000" font-family="sans-serif" font-size="20" lengthAdjust="spacing" textLength="246.3184" x="1779.1016" y="76.3359">OperationTypeRepository</text><rect fill="#E2E2F0" height="37.5547" rx="2.5" ry="2.5" style="stroke:#181818;stroke-width:0.5;" width="260.3184" x="1772.1016" y="708.4297"/><text fill="#000000" font-family="sans-serif" font-size="20" lengthAdjust="spacing" textLength="246.3184" x="1779.1016" y="734.7656">OperationTypeRepository</text><rect fill="#E2E2F0" height="37.5547" rx="2.5" ry="2.5" style="stroke:#181818;stroke-width:0.5;" width="157.2813" x="2042.4199" y="50"/><text fill="#000000" font-family="sans-serif" font-size="20" lengthAdjust="spacing" textLength="143.2813" x="2049.4199" y="76.3359">OperationType</text><rect fill="#E2E2F0" height="37.5547" rx="2.5" ry="2.5" style="stroke:#181818;stroke-width:0.5;" width="157.2813" x="2042.4199" y="708.4297"/><text fill="#000000" font-family="sans-serif" font-size="20" lengthAdjust="spacing" textLength="143.2813" x="2049.4199" y="734.7656">OperationType</text><rect fill="#FFFFFF" height="592.875" style="stroke:#181818;stroke-width:1.0;" width="10" x="34.626" y="98.5547"/><rect fill="#FFFFFF" height="592.875" style="stroke:#181818;stroke-width:1.0;" width="10" x="732.3271" y="98.5547"/><rect fill="#FFFFFF" height="112.6641" style="stroke:#181818;stroke-width:1.0;" width="10" x="1314.7744" y="165.6641"/><rect fill="#FFFFFF" height="262.8828" style="stroke:#181818;stroke-width:1.0;" width="10" x="1314.7744" y="390.9922"/><rect fill="#FFFFFF" height="37.5547" style="stroke:#181818;stroke-width:1.0;" width="10" x="1897.2607" y="203.2188"/><rect fill="#FFFFFF" height="187.7734" style="stroke:#181818;stroke-width:1.0;" width="10" x="1897.2607" y="428.5469"/><rect fill="#FFFFFF" height="196.7734" style="stroke:#181818;stroke-width:1.0;" width="10" x="2116.0605" y="503.6563"/><polygon fill="#181818" points="720.3271,124.1094,730.3271,128.1094,720.3271,132.1094,724.3271,128.1094" style="stroke:#181818;stroke-width:1.0;"/><line style="stroke:#181818;stroke-width:1.0;" x1="44.626" x2="726.3271" y1="128.1094" y2="128.1094"/><text fill="#000000" font-family="sans-serif" font-size="20" lengthAdjust="spacing" textLength="583.9258" x="51.626" y="121.8906">ask to edit existing operation type (GET: editOperationType)</text><polygon fill="#181818" points="1302.7744,161.6641,1312.7744,165.6641,1302.7744,169.6641,1306.7744,165.6641" style="stroke:#181818;stroke-width:1.0;"/><line style="stroke:#181818;stroke-width:1.0;" x1="742.3271" x2="1308.7744" y1="165.6641" y2="165.6641"/><text fill="#000000" font-family="sans-serif" font-size="20" lengthAdjust="spacing" textLength="392.3926" x="749.3271" y="159.4453">getOperationTypeById (operationTypeId)</text><polygon fill="#181818" points="1885.2607,199.2188,1895.2607,203.2188,1885.2607,207.2188,1889.2607,203.2188" style="stroke:#181818;stroke-width:1.0;"/><line style="stroke:#181818;stroke-width:1.0;" x1="1324.7744" x2="1891.2607" y1="203.2188" y2="203.2188"/><text fill="#000000" font-family="sans-serif" font-size="20" lengthAdjust="spacing" textLength="392.3926" x="1331.7744" y="197">getOperationTypeById (operationTypeId)</text><polygon fill="#181818" points="1335.7744,236.7734,1325.7744,240.7734,1335.7744,244.7734,1331.7744,240.7734" style="stroke:#181818;stroke-width:1.0;"/><line style="stroke:#181818;stroke-width:1.0;stroke-dasharray:2.0,2.0;" x1="1329.7744" x2="1901.2607" y1="240.7734" y2="240.7734"/><text fill="#000000" font-family="sans-serif" font-size="20" lengthAdjust="spacing" textLength="294.375" x="1341.7744" y="234.5547">return operation type instance</text><polygon fill="#181818" points="753.3271,274.3281,743.3271,278.3281,753.3271,282.3281,749.3271,278.3281" style="stroke:#181818;stroke-width:1.0;"/><line style="stroke:#181818;stroke-width:1.0;stroke-dasharray:2.0,2.0;" x1="747.3271" x2="1318.7744" y1="278.3281" y2="278.3281"/><text fill="#000000" font-family="sans-serif" font-size="20" lengthAdjust="spacing" textLength="294.375" x="759.3271" y="272.1094">return operation type instance</text><polygon fill="#181818" points="55.626,311.8828,45.626,315.8828,55.626,319.8828,51.626,315.8828" style="stroke:#181818;stroke-width:1.0;"/><line style="stroke:#181818;stroke-width:1.0;stroke-dasharray:2.0,2.0;" x1="49.626" x2="731.3271" y1="315.8828" y2="315.8828"/><text fill="#000000" font-family="sans-serif" font-size="20" lengthAdjust="spacing" textLength="499.5801" x="61.626" y="309.6641">show operation type details and ask for new details</text><polygon fill="#181818" points="720.3271,349.4375,730.3271,353.4375,720.3271,357.4375,724.3271,353.4375" style="stroke:#181818;stroke-width:1.0;"/><line style="stroke:#181818;stroke-width:1.0;" x1="44.626" x2="726.3271" y1="353.4375" y2="353.4375"/><text fill="#000000" font-family="sans-serif" font-size="20" lengthAdjust="spacing" textLength="663.7012" x="51.626" y="347.2188">submit updated operation type details (POST: updateOperationType)</text><polygon fill="#181818" points="1302.7744,386.9922,1312.7744,390.9922,1302.7744,394.9922,1306.7744,390.9922" style="stroke:#181818;stroke-width:1.0;"/><line style="stroke:#181818;stroke-width:1.0;" x1="742.3271" x2="1308.7744" y1="390.9922" y2="390.9922"/><text fill="#000000" font-family="sans-serif" font-size="20" lengthAdjust="spacing" textLength="553.4473" x="749.3271" y="384.7734">updateOperationType (id, name, required staff, duration)</text><polygon fill="#181818" points="1885.2607,424.5469,1895.2607,428.5469,1885.2607,432.5469,1889.2607,428.5469" style="stroke:#181818;stroke-width:1.0;"/><line style="stroke:#181818;stroke-width:1.0;" x1="1324.7744" x2="1891.2607" y1="428.5469" y2="428.5469"/><text fill="#000000" font-family="sans-serif" font-size="20" lengthAdjust="spacing" textLength="553.4863" x="1331.7744" y="422.3281">check if operation type already exists (excluding current)</text><polygon fill="#181818" points="1335.7744,462.1016,1325.7744,466.1016,1335.7744,470.1016,1331.7744,466.1016" style="stroke:#181818;stroke-width:1.0;"/><line style="stroke:#181818;stroke-width:1.0;stroke-dasharray:2.0,2.0;" x1="1329.7744" x2="1896.2607" y1="466.1016" y2="466.1016"/><text fill="#000000" font-family="sans-serif" font-size="20" lengthAdjust="spacing" textLength="285.4297" x="1341.7744" y="459.8828">operation type does not exist</text><polygon fill="#181818" points="2104.0605,499.6563,2114.0605,503.6563,2104.0605,507.6563,2108.0605,503.6563" style="stroke:#181818;stroke-width:1.0;"/><line style="stroke:#181818;stroke-width:1.0;" x1="1324.7744" x2="2110.0605" y1="503.6563" y2="503.6563"/><text fill="#000000" font-family="sans-serif" font-size="20" lengthAdjust="spacing" textLength="317.3438" x="1331.7744" y="497.4375">update instance with new details</text><polygon fill="#181818" points="1335.7744,537.2109,1325.7744,541.2109,1335.7744,545.2109,1331.7744,541.2109" style="stroke:#181818;stroke-width:1.0;"/><line style="stroke:#181818;stroke-width:1.0;stroke-dasharray:2.0,2.0;" x1="1329.7744" x2="2115.0605" y1="541.2109" y2="541.2109"/><text fill="#000000" font-family="sans-serif" font-size="20" lengthAdjust="spacing" textLength="233.0273" x="1341.7744" y="534.9922">return updated instance</text><polygon fill="#181818" points="1885.2607,574.7656,1895.2607,578.7656,1885.2607,582.7656,1889.2607,578.7656" style="stroke:#181818;stroke-width:1.0;"/><line style="stroke:#181818;stroke-width:1.0;" x1="1324.7744" x2="1891.2607" y1="578.7656" y2="578.7656"/><text fill="#000000" font-family="sans-serif" font-size="20" lengthAdjust="spacing" textLength="276.4258" x="1331.7744" y="572.5469">save updated operation type</text><polygon fill="#181818" points="1335.7744,612.3203,1325.7744,616.3203,1335.7744,620.3203,1331.7744,616.3203" style="stroke:#181818;stroke-width:1.0;"/><line style="stroke:#181818;stroke-width:1.0;stroke-dasharray:2.0,2.0;" x1="1329.7744" x2="1901.2607" y1="616.3203" y2="616.3203"/><text fill="#000000" font-family="sans-serif" font-size="20" lengthAdjust="spacing" textLength="289.0137" x="1341.7744" y="610.1016">updated operation type saved</text><polygon fill="#181818" points="753.3271,649.875,743.3271,653.875,753.3271,657.875,749.3271,653.875" style="stroke:#181818;stroke-width:1.0;"/><line style="stroke:#181818;stroke-width:1.0;stroke-dasharray:2.0,2.0;" x1="747.3271" x2="1318.7744" y1="653.875" y2="653.875"/><text fill="#000000" font-family="sans-serif" font-size="20" lengthAdjust="spacing" textLength="235.2441" x="759.3271" y="647.6563">return success response</text><polygon fill="#181818" points="50.626,687.4297,40.626,691.4297,50.626,695.4297,46.626,691.4297" style="stroke:#181818;stroke-width:1.0;"/><line style="stroke:#181818;stroke-width:1.0;stroke-dasharray:2.0,2.0;" x1="44.626" x2="736.3271" y1="691.4297" y2="691.4297"/><text fill="#000000" font-family="sans-serif" font-size="20" lengthAdjust="spacing" textLength="222.4512" x="56.626" y="685.2109">show success message</text><!--SRC=[dLJBJiCm4BpdA_POf28XZZqW0GBK4uZo0yRUjAicTl2ZfNmzcxH9xAYMA9SetiwEPsSsTLlIZR2YhepSeWA5fGYLVpRQh-W7uVQc4D8R2_Ug9bqmr9EaHcWFhmrQuSdeZqE3ZznWJLMX1U5WFEKxLcXt9B65drxps7TiZ2EMSMZXuodVqUAIGj7EGJlXyJJAS8p45jrFS7qN5HTCjGLl01Lvm6zodlGQJ4yElhrkzlBqiUWWoQrNHMGCqvucNS0QK-33OQbWPkBIKbsD8dkBYjus9Xjzk9mlyZ0ozpgMQD47gwU3adPUQ5QYy1pPg6zYuj_PXb5ZwvYjosO1RcFsKng5Nb3bG6ZLfLNomchSz_LChYvyrXnfQ1HVgtASixVN5KTxHFqjt3DOc96QWnOrpjcAhq2MR-JPot8EAXnn5yGjDoYtGELKjAWi2dKuhYbhnszP1TNkgmpMelQNhS3K4eCEj3bz1OcuPDZUWI5Us9FV98aCAjAFDFNit3hsQGsRaxF8YHrciitEcrc5bahzS-5Ta1ATuwDhZ7ONRthVN_D3h9Fsw8yhgdRDlm00]--></g></svg>