<svg xmlns="http://www.w3.org/2000/svg" xmlns:xlink="http://www.w3.org/1999/xlink" contentStyleType="text/css" height="722px" preserveAspectRatio="none" style="width:1272px;height:722px;background:#FFFFFF;" version="1.1" viewBox="0 0 1272 722" width="1272px" zoomAndPan="magnify"><defs/><g><rect fill="#FFFFFF" height="517.7656" style="stroke:#181818;stroke-width:1.0;" width="10" x="34.626" y="98.5547"/><rect fill="#FFFFFF" height="517.7656" style="stroke:#181818;stroke-width:1.0;" width="10" x="403.4307" y="98.5547"/><rect fill="#FFFFFF" height="150.2188" style="stroke:#181818;stroke-width:1.0;" width="10" x="793.2803" y="128.1094"/><rect fill="#FFFFFF" height="225.3281" style="stroke:#181818;stroke-width:1.0;" width="10" x="793.2803" y="353.4375"/><rect fill="#FFFFFF" height="75.1094" style="stroke:#181818;stroke-width:1.0;" width="10" x="1131.0791" y="165.6641"/><rect fill="#FFFFFF" height="150.2188" style="stroke:#181818;stroke-width:1.0;" width="10" x="1131.0791" y="390.9922"/><line style="stroke:#181818;stroke-width:0.5;stroke-dasharray:5.0,5.0;" x1="39" x2="39" y1="88.5547" y2="634.3203"/><line style="stroke:#181818;stroke-width:0.5;stroke-dasharray:5.0,5.0;" x1="408.1035" x2="408.1035" y1="88.5547" y2="634.3203"/><line style="stroke:#181818;stroke-width:0.5;stroke-dasharray:5.0,5.0;" x1="797.8311" x2="797.8311" y1="88.5547" y2="634.3203"/><line style="stroke:#181818;stroke-width:0.5;stroke-dasharray:5.0,5.0;" x1="1135.9199" x2="1135.9199" y1="88.5547" y2="634.3203"/><text fill="#000000" font-family="sans-serif" font-size="20" lengthAdjust="spacing" textLength="63.252" x="5" y="84.3359">Admin</text><ellipse cx="39.626" cy="13.5" fill="#E2E2F0" rx="8" ry="8" style="stroke:#181818;stroke-width:0.5;"/><path d="M39.626,21.5 L39.626,48.5 M26.626,29.5 L52.626,29.5 M39.626,48.5 L26.626,63.5 M39.626,48.5 L52.626,63.5 " fill="none" style="stroke:#181818;stroke-width:0.5;"/><text fill="#000000" font-family="sans-serif" font-size="20" lengthAdjust="spacing" textLength="63.252" x="5" y="652.6563">Admin</text><ellipse cx="39.626" cy="665.375" fill="#E2E2F0" rx="8" ry="8" style="stroke:#181818;stroke-width:0.5;"/><path d="M39.626,673.375 L39.626,700.375 M26.626,681.375 L52.626,681.375 M39.626,700.375 L26.626,715.375 M39.626,700.375 L52.626,715.375 " fill="none" style="stroke:#181818;stroke-width:0.5;"/><rect fill="#E2E2F0" height="37.5547" rx="2.5" ry="2.5" style="stroke:#181818;stroke-width:0.5;" width="254.6543" x="281.1035" y="50"/><text fill="#000000" font-family="sans-serif" font-size="20" lengthAdjust="spacing" textLength="240.6543" x="288.1035" y="76.3359">OperationTypeController</text><rect fill="#E2E2F0" height="37.5547" rx="2.5" ry="2.5" style="stroke:#181818;stroke-width:0.5;" width="254.6543" x="281.1035" y="633.3203"/><text fill="#000000" font-family="sans-serif" font-size="20" lengthAdjust="spacing" textLength="240.6543" x="288.1035" y="659.6563">OperationTypeController</text><rect fill="#E2E2F0" height="37.5547" rx="2.5" ry="2.5" style="stroke:#181818;stroke-width:0.5;" width="224.8984" x="685.8311" y="50"/><text fill="#000000" font-family="sans-serif" font-size="20" lengthAdjust="spacing" textLength="210.8984" x="692.8311" y="76.3359">OperationTypeService</text><rect fill="#E2E2F0" height="37.5547" rx="2.5" ry="2.5" style="stroke:#181818;stroke-width:0.5;" width="224.8984" x="685.8311" y="633.3203"/><text fill="#000000" font-family="sans-serif" font-size="20" lengthAdjust="spacing" textLength="210.8984" x="692.8311" y="659.6563">OperationTypeService</text><rect fill="#E2E2F0" height="37.5547" rx="2.5" ry="2.5" style="stroke:#181818;stroke-width:0.5;" width="260.3184" x="1005.9199" y="50"/><text fill="#000000" font-family="sans-serif" font-size="20" lengthAdjust="spacing" textLength="246.3184" x="1012.9199" y="76.3359">OperationTypeRepository</text><rect fill="#E2E2F0" height="37.5547" rx="2.5" ry="2.5" style="stroke:#181818;stroke-width:0.5;" width="260.3184" x="1005.9199" y="633.3203"/><text fill="#000000" font-family="sans-serif" font-size="20" lengthAdjust="spacing" textLength="246.3184" x="1012.9199" y="659.6563">OperationTypeRepository</text><rect fill="#FFFFFF" height="517.7656" style="stroke:#181818;stroke-width:1.0;" width="10" x="34.626" y="98.5547"/><rect fill="#FFFFFF" height="517.7656" style="stroke:#181818;stroke-width:1.0;" width="10" x="403.4307" y="98.5547"/><rect fill="#FFFFFF" height="150.2188" style="stroke:#181818;stroke-width:1.0;" width="10" x="793.2803" y="128.1094"/><rect fill="#FFFFFF" height="225.3281" style="stroke:#181818;stroke-width:1.0;" width="10" x="793.2803" y="353.4375"/><rect fill="#FFFFFF" height="75.1094" style="stroke:#181818;stroke-width:1.0;" width="10" x="1131.0791" y="165.6641"/><rect fill="#FFFFFF" height="150.2188" style="stroke:#181818;stroke-width:1.0;" width="10" x="1131.0791" y="390.9922"/><polygon fill="#181818" points="391.4307,124.1094,401.4307,128.1094,391.4307,132.1094,395.4307,128.1094" style="stroke:#181818;stroke-width:1.0;"/><line style="stroke:#181818;stroke-width:1.0;" x1="44.626" x2="397.4307" y1="128.1094" y2="128.1094"/><text fill="#000000" font-family="sans-serif" font-size="20" lengthAdjust="spacing" textLength="294.541" x="51.626" y="121.8906">Request to edit operation type</text><polygon fill="#181818" points="781.2803,161.6641,791.2803,165.6641,781.2803,169.6641,785.2803,165.6641" style="stroke:#181818;stroke-width:1.0;"/><line style="stroke:#181818;stroke-width:1.0;" x1="413.4307" x2="787.2803" y1="165.6641" y2="165.6641"/><text fill="#000000" font-family="sans-serif" font-size="20" lengthAdjust="spacing" textLength="271.25" x="420.4307" y="159.4453">Fetch list of operation types</text><polygon fill="#181818" points="1119.0791,199.2188,1129.0791,203.2188,1119.0791,207.2188,1123.0791,203.2188" style="stroke:#181818;stroke-width:1.0;"/><line style="stroke:#181818;stroke-width:1.0;" x1="803.2803" x2="1125.0791" y1="203.2188" y2="203.2188"/><text fill="#000000" font-family="sans-serif" font-size="20" lengthAdjust="spacing" textLength="244.375" x="810.2803" y="197">Query all operation types</text><polygon fill="#181818" points="814.2803,236.7734,804.2803,240.7734,814.2803,244.7734,810.2803,240.7734" style="stroke:#181818;stroke-width:1.0;"/><line style="stroke:#181818;stroke-width:1.0;stroke-dasharray:2.0,2.0;" x1="808.2803" x2="1135.0791" y1="240.7734" y2="240.7734"/><text fill="#000000" font-family="sans-serif" font-size="20" lengthAdjust="spacing" textLength="221.9922" x="820.2803" y="234.5547">Return operation types</text><polygon fill="#181818" points="424.4307,274.3281,414.4307,278.3281,424.4307,282.3281,420.4307,278.3281" style="stroke:#181818;stroke-width:1.0;"/><line style="stroke:#181818;stroke-width:1.0;stroke-dasharray:2.0,2.0;" x1="418.4307" x2="797.2803" y1="278.3281" y2="278.3281"/><text fill="#000000" font-family="sans-serif" font-size="20" lengthAdjust="spacing" textLength="221.9922" x="430.4307" y="272.1094">Return operation types</text><polygon fill="#181818" points="55.626,311.8828,45.626,315.8828,55.626,319.8828,51.626,315.8828" style="stroke:#181818;stroke-width:1.0;"/><line style="stroke:#181818;stroke-width:1.0;stroke-dasharray:2.0,2.0;" x1="49.626" x2="402.4307" y1="315.8828" y2="315.8828"/><text fill="#000000" font-family="sans-serif" font-size="20" lengthAdjust="spacing" textLength="280.3223" x="61.626" y="309.6641">Shows list of operation types</text><polygon fill="#181818" points="391.4307,349.4375,401.4307,353.4375,391.4307,357.4375,395.4307,353.4375" style="stroke:#181818;stroke-width:1.0;"/><line style="stroke:#181818;stroke-width:1.0;" x1="44.626" x2="397.4307" y1="353.4375" y2="353.4375"/><text fill="#000000" font-family="sans-serif" font-size="20" lengthAdjust="spacing" textLength="334.8047" x="51.626" y="347.2188">Select operation type to deactivate</text><polygon fill="#181818" points="781.2803,386.9922,791.2803,390.9922,781.2803,394.9922,785.2803,390.9922" style="stroke:#181818;stroke-width:1.0;"/><line style="stroke:#181818;stroke-width:1.0;" x1="413.4307" x2="787.2803" y1="390.9922" y2="390.9922"/><text fill="#000000" font-family="sans-serif" font-size="20" lengthAdjust="spacing" textLength="355.8496" x="420.4307" y="384.7734">Request to deactivate operation type</text><polygon fill="#181818" points="1119.0791,424.5469,1129.0791,428.5469,1119.0791,432.5469,1123.0791,428.5469" style="stroke:#181818;stroke-width:1.0;"/><line style="stroke:#181818;stroke-width:1.0;" x1="803.2803" x2="1125.0791" y1="428.5469" y2="428.5469"/><text fill="#000000" font-family="sans-serif" font-size="20" lengthAdjust="spacing" textLength="255.957" x="810.2803" y="422.3281">Fetch operation type by ID</text><polygon fill="#181818" points="814.2803,462.1016,804.2803,466.1016,814.2803,470.1016,810.2803,466.1016" style="stroke:#181818;stroke-width:1.0;"/><line style="stroke:#181818;stroke-width:1.0;stroke-dasharray:2.0,2.0;" x1="808.2803" x2="1130.0791" y1="466.1016" y2="466.1016"/><text fill="#000000" font-family="sans-serif" font-size="20" lengthAdjust="spacing" textLength="211.7969" x="820.2803" y="459.8828">Return operation type</text><polygon fill="#181818" points="1119.0791,499.6563,1129.0791,503.6563,1119.0791,507.6563,1123.0791,503.6563" style="stroke:#181818;stroke-width:1.0;"/><line style="stroke:#181818;stroke-width:1.0;" x1="803.2803" x2="1125.0791" y1="503.6563" y2="503.6563"/><text fill="#000000" font-family="sans-serif" font-size="20" lengthAdjust="spacing" textLength="303.7988" x="810.2803" y="497.4375">Mark operation type as inactive</text><polygon fill="#181818" points="814.2803,537.2109,804.2803,541.2109,814.2803,545.2109,810.2803,541.2109" style="stroke:#181818;stroke-width:1.0;"/><line style="stroke:#181818;stroke-width:1.0;stroke-dasharray:2.0,2.0;" x1="808.2803" x2="1135.0791" y1="541.2109" y2="541.2109"/><text fill="#000000" font-family="sans-serif" font-size="20" lengthAdjust="spacing" textLength="202.4902" x="820.2803" y="534.9922">Confirm deactivation</text><polygon fill="#181818" points="424.4307,574.7656,414.4307,578.7656,424.4307,582.7656,420.4307,578.7656" style="stroke:#181818;stroke-width:1.0;"/><line style="stroke:#181818;stroke-width:1.0;stroke-dasharray:2.0,2.0;" x1="418.4307" x2="797.2803" y1="578.7656" y2="578.7656"/><text fill="#000000" font-family="sans-serif" font-size="20" lengthAdjust="spacing" textLength="202.4902" x="430.4307" y="572.5469">Confirm deactivation</text><polygon fill="#181818" points="50.626,612.3203,40.626,616.3203,50.626,620.3203,46.626,616.3203" style="stroke:#181818;stroke-width:1.0;"/><line style="stroke:#181818;stroke-width:1.0;stroke-dasharray:2.0,2.0;" x1="44.626" x2="407.4307" y1="616.3203" y2="616.3203"/><text fill="#000000" font-family="sans-serif" font-size="20" lengthAdjust="spacing" textLength="223.0273" x="56.626" y="610.1016">Show success message</text><!--SRC=[jPJ1JiCm38RlVGg_m2J4iGSa19h40I5QNY2aBhEQ9YLnXyhJatKRgreCwzWkbIhzyUVOdn8gietogZPELrX0WQLg3I-TvPm-4Qwl4gNPURWjQh99Z39fQfHbU6hGAoPdNxe6x-81xun1BsToz6lIA0SoR5oWIEkI3PNMYd47_lwLg4cVWyMDb4WXm_SM0mCxm88Ot3u879C2Oj-qK7K2tELJM2Bh5HYAG5UEM4603GRmKz49x91FuRb5tu4oPi8IZi12x3r3RhsT52hmnBP_tyeirf_xYAnUXHJobVi8uWQE42P7WthioKQVGtFdjcRWw602Hvdw7tcsieuk-jh1m_svx4dcD_MeV3NkIGKWszyVJ-WiRg0aNnz66mENiNeMQQRJ45gjCGIeuqUzeLXty3mE8ji7zGi0]--></g></svg>