<svg xmlns="http://www.w3.org/2000/svg" xmlns:xlink="http://www.w3.org/1999/xlink" contentStyleType="text/css" height="647px" preserveAspectRatio="none" style="width:1497px;height:647px;background:#FFFFFF;" version="1.1" viewBox="0 0 1497 647" width="1497px" zoomAndPan="magnify"><defs/><g><rect fill="#FFFFFF" height="442.6563" style="stroke:#181818;stroke-width:1.0;" width="10" x="36.1982" y="98.5547"/><rect fill="#FFFFFF" height="262.8828" style="stroke:#181818;stroke-width:1.0;" width="10" x="388.3428" y="128.1094"/><rect fill="#FFFFFF" height="37.5547" style="stroke:#181818;stroke-width:1.0;" width="10" x="388.3428" y="503.6563"/><rect fill="#FFFFFF" height="187.7734" style="stroke:#181818;stroke-width:1.0;" width="10" x="681.6592" y="165.6641"/><rect fill="#FFFFFF" height="37.5547" style="stroke:#181818;stroke-width:1.0;" width="10" x="1022.2998" y="203.2188"/><rect fill="#FFFFFF" height="37.5547" style="stroke:#181818;stroke-width:1.0;" width="10" x="1322.0176" y="278.3281"/><rect fill="#FFFFFF" height="37.5547" style="stroke:#181818;stroke-width:1.0;" width="10" x="1322.0176" y="428.5469"/><line style="stroke:#181818;stroke-width:0.5;stroke-dasharray:5.0,5.0;" x1="41" x2="41" y1="88.5547" y2="559.2109"/><line style="stroke:#181818;stroke-width:0.5;stroke-dasharray:5.0,5.0;" x1="392.6045" x2="392.6045" y1="88.5547" y2="559.2109"/><line style="stroke:#181818;stroke-width:0.5;stroke-dasharray:5.0,5.0;" x1="686.5225" x2="686.5225" y1="88.5547" y2="559.2109"/><line style="stroke:#181818;stroke-width:0.5;stroke-dasharray:5.0,5.0;" x1="1026.9111" x2="1026.9111" y1="88.5547" y2="559.2109"/><line style="stroke:#181818;stroke-width:0.5;stroke-dasharray:5.0,5.0;" x1="1326.6885" x2="1326.6885" y1="88.5547" y2="559.2109"/><text fill="#000000" font-family="sans-serif" font-size="20" lengthAdjust="spacing" textLength="66.3965" x="5" y="84.3359">Patient</text><ellipse cx="41.1982" cy="13.5" fill="#E2E2F0" rx="8" ry="8" style="stroke:#181818;stroke-width:0.5;"/><path d="M41.1982,21.5 L41.1982,48.5 M28.1982,29.5 L54.1982,29.5 M41.1982,48.5 L28.1982,63.5 M41.1982,48.5 L54.1982,63.5 " fill="none" style="stroke:#181818;stroke-width:0.5;"/><text fill="#000000" font-family="sans-serif" font-size="20" lengthAdjust="spacing" textLength="66.3965" x="5" y="577.5469">Patient</text><ellipse cx="41.1982" cy="590.2656" fill="#E2E2F0" rx="8" ry="8" style="stroke:#181818;stroke-width:0.5;"/><path d="M41.1982,598.2656 L41.1982,625.2656 M28.1982,606.2656 L54.1982,606.2656 M41.1982,625.2656 L28.1982,640.2656 M41.1982,625.2656 L54.1982,640.2656 " fill="none" style="stroke:#181818;stroke-width:0.5;"/><rect fill="#E2E2F0" height="37.5547" rx="2.5" ry="2.5" style="stroke:#181818;stroke-width:0.5;" width="157.4766" x="314.6045" y="50"/><text fill="#000000" font-family="sans-serif" font-size="20" lengthAdjust="spacing" textLength="143.4766" x="321.6045" y="76.3359">AuthController</text><rect fill="#E2E2F0" height="37.5547" rx="2.5" ry="2.5" style="stroke:#181818;stroke-width:0.5;" width="157.4766" x="314.6045" y="558.2109"/><text fill="#000000" font-family="sans-serif" font-size="20" lengthAdjust="spacing" textLength="143.4766" x="321.6045" y="584.5469">AuthController</text><rect fill="#E2E2F0" height="37.5547" rx="2.5" ry="2.5" style="stroke:#181818;stroke-width:0.5;" width="204.2734" x="584.5225" y="50"/><text fill="#000000" font-family="sans-serif" font-size="20" lengthAdjust="spacing" textLength="190.2734" x="591.5225" y="76.3359">CognitoAuthService</text><rect fill="#E2E2F0" height="37.5547" rx="2.5" ry="2.5" style="stroke:#181818;stroke-width:0.5;" width="204.2734" x="584.5225" y="558.2109"/><text fill="#000000" font-family="sans-serif" font-size="20" lengthAdjust="spacing" textLength="190.2734" x="591.5225" y="584.5469">CognitoAuthService</text><rect fill="#E2E2F0" height="37.5547" rx="2.5" ry="2.5" style="stroke:#181818;stroke-width:0.5;" width="250.7773" x="901.9111" y="50"/><text fill="#000000" font-family="sans-serif" font-size="20" lengthAdjust="spacing" textLength="236.7773" x="908.9111" y="76.3359">IPatientProfileRepository</text><rect fill="#E2E2F0" height="37.5547" rx="2.5" ry="2.5" style="stroke:#181818;stroke-width:0.5;" width="250.7773" x="901.9111" y="558.2109"/><text fill="#000000" font-family="sans-serif" font-size="20" lengthAdjust="spacing" textLength="236.7773" x="908.9111" y="584.5469">IPatientProfileRepository</text><rect fill="#E2E2F0" height="37.5547" rx="2.5" ry="2.5" style="stroke:#181818;stroke-width:0.5;" width="328.6582" x="1162.6885" y="50"/><text fill="#000000" font-family="sans-serif" font-size="20" lengthAdjust="spacing" textLength="314.6582" x="1169.6885" y="76.3359">IAmazonCognitoIdentityProvider</text><rect fill="#E2E2F0" height="37.5547" rx="2.5" ry="2.5" style="stroke:#181818;stroke-width:0.5;" width="328.6582" x="1162.6885" y="558.2109"/><text fill="#000000" font-family="sans-serif" font-size="20" lengthAdjust="spacing" textLength="314.6582" x="1169.6885" y="584.5469">IAmazonCognitoIdentityProvider</text><rect fill="#FFFFFF" height="442.6563" style="stroke:#181818;stroke-width:1.0;" width="10" x="36.1982" y="98.5547"/><rect fill="#FFFFFF" height="262.8828" style="stroke:#181818;stroke-width:1.0;" width="10" x="388.3428" y="128.1094"/><rect fill="#FFFFFF" height="37.5547" style="stroke:#181818;stroke-width:1.0;" width="10" x="388.3428" y="503.6563"/><rect fill="#FFFFFF" height="187.7734" style="stroke:#181818;stroke-width:1.0;" width="10" x="681.6592" y="165.6641"/><rect fill="#FFFFFF" height="37.5547" style="stroke:#181818;stroke-width:1.0;" width="10" x="1022.2998" y="203.2188"/><rect fill="#FFFFFF" height="37.5547" style="stroke:#181818;stroke-width:1.0;" width="10" x="1322.0176" y="278.3281"/><rect fill="#FFFFFF" height="37.5547" style="stroke:#181818;stroke-width:1.0;" width="10" x="1322.0176" y="428.5469"/><polygon fill="#181818" points="376.3428,124.1094,386.3428,128.1094,376.3428,132.1094,380.3428,128.1094" style="stroke:#181818;stroke-width:1.0;"/><line style="stroke:#181818;stroke-width:1.0;" x1="46.1982" x2="382.3428" y1="128.1094" y2="128.1094"/><text fill="#000000" font-family="sans-serif" font-size="20" lengthAdjust="spacing" textLength="323.1445" x="53.1982" y="121.8906">initiateRegistration(signUpModel)</text><polygon fill="#181818" points="669.6592,161.6641,679.6592,165.6641,669.6592,169.6641,673.6592,165.6641" style="stroke:#181818;stroke-width:1.0;"/><line style="stroke:#181818;stroke-width:1.0;" x1="398.3428" x2="675.6592" y1="165.6641" y2="165.6641"/><text fill="#000000" font-family="sans-serif" font-size="20" lengthAdjust="spacing" textLength="264.3164" x="405.3428" y="159.4453">SignUpAsync(signUpModel)</text><polygon fill="#181818" points="1010.2998,199.2188,1020.2998,203.2188,1010.2998,207.2188,1014.2998,203.2188" style="stroke:#181818;stroke-width:1.0;"/><line style="stroke:#181818;stroke-width:1.0;" x1="691.6592" x2="1016.2998" y1="203.2188" y2="203.2188"/><text fill="#000000" font-family="sans-serif" font-size="20" lengthAdjust="spacing" textLength="311.6406" x="698.6592" y="197">ExistsAsync(signUpModel.Email)</text><polygon fill="#181818" points="702.6592,236.7734,692.6592,240.7734,702.6592,244.7734,698.6592,240.7734" style="stroke:#181818;stroke-width:1.0;"/><line style="stroke:#181818;stroke-width:1.0;stroke-dasharray:2.0,2.0;" x1="696.6592" x2="1026.2998" y1="240.7734" y2="240.7734"/><text fill="#000000" font-family="sans-serif" font-size="20" lengthAdjust="spacing" textLength="124.6875" x="708.6592" y="234.5547">patientExists</text><polygon fill="#181818" points="1310.0176,274.3281,1320.0176,278.3281,1310.0176,282.3281,1314.0176,278.3281" style="stroke:#181818;stroke-width:1.0;"/><line style="stroke:#181818;stroke-width:1.0;" x1="691.6592" x2="1316.0176" y1="278.3281" y2="278.3281"/><text fill="#000000" font-family="sans-serif" font-size="20" lengthAdjust="spacing" textLength="264.3164" x="698.6592" y="272.1094">SignUpAsync(signUpModel)</text><polygon fill="#181818" points="702.6592,311.8828,692.6592,315.8828,702.6592,319.8828,698.6592,315.8828" style="stroke:#181818;stroke-width:1.0;"/><line style="stroke:#181818;stroke-width:1.0;stroke-dasharray:2.0,2.0;" x1="696.6592" x2="1326.0176" y1="315.8828" y2="315.8828"/><text fill="#000000" font-family="sans-serif" font-size="20" lengthAdjust="spacing" textLength="209.0234" x="708.6592" y="309.6641">sendVerificationEmail</text><polygon fill="#181818" points="409.3428,349.4375,399.3428,353.4375,409.3428,357.4375,405.3428,353.4375" style="stroke:#181818;stroke-width:1.0;"/><line style="stroke:#181818;stroke-width:1.0;stroke-dasharray:2.0,2.0;" x1="403.3428" x2="685.6592" y1="353.4375" y2="353.4375"/><text fill="#000000" font-family="sans-serif" font-size="20" lengthAdjust="spacing" textLength="213.1934" x="415.3428" y="347.2188">registrationSuccessful</text><polygon fill="#181818" points="57.1982,386.9922,47.1982,390.9922,57.1982,394.9922,53.1982,390.9922" style="stroke:#181818;stroke-width:1.0;"/><line style="stroke:#181818;stroke-width:1.0;stroke-dasharray:2.0,2.0;" x1="51.1982" x2="392.3428" y1="390.9922" y2="390.9922"/><text fill="#000000" font-family="sans-serif" font-size="20" lengthAdjust="spacing" textLength="260.2539" x="63.1982" y="384.7734">notifyVerificationEmailSent</text><polygon fill="#181818" points="1310.0176,424.5469,1320.0176,428.5469,1310.0176,432.5469,1314.0176,428.5469" style="stroke:#181818;stroke-width:1.0;"/><line style="stroke:#181818;stroke-width:1.0;" x1="46.1982" x2="1316.0176" y1="428.5469" y2="428.5469"/><text fill="#000000" font-family="sans-serif" font-size="20" lengthAdjust="spacing" textLength="341.8945" x="53.1982" y="422.3281">confirmEmail(confirmSignUpModel)</text><polygon fill="#181818" points="697.6592,462.1016,687.6592,466.1016,697.6592,470.1016,693.6592,466.1016" style="stroke:#181818;stroke-width:1.0;"/><line style="stroke:#181818;stroke-width:1.0;stroke-dasharray:2.0,2.0;" x1="691.6592" x2="1326.0176" y1="466.1016" y2="466.1016"/><text fill="#000000" font-family="sans-serif" font-size="20" lengthAdjust="spacing" textLength="154.6777" x="703.6592" y="459.8828">emailConfirmed</text><polygon fill="#181818" points="409.3428,499.6563,399.3428,503.6563,409.3428,507.6563,405.3428,503.6563" style="stroke:#181818;stroke-width:1.0;"/><line style="stroke:#181818;stroke-width:1.0;" x1="403.3428" x2="685.6592" y1="503.6563" y2="503.6563"/><text fill="#000000" font-family="sans-serif" font-size="20" lengthAdjust="spacing" textLength="154.6777" x="415.3428" y="497.4375">emailConfirmed</text><polygon fill="#181818" points="52.1982,537.2109,42.1982,541.2109,52.1982,545.2109,48.1982,541.2109" style="stroke:#181818;stroke-width:1.0;"/><line style="stroke:#181818;stroke-width:1.0;stroke-dasharray:2.0,2.0;" x1="46.1982" x2="392.3428" y1="541.2109" y2="541.2109"/><text fill="#000000" font-family="sans-serif" font-size="20" lengthAdjust="spacing" textLength="213.1934" x="58.1982" y="534.9922">registrationSuccessful</text><!--SRC=[bPDFQyCm3CNl-HG-TeUEiMCEWr0wwA5G6hQxiPLEDB63xOIbdtxAdorokgtR8GI7zvwadnn_HbDB9wlIgZDeeQ6GJHcUhGavNa0yFYHI1Ul4GGO44n8I1rHOInD4reIt3IcTBKjmGdendoBXnfuC1jlhSt0jAkZ5x1YfTrEjWxC5bd24sdfokwutpQVOarNoOirKQAV9Zg6ZX1RrsDeksoVzBDZA05_ZJ6-nVcAzfm8f1KbtX1Fwu4XapShZoRpKUwkXl9kJsCW9Wq61RBvKv8CvyvrHFmHn70b7HL7prAdOlbDB_YhfVbj9v7cC54EuNZPMZmJ6r4J3T_vbEyJoBnFroEcvhkd1w5TmMA0Qq0wjyzh3igAYYmKvjfYyKGgyBvee8iB95qD9qzPJOMp0ehjg9U-l1ilYEsOtPi2Wh2dGLODlDHto_-60thiPhQ1_vn1ZM3XlNae- -ss4B8Lz_VnrFW00]--></g></svg>