<svg xmlns="http://www.w3.org/2000/svg" xmlns:xlink="http://www.w3.org/1999/xlink" contentStyleType="text/css" height="770px" preserveAspectRatio="none" style="width:1138px;height:770px;background:#FFFFFF;" version="1.1" viewBox="0 0 1138 770" width="1138px" zoomAndPan="magnify"><defs/><g><!--class OperationType--><g id="elem_OperationType"><rect codeLine="1" fill="#F1F1F1" height="167.7734" id="OperationType" rx="2.5" ry="2.5" style="stroke:#181818;stroke-width:0.5;" width="817.4004" x="63.65" y="596.11"/><ellipse cx="396.2096" cy="613.11" fill="#ADD1B2" rx="12" ry="12" style="stroke:#181818;stroke-width:1.0;"/><path d="M399.0162,620.1901 Q398.3326,620.5416 397.5807,620.7174 Q396.8287,620.8932 395.9986,620.8932 Q393.0494,620.8932 391.4967,618.9498 Q389.9439,617.0065 389.9439,613.3346 Q389.9439,609.653 391.4967,607.7096 Q393.0494,605.7663 395.9986,605.7663 Q396.8287,605.7663 397.5904,605.942 Q398.3521,606.1178 399.0162,606.4694 L399.0162,609.6725 Q398.274,608.9889 397.5758,608.6715 Q396.8775,608.3541 396.1354,608.3541 Q394.5533,608.3541 393.7477,609.609 Q392.942,610.8639 392.942,613.3346 Q392.942,615.7955 393.7477,617.0504 Q394.5533,618.3053 396.1354,618.3053 Q396.8775,618.3053 397.5758,617.9879 Q398.274,617.6705 399.0162,616.987 Z " fill="#000000"/><text fill="#000000" font-family="sans-serif" font-size="20" lengthAdjust="spacing" textLength="143.2813" x="418.2096" y="620.6686">OperationType</text><line style="stroke:#181818;stroke-width:0.5;" x1="64.65" x2="880.0504" y1="630.11" y2="630.11"/><rect fill="none" height="6" style="stroke:#C82930;stroke-width:1.0;" width="6" x="71.65" y="644.3873"/><text fill="#000000" font-family="sans-serif" font-size="20" lengthAdjust="spacing" textLength="72.5293" x="84.65" y="653.4459">Long id</text><rect fill="none" height="6" style="stroke:#C82930;stroke-width:1.0;" width="6" x="71.65" y="667.942"/><text fill="#000000" font-family="sans-serif" font-size="20" lengthAdjust="spacing" textLength="116.6992" x="84.65" y="677.0006">String name</text><rect fill="none" height="6" style="stroke:#C82930;stroke-width:1.0;" width="6" x="71.65" y="691.4967"/><text fill="#000000" font-family="sans-serif" font-size="20" lengthAdjust="spacing" textLength="242.2754" x="84.65" y="700.5553">List&lt;Staff&gt; requiredStaff</text><rect fill="none" height="6" style="stroke:#C82930;stroke-width:1.0;" width="6" x="71.65" y="715.0514"/><text fill="#000000" font-family="sans-serif" font-size="20" lengthAdjust="spacing" textLength="212.1094" x="84.65" y="724.11">int estimatedDuration</text><line style="stroke:#181818;stroke-width:0.5;" x1="64.65" x2="880.0504" y1="732.3288" y2="732.3288"/><ellipse cx="74.65" cy="749.6061" fill="#84BE84" rx="3" ry="3" style="stroke:#038048;stroke-width:1.0;"/><text fill="#000000" font-family="sans-serif" font-size="20" lengthAdjust="spacing" textLength="790.4004" x="84.65" y="755.6647">void updateDetails(String name, List&lt;Staff&gt; requiredStaff, int estimatedDuration)</text></g><!--class OperationTypeController--><g id="elem_OperationTypeController"><rect codeLine="10" fill="#F1F1F1" height="97.1094" id="OperationTypeController" rx="2.5" ry="2.5" style="stroke:#181818;stroke-width:0.5;" width="682.7031" x="131" y="18.78"/><ellipse cx="347.5244" cy="35.78" fill="#ADD1B2" rx="12" ry="12" style="stroke:#181818;stroke-width:1.0;"/><path d="M350.3311,42.8601 Q349.6475,43.2116 348.8955,43.3874 Q348.1436,43.5632 347.3135,43.5632 Q344.3643,43.5632 342.8115,41.6198 Q341.2588,39.6765 341.2588,36.0046 Q341.2588,32.323 342.8115,30.3796 Q344.3643,28.4362 347.3135,28.4362 Q348.1436,28.4362 348.9053,28.612 Q349.667,28.7878 350.3311,29.1394 L350.3311,32.3425 Q349.5889,31.6589 348.8906,31.3415 Q348.1924,31.0241 347.4502,31.0241 Q345.8682,31.0241 345.0625,32.279 Q344.2568,33.5339 344.2568,36.0046 Q344.2568,38.4655 345.0625,39.7204 Q345.8682,40.9753 347.4502,40.9753 Q348.1924,40.9753 348.8906,40.6579 Q349.5889,40.3405 350.3311,39.657 Z " fill="#000000"/><text fill="#000000" font-family="sans-serif" font-size="20" lengthAdjust="spacing" textLength="240.6543" x="369.5244" y="43.3386">OperationTypeController</text><line style="stroke:#181818;stroke-width:0.5;" x1="132" x2="812.7031" y1="52.78" y2="52.78"/><line style="stroke:#181818;stroke-width:0.5;" x1="132" x2="812.7031" y1="60.78" y2="60.78"/><ellipse cx="142" cy="78.0573" fill="#84BE84" rx="3" ry="3" style="stroke:#038048;stroke-width:1.0;"/><text fill="#000000" font-family="sans-serif" font-size="20" lengthAdjust="spacing" textLength="569.7461" x="152" y="84.1159">Response addOperationType(OperationTypeDTO jsonData)</text><ellipse cx="142" cy="101.612" fill="#84BE84" rx="3" ry="3" style="stroke:#038048;stroke-width:1.0;"/><text fill="#000000" font-family="sans-serif" font-size="20" lengthAdjust="spacing" textLength="655.7031" x="152" y="107.6706">Response editOperationType(Long id, OperationTypeDTO jsonData)</text></g><!--class OperationTypeService--><g id="elem_OperationTypeService"><rect codeLine="15" fill="#F1F1F1" height="167.7734" id="OperationTypeService" rx="2.5" ry="2.5" style="stroke:#181818;stroke-width:0.5;" width="930.7012" x="7" y="187.67"/><ellipse cx="362.4014" cy="204.67" fill="#ADD1B2" rx="12" ry="12" style="stroke:#181818;stroke-width:1.0;"/><path d="M365.208,211.7501 Q364.5244,212.1016 363.7725,212.2774 Q363.0205,212.4532 362.1904,212.4532 Q359.2412,212.4532 357.6885,210.5098 Q356.1357,208.5665 356.1357,204.8946 Q356.1357,201.213 357.6885,199.2696 Q359.2412,197.3262 362.1904,197.3262 Q363.0205,197.3262 363.7822,197.502 Q364.5439,197.6778 365.208,198.0294 L365.208,201.2325 Q364.4658,200.5489 363.7676,200.2315 Q363.0693,199.9141 362.3271,199.9141 Q360.7451,199.9141 359.9395,201.169 Q359.1338,202.4239 359.1338,204.8946 Q359.1338,207.3555 359.9395,208.6104 Q360.7451,209.8653 362.3271,209.8653 Q363.0693,209.8653 363.7676,209.5479 Q364.4658,209.2305 365.208,208.547 Z " fill="#000000"/><text fill="#000000" font-family="sans-serif" font-size="20" lengthAdjust="spacing" textLength="210.8984" x="384.4014" y="212.2286">OperationTypeService</text><line style="stroke:#181818;stroke-width:0.5;" x1="8" x2="936.7012" y1="221.67" y2="221.67"/><line style="stroke:#181818;stroke-width:0.5;" x1="8" x2="936.7012" y1="229.67" y2="229.67"/><ellipse cx="18" cy="246.9473" fill="#84BE84" rx="3" ry="3" style="stroke:#038048;stroke-width:1.0;"/><text fill="#000000" font-family="sans-serif" font-size="20" lengthAdjust="spacing" textLength="823.7402" x="28" y="253.0059">OperationType validateAndProcessOperationType(OperationTypeDTO operationData)</text><ellipse cx="18" cy="270.502" fill="#84BE84" rx="3" ry="3" style="stroke:#038048;stroke-width:1.0;"/><text fill="#000000" font-family="sans-serif" font-size="20" lengthAdjust="spacing" textLength="535.9961" x="28" y="276.5606">void saveOperationType(OperationType operationType)</text><ellipse cx="18" cy="294.0567" fill="#84BE84" rx="3" ry="3" style="stroke:#038048;stroke-width:1.0;"/><text fill="#000000" font-family="sans-serif" font-size="20" lengthAdjust="spacing" textLength="655.791" x="28" y="300.1153">boolean checkIfOperationTypeExists(String name, Long excludedId)</text><ellipse cx="18" cy="317.6114" fill="#84BE84" rx="3" ry="3" style="stroke:#038048;stroke-width:1.0;"/><text fill="#000000" font-family="sans-serif" font-size="20" lengthAdjust="spacing" textLength="449.8242" x="28" y="323.67">OperationType getOperationTypeById(Long id)</text><ellipse cx="18" cy="341.1661" fill="#84BE84" rx="3" ry="3" style="stroke:#038048;stroke-width:1.0;"/><text fill="#000000" font-family="sans-serif" font-size="20" lengthAdjust="spacing" textLength="903.7012" x="28" y="347.2247">void updateOperationType(OperationType operationType, OperationTypeDTO operationData)</text></g><!--class OperationTypeRepository--><g id="elem_OperationTypeRepository"><rect codeLine="23" fill="#F1F1F1" height="120.6641" id="OperationTypeRepository" rx="2.5" ry="2.5" style="stroke:#181818;stroke-width:0.5;" width="740.3789" x="314.16" y="415.44"/><ellipse cx="556.6903" cy="432.44" fill="#ADD1B2" rx="12" ry="12" style="stroke:#181818;stroke-width:1.0;"/><path d="M559.4969,439.5201 Q558.8133,439.8716 558.0614,440.0474 Q557.3094,440.2232 556.4793,440.2232 Q553.5301,440.2232 551.9774,438.2798 Q550.4246,436.3365 550.4246,432.6646 Q550.4246,428.983 551.9774,427.0396 Q553.5301,425.0963 556.4793,425.0963 Q557.3094,425.0963 558.0711,425.272 Q558.8329,425.4478 559.4969,425.7994 L559.4969,429.0025 Q558.7547,428.3189 558.0565,428.0015 Q557.3582,427.6841 556.6161,427.6841 Q555.034,427.6841 554.2284,428.939 Q553.4227,430.1939 553.4227,432.6646 Q553.4227,435.1255 554.2284,436.3804 Q555.034,437.6353 556.6161,437.6353 Q557.3582,437.6353 558.0565,437.3179 Q558.7547,437.0005 559.4969,436.317 Z " fill="#000000"/><text fill="#000000" font-family="sans-serif" font-size="20" lengthAdjust="spacing" textLength="246.3184" x="578.6903" y="439.9986">OperationTypeRepository</text><line style="stroke:#181818;stroke-width:0.5;" x1="315.16" x2="1053.5389" y1="449.44" y2="449.44"/><line style="stroke:#181818;stroke-width:0.5;" x1="315.16" x2="1053.5389" y1="457.44" y2="457.44"/><ellipse cx="325.16" cy="474.7173" fill="#84BE84" rx="3" ry="3" style="stroke:#038048;stroke-width:1.0;"/><text fill="#000000" font-family="sans-serif" font-size="20" lengthAdjust="spacing" textLength="713.3789" x="335.16" y="480.7759">OperationType findByNameAndExcludedId(String name, Long excludedId)</text><ellipse cx="325.16" cy="498.272" fill="#84BE84" rx="3" ry="3" style="stroke:#038048;stroke-width:1.0;"/><text fill="#000000" font-family="sans-serif" font-size="20" lengthAdjust="spacing" textLength="313.584" x="335.16" y="504.3306">OperationType findById(Long id)</text><ellipse cx="325.16" cy="521.8267" fill="#84BE84" rx="3" ry="3" style="stroke:#038048;stroke-width:1.0;"/><text fill="#000000" font-family="sans-serif" font-size="20" lengthAdjust="spacing" textLength="392.7148" x="335.16" y="527.8853">void save(OperationType operationType)</text></g><!--class OperationTypeDTO--><g id="elem_OperationTypeDTO"><rect codeLine="29" fill="#F1F1F1" height="120.6641" id="OperationTypeDTO" rx="2.5" ry="2.5" style="stroke:#181818;stroke-width:0.5;" width="282.3711" x="849.17" y="7"/><ellipse cx="893.0366" cy="24" fill="#ADD1B2" rx="12" ry="12" style="stroke:#181818;stroke-width:1.0;"/><path d="M895.8432,31.0801 Q895.1596,31.4316 894.4077,31.6074 Q893.6557,31.7832 892.8257,31.7832 Q889.8764,31.7832 888.3237,29.8398 Q886.771,27.8965 886.771,24.2246 Q886.771,20.543 888.3237,18.5996 Q889.8764,16.6563 892.8257,16.6563 Q893.6557,16.6563 894.4175,16.832 Q895.1792,17.0078 895.8432,17.3594 L895.8432,20.5625 Q895.1011,19.8789 894.4028,19.5615 Q893.7046,19.2441 892.9624,19.2441 Q891.3804,19.2441 890.5747,20.499 Q889.769,21.7539 889.769,24.2246 Q889.769,26.6855 890.5747,27.9404 Q891.3804,29.1953 892.9624,29.1953 Q893.7046,29.1953 894.4028,28.8779 Q895.1011,28.5605 895.8432,27.877 Z " fill="#000000"/><text fill="#000000" font-family="sans-serif" font-size="20" lengthAdjust="spacing" textLength="186.4453" x="914.2292" y="31.5586">OperationTypeDTO</text><line style="stroke:#181818;stroke-width:0.5;" x1="850.17" x2="1130.5411" y1="41" y2="41"/><rect fill="none" height="6" style="stroke:#C82930;stroke-width:1.0;" width="6" x="857.17" y="55.2773"/><text fill="#000000" font-family="sans-serif" font-size="20" lengthAdjust="spacing" textLength="116.6992" x="870.17" y="64.3359">String name</text><rect fill="none" height="6" style="stroke:#C82930;stroke-width:1.0;" width="6" x="857.17" y="78.832"/><text fill="#000000" font-family="sans-serif" font-size="20" lengthAdjust="spacing" textLength="255.3711" x="870.17" y="87.8906">List&lt;String&gt; requiredStaff</text><rect fill="none" height="6" style="stroke:#C82930;stroke-width:1.0;" width="6" x="857.17" y="102.3867"/><text fill="#000000" font-family="sans-serif" font-size="20" lengthAdjust="spacing" textLength="212.1094" x="870.17" y="111.4453">int estimatedDuration</text><line style="stroke:#181818;stroke-width:0.5;" x1="850.17" x2="1130.5411" y1="119.6641" y2="119.6641"/></g><!--link OperationTypeController to OperationTypeService--><g id="link_OperationTypeController_OperationTypeService"><path codeLine="35" d="M472.35,116.26 C472.35,137.52 472.35,157.16 472.35,181.38 " fill="none" id="OperationTypeController-to-OperationTypeService" style="stroke:#181818;stroke-width:1.0;"/><polygon fill="#181818" points="472.35,187.38,476.35,178.38,472.35,182.38,468.35,178.38,472.35,187.38" style="stroke:#181818;stroke-width:1.0;"/></g><!--link OperationTypeService to OperationTypeRepository--><g id="link_OperationTypeService_OperationTypeRepository"><path codeLine="36" d="M559.5,355.68 C580.4,375.62 597.9685,392.3786 617.4885,410.9986 " fill="none" id="OperationTypeService-to-OperationTypeRepository" style="stroke:#181818;stroke-width:1.0;"/><polygon fill="#181818" points="621.83,415.14,618.0786,406.0336,618.212,411.6889,612.5568,411.8223,621.83,415.14" style="stroke:#181818;stroke-width:1.0;"/></g><!--link OperationTypeService to OperationType--><g id="link_OperationTypeService_OperationType"><path codeLine="37" d="M341.26,355.57 C323.08,373.03 307.01,393.06 296.35,415.44 C273.29,463.86 273.29,487.69 296.35,536.11 C307.01,558.49 318.7537,574.3527 336.9337,591.8227 " fill="none" id="OperationTypeService-to-OperationType" style="stroke:#181818;stroke-width:1.0;"/><polygon fill="#181818" points="341.26,595.98,337.5421,586.8598,337.6548,592.5156,331.999,592.6282,341.26,595.98" style="stroke:#181818;stroke-width:1.0;"/></g><!--link OperationTypeRepository to OperationType--><g id="link_OperationTypeRepository_OperationType"><path codeLine="38" d="M621.89,536.35 C602.35,554.99 584.7611,571.7681 563.8411,591.7281 " fill="none" id="OperationTypeRepository-to-OperationType" style="stroke:#181818;stroke-width:1.0;"/><polygon fill="#181818" points="559.5,595.87,568.7729,592.5512,563.1176,592.4184,563.2504,586.7631,559.5,595.87" style="stroke:#181818;stroke-width:1.0;"/></g><!--SRC=[bPFRJi9048Rl-nHpIGCancj38e89YH53UO6rCyMHPRVkRXigyTtj0SJ2Kl6kitFe_D_Cs3MhL1YnaJfU4m9I8ZBf7hLo4NyItDu4iHJMmZmb8nnhjInIWbq0C8GdhLR0M7z7pd1fAR6XniVMtKLE9Ca837raR0Xhi_QoSa3MyKOumadML0vALnzopGXPYgLdGawmjBrVjGUN2m_yLSFWA_1fU2Wb6YqbcLfD7nPaKwqiWK1iHVPQrcGvXtUhrKGu4ROJ2TcrC_U41j1HmjzUH2RdcFQzjUddGdB5vrxXYz4nMVj7l_hmS6owncn5JXsfnxpAQl9UjPOa5CHl5AzdIIj-kYrdSpgkYW1jOvaXuGn3ZvmLjQcDYnaUo8MdEt5rknxc9nZyu1UKQijEcyBBFc65u-Avr5RId_xe-hVefevNQ3MLxa7uEwyaxhgEiNgy_XhBdrmwcE5mvDtMmBl2Pz57n5Sc19ScT1Rv3G00]--></g></svg>