<svg xmlns="http://www.w3.org/2000/svg" xmlns:xlink="http://www.w3.org/1999/xlink" contentStyleType="text/css" height="797px" preserveAspectRatio="none" style="width:1914px;height:797px;background:#FFFFFF;" version="1.1" viewBox="0 0 1914 797" width="1914px" zoomAndPan="magnify"><defs/><g><rect fill="#FFFFFF" height="592.875" style="stroke:#181818;stroke-width:1.0;" width="10" x="34.626" y="98.5547"/><rect fill="#FFFFFF" height="592.875" style="stroke:#181818;stroke-width:1.0;" width="10" x="735.9893" y="98.5547"/><rect fill="#FFFFFF" height="112.6641" style="stroke:#181818;stroke-width:1.0;" width="10" x="1184.2861" y="165.6641"/><rect fill="#FFFFFF" height="262.8828" style="stroke:#181818;stroke-width:1.0;" width="10" x="1184.2861" y="390.9922"/><rect fill="#FFFFFF" height="37.5547" style="stroke:#181818;stroke-width:1.0;" width="10" x="1605.6787" y="203.2188"/><rect fill="#FFFFFF" height="187.7734" style="stroke:#181818;stroke-width:1.0;" width="10" x="1605.6787" y="428.5469"/><rect fill="#FFFFFF" height="196.7734" style="stroke:#181818;stroke-width:1.0;" width="10" x="1824.4785" y="503.6563"/><line style="stroke:#181818;stroke-width:0.5;stroke-dasharray:5.0,5.0;" x1="39" x2="39" y1="88.5547" y2="709.4297"/><line style="stroke:#181818;stroke-width:0.5;stroke-dasharray:5.0,5.0;" x1="740.6621" x2="740.6621" y1="88.5547" y2="709.4297"/><line style="stroke:#181818;stroke-width:0.5;stroke-dasharray:5.0,5.0;" x1="1188.8369" x2="1188.8369" y1="88.5547" y2="709.4297"/><line style="stroke:#181818;stroke-width:0.5;stroke-dasharray:5.0,5.0;" x1="1610.5195" x2="1610.5195" y1="88.5547" y2="709.4297"/><line style="stroke:#181818;stroke-width:0.5;stroke-dasharray:5.0,5.0;" x1="1828.8379" x2="1828.8379" y1="88.5547" y2="709.4297"/><text fill="#000000" font-family="sans-serif" font-size="20" lengthAdjust="spacing" textLength="63.252" x="5" y="84.3359">Admin</text><ellipse cx="39.626" cy="13.5" fill="#E2E2F0" rx="8" ry="8" style="stroke:#181818;stroke-width:0.5;"/><path d="M39.626,21.5 L39.626,48.5 M26.626,29.5 L52.626,29.5 M39.626,48.5 L26.626,63.5 M39.626,48.5 L52.626,63.5 " fill="none" style="stroke:#181818;stroke-width:0.5;"/><text fill="#000000" font-family="sans-serif" font-size="20" lengthAdjust="spacing" textLength="63.252" x="5" y="727.7656">Admin</text><ellipse cx="39.626" cy="740.4844" fill="#E2E2F0" rx="8" ry="8" style="stroke:#181818;stroke-width:0.5;"/><path d="M39.626,748.4844 L39.626,775.4844 M26.626,756.4844 L52.626,756.4844 M39.626,775.4844 L26.626,790.4844 M39.626,775.4844 L52.626,790.4844 " fill="none" style="stroke:#181818;stroke-width:0.5;"/><rect fill="#E2E2F0" height="37.5547" rx="2.5" ry="2.5" style="stroke:#181818;stroke-width:0.5;" width="254.6543" x="613.6621" y="50"/><text fill="#000000" font-family="sans-serif" font-size="20" lengthAdjust="spacing" textLength="240.6543" x="620.6621" y="76.3359">OperationTypeController</text><rect fill="#E2E2F0" height="37.5547" rx="2.5" ry="2.5" style="stroke:#181818;stroke-width:0.5;" width="254.6543" x="613.6621" y="708.4297"/><text fill="#000000" font-family="sans-serif" font-size="20" lengthAdjust="spacing" textLength="240.6543" x="620.6621" y="734.7656">OperationTypeController</text><rect fill="#E2E2F0" height="37.5547" rx="2.5" ry="2.5" style="stroke:#181818;stroke-width:0.5;" width="224.8984" x="1076.8369" y="50"/><text fill="#000000" font-family="sans-serif" font-size="20" lengthAdjust="spacing" textLength="210.8984" x="1083.8369" y="76.3359">OperationTypeService</text><rect fill="#E2E2F0" height="37.5547" rx="2.5" ry="2.5" style="stroke:#181818;stroke-width:0.5;" width="224.8984" x="1076.8369" y="708.4297"/><text fill="#000000" font-family="sans-serif" font-size="20" lengthAdjust="spacing" textLength="210.8984" x="1083.8369" y="734.7656">OperationTypeService</text><rect fill="#E2E2F0" height="37.5547" rx="2.5" ry="2.5" style="stroke:#181818;stroke-width:0.5;" width="260.3184" x="1480.5195" y="50"/><text fill="#000000" font-family="sans-serif" font-size="20" lengthAdjust="spacing" textLength="246.3184" x="1487.5195" y="76.3359">OperationTypeRepository</text><rect fill="#E2E2F0" height="37.5547" rx="2.5" ry="2.5" style="stroke:#181818;stroke-width:0.5;" width="260.3184" x="1480.5195" y="708.4297"/><text fill="#000000" font-family="sans-serif" font-size="20" lengthAdjust="spacing" textLength="246.3184" x="1487.5195" y="734.7656">OperationTypeRepository</text><rect fill="#E2E2F0" height="37.5547" rx="2.5" ry="2.5" style="stroke:#181818;stroke-width:0.5;" width="157.2813" x="1750.8379" y="50"/><text fill="#000000" font-family="sans-serif" font-size="20" lengthAdjust="spacing" textLength="143.2813" x="1757.8379" y="76.3359">OperationType</text><rect fill="#E2E2F0" height="37.5547" rx="2.5" ry="2.5" style="stroke:#181818;stroke-width:0.5;" width="157.2813" x="1750.8379" y="708.4297"/><text fill="#000000" font-family="sans-serif" font-size="20" lengthAdjust="spacing" textLength="143.2813" x="1757.8379" y="734.7656">OperationType</text><rect fill="#FFFFFF" height="592.875" style="stroke:#181818;stroke-width:1.0;" width="10" x="34.626" y="98.5547"/><rect fill="#FFFFFF" height="592.875" style="stroke:#181818;stroke-width:1.0;" width="10" x="735.9893" y="98.5547"/><rect fill="#FFFFFF" height="112.6641" style="stroke:#181818;stroke-width:1.0;" width="10" x="1184.2861" y="165.6641"/><rect fill="#FFFFFF" height="262.8828" style="stroke:#181818;stroke-width:1.0;" width="10" x="1184.2861" y="390.9922"/><rect fill="#FFFFFF" height="37.5547" style="stroke:#181818;stroke-width:1.0;" width="10" x="1605.6787" y="203.2188"/><rect fill="#FFFFFF" height="187.7734" style="stroke:#181818;stroke-width:1.0;" width="10" x="1605.6787" y="428.5469"/><rect fill="#FFFFFF" height="196.7734" style="stroke:#181818;stroke-width:1.0;" width="10" x="1824.4785" y="503.6563"/><polygon fill="#181818" points="723.9893,124.1094,733.9893,128.1094,723.9893,132.1094,727.9893,128.1094" style="stroke:#181818;stroke-width:1.0;"/><line style="stroke:#181818;stroke-width:1.0;" x1="44.626" x2="729.9893" y1="128.1094" y2="128.1094"/><text fill="#000000" font-family="sans-serif" font-size="20" lengthAdjust="spacing" textLength="667.3633" x="51.626" y="121.8906">Request to deactivate operation type (GET: deactivateOperationType)</text><polygon fill="#181818" points="1172.2861,161.6641,1182.2861,165.6641,1172.2861,169.6641,1176.2861,165.6641" style="stroke:#181818;stroke-width:1.0;"/><line style="stroke:#181818;stroke-width:1.0;" x1="745.9893" x2="1178.2861" y1="165.6641" y2="165.6641"/><text fill="#000000" font-family="sans-serif" font-size="20" lengthAdjust="spacing" textLength="392.3926" x="752.9893" y="159.4453">getOperationTypeById (operationTypeId)</text><polygon fill="#181818" points="1593.6787,199.2188,1603.6787,203.2188,1593.6787,207.2188,1597.6787,203.2188" style="stroke:#181818;stroke-width:1.0;"/><line style="stroke:#181818;stroke-width:1.0;" x1="1194.2861" x2="1599.6787" y1="203.2188" y2="203.2188"/><text fill="#000000" font-family="sans-serif" font-size="20" lengthAdjust="spacing" textLength="392.3926" x="1201.2861" y="197">getOperationTypeById (operationTypeId)</text><polygon fill="#181818" points="1205.2861,236.7734,1195.2861,240.7734,1205.2861,244.7734,1201.2861,240.7734" style="stroke:#181818;stroke-width:1.0;"/><line style="stroke:#181818;stroke-width:1.0;stroke-dasharray:2.0,2.0;" x1="1199.2861" x2="1609.6787" y1="240.7734" y2="240.7734"/><text fill="#000000" font-family="sans-serif" font-size="20" lengthAdjust="spacing" textLength="294.375" x="1211.2861" y="234.5547">return operation type instance</text><polygon fill="#181818" points="756.9893,274.3281,746.9893,278.3281,756.9893,282.3281,752.9893,278.3281" style="stroke:#181818;stroke-width:1.0;"/><line style="stroke:#181818;stroke-width:1.0;stroke-dasharray:2.0,2.0;" x1="750.9893" x2="1188.2861" y1="278.3281" y2="278.3281"/><text fill="#000000" font-family="sans-serif" font-size="20" lengthAdjust="spacing" textLength="294.375" x="762.9893" y="272.1094">return operation type instance</text><polygon fill="#181818" points="55.626,311.8828,45.626,315.8828,55.626,319.8828,51.626,315.8828" style="stroke:#181818;stroke-width:1.0;"/><line style="stroke:#181818;stroke-width:1.0;stroke-dasharray:2.0,2.0;" x1="49.626" x2="734.9893" y1="315.8828" y2="315.8828"/><text fill="#000000" font-family="sans-serif" font-size="20" lengthAdjust="spacing" textLength="638.1738" x="61.626" y="309.6641">show operation type details and ask for deactivation confirmation</text><polygon fill="#181818" points="723.9893,349.4375,733.9893,353.4375,723.9893,357.4375,727.9893,353.4375" style="stroke:#181818;stroke-width:1.0;"/><line style="stroke:#181818;stroke-width:1.0;" x1="44.626" x2="729.9893" y1="353.4375" y2="353.4375"/><text fill="#000000" font-family="sans-serif" font-size="20" lengthAdjust="spacing" textLength="522.4805" x="51.626" y="347.2188">confirm deactivation (POST: deactivateOperationType)</text><polygon fill="#181818" points="1172.2861,386.9922,1182.2861,390.9922,1172.2861,394.9922,1176.2861,390.9922" style="stroke:#181818;stroke-width:1.0;"/><line style="stroke:#181818;stroke-width:1.0;" x1="745.9893" x2="1178.2861" y1="390.9922" y2="390.9922"/><text fill="#000000" font-family="sans-serif" font-size="20" lengthAdjust="spacing" textLength="419.2969" x="752.9893" y="384.7734">deactivateOperationType (operationTypeId)</text><polygon fill="#181818" points="1593.6787,424.5469,1603.6787,428.5469,1593.6787,432.5469,1597.6787,428.5469" style="stroke:#181818;stroke-width:1.0;"/><line style="stroke:#181818;stroke-width:1.0;" x1="1194.2861" x2="1599.6787" y1="428.5469" y2="428.5469"/><text fill="#000000" font-family="sans-serif" font-size="20" lengthAdjust="spacing" textLength="392.3926" x="1201.2861" y="422.3281">getOperationTypeById (operationTypeId)</text><polygon fill="#181818" points="1205.2861,462.1016,1195.2861,466.1016,1205.2861,470.1016,1201.2861,466.1016" style="stroke:#181818;stroke-width:1.0;"/><line style="stroke:#181818;stroke-width:1.0;stroke-dasharray:2.0,2.0;" x1="1199.2861" x2="1604.6787" y1="466.1016" y2="466.1016"/><text fill="#000000" font-family="sans-serif" font-size="20" lengthAdjust="spacing" textLength="294.375" x="1211.2861" y="459.8828">return operation type instance</text><polygon fill="#181818" points="1812.4785,499.6563,1822.4785,503.6563,1812.4785,507.6563,1816.4785,503.6563" style="stroke:#181818;stroke-width:1.0;"/><line style="stroke:#181818;stroke-width:1.0;" x1="1194.2861" x2="1818.4785" y1="503.6563" y2="503.6563"/><text fill="#000000" font-family="sans-serif" font-size="20" lengthAdjust="spacing" textLength="222.5195" x="1201.2861" y="497.4375">set instance to inactive</text><polygon fill="#181818" points="1205.2861,537.2109,1195.2861,541.2109,1205.2861,545.2109,1201.2861,541.2109" style="stroke:#181818;stroke-width:1.0;"/><line style="stroke:#181818;stroke-width:1.0;stroke-dasharray:2.0,2.0;" x1="1199.2861" x2="1823.4785" y1="541.2109" y2="541.2109"/><text fill="#000000" font-family="sans-serif" font-size="20" lengthAdjust="spacing" textLength="233.0273" x="1211.2861" y="534.9922">return updated instance</text><polygon fill="#181818" points="1593.6787,574.7656,1603.6787,578.7656,1593.6787,582.7656,1597.6787,578.7656" style="stroke:#181818;stroke-width:1.0;"/><line style="stroke:#181818;stroke-width:1.0;" x1="1194.2861" x2="1599.6787" y1="578.7656" y2="578.7656"/><text fill="#000000" font-family="sans-serif" font-size="20" lengthAdjust="spacing" textLength="276.4258" x="1201.2861" y="572.5469">save updated operation type</text><polygon fill="#181818" points="1205.2861,612.3203,1195.2861,616.3203,1205.2861,620.3203,1201.2861,616.3203" style="stroke:#181818;stroke-width:1.0;"/><line style="stroke:#181818;stroke-width:1.0;stroke-dasharray:2.0,2.0;" x1="1199.2861" x2="1609.6787" y1="616.3203" y2="616.3203"/><text fill="#000000" font-family="sans-serif" font-size="20" lengthAdjust="spacing" textLength="289.0137" x="1211.2861" y="610.1016">updated operation type saved</text><polygon fill="#181818" points="756.9893,649.875,746.9893,653.875,756.9893,657.875,752.9893,653.875" style="stroke:#181818;stroke-width:1.0;"/><line style="stroke:#181818;stroke-width:1.0;stroke-dasharray:2.0,2.0;" x1="750.9893" x2="1188.2861" y1="653.875" y2="653.875"/><text fill="#000000" font-family="sans-serif" font-size="20" lengthAdjust="spacing" textLength="235.2441" x="762.9893" y="647.6563">return success response</text><polygon fill="#181818" points="50.626,687.4297,40.626,691.4297,50.626,695.4297,46.626,691.4297" style="stroke:#181818;stroke-width:1.0;"/><line style="stroke:#181818;stroke-width:1.0;stroke-dasharray:2.0,2.0;" x1="44.626" x2="739.9893" y1="691.4297" y2="691.4297"/><text fill="#000000" font-family="sans-serif" font-size="20" lengthAdjust="spacing" textLength="222.4512" x="56.626" y="685.2109">show success message</text><!--SRC=[rLJBJiCm4BpdAtni3vKGnnoG007ggOZs1onxMwmcjh4tGUNhMKTvhAj6ehrngRhEpEpih9DuDDRB8ElAgIDeeM4lcmfVdSMj-G5nVrT8XIw8HrqRMn0KZJ9UMXGR3q6YSNPtyl1CXE2g2eAGKKpLF6CBeJKA4hp_Eu_z0E-Y8Hkd19-gUKR2PGT5ciEq4g4VPIoPsQ9x95OFxB2aVbyDH1JeA9wHvWPrWQdVukrbLxBdMVDbmV8XzNxWKXm0C-3JQQt5ml6ZjLvENeUaYY4z4flYk5wFHSaoNd6B0R09zdnSOoDAIqvO8aniydUMvT_Lnb5vTAJMhQWKyTDzdyjeG6cgAAJLjF-ZsDEz7HKJIZcxDw7kYfbbzv2SjtZVR6_OxWp-VosOEybQqmu0HrnwEupj-iBKFdy5ynGkcMYy9fg-t9td46KB8pgtFZlePNWdfM-ynx5H2cAaCdfduzKNUE3Nz2CF6PrzbjXfH_u5]--></g></svg>