<svg xmlns="http://www.w3.org/2000/svg" xmlns:xlink="http://www.w3.org/1999/xlink" contentStyleType="text/css" height="199px" preserveAspectRatio="none" style="width:449px;height:199px;background:#FFFFFF;" version="1.1" viewBox="0 0 449 199" width="449px" zoomAndPan="magnify"><title>Use Case Diagram 5.1.1</title><defs/><g><text fill="#000000" font-family="sans-serif" font-size="14" font-weight="bold" lengthAdjust="spacing" textLength="157.9785" x="138.986" y="25.1074">Use Case Diagram 5.1.1</text><!--entity Admin--><g id="elem_Admin"><ellipse cx="25.8413" cy="80.6211" fill="#F1F1F1" rx="8" ry="8" style="stroke:#181818;stroke-width:0.5;"/><path d="M25.8413,88.6211 L25.8413,115.6211 M12.8413,96.6211 L38.8413,96.6211 M25.8413,115.6211 L12.8413,130.6211 M25.8413,115.6211 L38.8413,130.6211 " fill="none" style="stroke:#181818;stroke-width:0.5;"/><text fill="#000000" font-family="sans-serif" font-size="14" lengthAdjust="spacing" textLength="39.6826" x="6" y="147.2285">Admin</text></g><g id="elem_UC1.1"><ellipse cx="275.095" cy="65.4401" fill="#F1F1F1" rx="87.095" ry="19.819" style="stroke:#181818;stroke-width:0.5;"/><text fill="#000000" font-family="sans-serif" font-size="14" lengthAdjust="spacing" textLength="126.8271" x="208.6814" y="70.2438">Register a new User</text></g><g id="elem_UC1.2"><ellipse cx="274.9753" cy="156.8161" fill="#F1F1F1" rx="168.9753" ry="36.1951" style="stroke:#181818;stroke-width:0.5;"/><text fill="#000000" font-family="sans-serif" font-size="14" lengthAdjust="spacing" textLength="306.626" x="121.6623" y="160.613">Send a setup link via email to activate an account</text></g><!--link Admin to UC1.1--><g id="link_Admin_UC1.1"><path d="M46.38,108.0111 C80.5,101.6611 146.8813,89.2887 200.8913,79.2387 " fill="none" id="Admin-to-UC1.1" style="stroke:#181818;stroke-width:1.0;"/><polygon fill="#181818" points="206.79,78.1411,197.2101,75.855,201.8744,79.0558,198.6736,83.72,206.79,78.1411" style="stroke:#181818;stroke-width:1.0;"/></g><!--link Admin to UC1.2--><g id="link_Admin_UC1.2"><path d="M46.38,115.1511 C68.62,119.2011 101.1571,125.1358 140.1871,132.2458 " fill="none" id="Admin-to-UC1.2" style="stroke:#181818;stroke-width:1.0;"/><polygon fill="#181818" points="146.09,133.3211,137.9526,127.7729,141.171,132.425,136.5188,135.6434,146.09,133.3211" style="stroke:#181818;stroke-width:1.0;"/></g><!--SRC=[POvD2i9034RtFSL7zosqu5QGUWAb1mWpiGRdHsRIUdrdkgWBDo49UI-VYZh6d1aJbN8LMX9vdFgX7nh73uL695cU2Yk9ZKeCJKD6OyB5UYa3W3MpgNXxuqMoSW8XyATwKmlAcAVgAvSxWwux_rO7VETW2vXPrpUSX1Ss8R0dSJL5UIeRAOD2wKrSWnxkyTyzxic-]--></g></svg>